G04 #@! TF.FileFunction,Copper,L2,Bot,Signal*
%FSLAX46Y46*%
G04 Gerber Fmt 4.6, Leading zero omitted, Abs format (unit mm)*
G04 Created by KiCad (PCBNEW 4.0.6) date 08/19/17 18:46:32*
%MOMM*%
%LPD*%
G01*
G04 APERTURE LIST*
%ADD10C,0.100000*%
%ADD11C,1.500000*%
%ADD12C,1.524000*%
%ADD13C,3.980180*%
%ADD14C,2.600000*%
%ADD15C,1.699260*%
%ADD16C,3.050000*%
%ADD17C,4.000000*%
%ADD18C,0.600000*%
%ADD19C,0.140000*%
G04 APERTURE END LIST*
D10*
D11*
X189500000Y-74500000D03*
X190500000Y-76500000D03*
X191500000Y-74500000D03*
X192500000Y-76500000D03*
X193500000Y-74500000D03*
X194500000Y-76500000D03*
X195500000Y-74500000D03*
X196500000Y-76500000D03*
X197500000Y-74500000D03*
X198500000Y-76500000D03*
X199500000Y-74500000D03*
X200500000Y-76500000D03*
X201500000Y-74500000D03*
X202500000Y-76500000D03*
X203500000Y-74500000D03*
X204500000Y-76500000D03*
D12*
X224500000Y-74500000D03*
D11*
X225500000Y-76500000D03*
X226500000Y-74500000D03*
X227500000Y-76500000D03*
X228500000Y-74500000D03*
X229500000Y-76500000D03*
X230500000Y-74500000D03*
X231500000Y-76500000D03*
X232500000Y-74500000D03*
X233500000Y-76500000D03*
D13*
X88625000Y-88250000D03*
D14*
X91165000Y-83170000D03*
X84815000Y-85710000D03*
D15*
X83545000Y-88250000D03*
X93705000Y-88250000D03*
D13*
X86250000Y-107250000D03*
D14*
X88790000Y-102170000D03*
X82440000Y-104710000D03*
D15*
X81170000Y-107250000D03*
X91330000Y-107250000D03*
D13*
X91000000Y-126250000D03*
D14*
X93540000Y-121170000D03*
X87190000Y-123710000D03*
D15*
X85920000Y-126250000D03*
X96080000Y-126250000D03*
D13*
X88625000Y-145250000D03*
D14*
X91165000Y-140170000D03*
X84815000Y-142710000D03*
D15*
X83545000Y-145250000D03*
X93705000Y-145250000D03*
D13*
X98125000Y-164250000D03*
D14*
X100665000Y-159170000D03*
X94315000Y-161710000D03*
D15*
X93045000Y-164250000D03*
X103205000Y-164250000D03*
D13*
X86250000Y-183250000D03*
D14*
X88790000Y-178170000D03*
X82440000Y-180710000D03*
D15*
X81170000Y-183250000D03*
X91330000Y-183250000D03*
D13*
X110000000Y-88250000D03*
D14*
X112540000Y-83170000D03*
X106190000Y-85710000D03*
D15*
X104920000Y-88250000D03*
X115080000Y-88250000D03*
D13*
X105250000Y-107250000D03*
D14*
X107790000Y-102170000D03*
X101440000Y-104710000D03*
D15*
X100170000Y-107250000D03*
X110330000Y-107250000D03*
D13*
X114750000Y-126250000D03*
D14*
X117290000Y-121170000D03*
X110940000Y-123710000D03*
D15*
X109670000Y-126250000D03*
X119830000Y-126250000D03*
D13*
X119500000Y-145250000D03*
D14*
X122040000Y-140170000D03*
X115690000Y-142710000D03*
D15*
X114420000Y-145250000D03*
X124580000Y-145250000D03*
D13*
X129000000Y-164250000D03*
D14*
X131540000Y-159170000D03*
X125190000Y-161710000D03*
D15*
X123920000Y-164250000D03*
X134080000Y-164250000D03*
D13*
X105250000Y-183250000D03*
D14*
X107790000Y-178170000D03*
X101440000Y-180710000D03*
D15*
X100170000Y-183250000D03*
X110330000Y-183250000D03*
D13*
X129000000Y-88250000D03*
D14*
X131540000Y-83170000D03*
X125190000Y-85710000D03*
D15*
X123920000Y-88250000D03*
X134080000Y-88250000D03*
D13*
X124250000Y-107250000D03*
D14*
X126790000Y-102170000D03*
X120440000Y-104710000D03*
D15*
X119170000Y-107250000D03*
X129330000Y-107250000D03*
D13*
X133750000Y-126250000D03*
D14*
X136290000Y-121170000D03*
X129940000Y-123710000D03*
D15*
X128670000Y-126250000D03*
X138830000Y-126250000D03*
D13*
X138500000Y-145250000D03*
D14*
X141040000Y-140170000D03*
X134690000Y-142710000D03*
D15*
X133420000Y-145250000D03*
X143580000Y-145250000D03*
D13*
X148000000Y-164250000D03*
D14*
X150540000Y-159170000D03*
X144190000Y-161710000D03*
D15*
X142920000Y-164250000D03*
X153080000Y-164250000D03*
D13*
X124250000Y-183250000D03*
D14*
X126790000Y-178170000D03*
X120440000Y-180710000D03*
D15*
X119170000Y-183250000D03*
X129330000Y-183250000D03*
D13*
X148000000Y-88250000D03*
D14*
X150540000Y-83170000D03*
X144190000Y-85710000D03*
D15*
X142920000Y-88250000D03*
X153080000Y-88250000D03*
D13*
X143250000Y-107250000D03*
D14*
X145790000Y-102170000D03*
X139440000Y-104710000D03*
D15*
X138170000Y-107250000D03*
X148330000Y-107250000D03*
D13*
X152750000Y-126250000D03*
D14*
X155290000Y-121170000D03*
X148940000Y-123710000D03*
D15*
X147670000Y-126250000D03*
X157830000Y-126250000D03*
D13*
X157500000Y-145250000D03*
D14*
X160040000Y-140170000D03*
X153690000Y-142710000D03*
D15*
X152420000Y-145250000D03*
X162580000Y-145250000D03*
D13*
X167000000Y-164250000D03*
D14*
X169540000Y-159170000D03*
X163190000Y-161710000D03*
D15*
X161920000Y-164250000D03*
X172080000Y-164250000D03*
D13*
X143250000Y-183250000D03*
D14*
X145790000Y-178170000D03*
X139440000Y-180710000D03*
D15*
X138170000Y-183250000D03*
X148330000Y-183250000D03*
D13*
X167000000Y-88250000D03*
D14*
X169540000Y-83170000D03*
X163190000Y-85710000D03*
D15*
X161920000Y-88250000D03*
X172080000Y-88250000D03*
D13*
X162250000Y-107250000D03*
D14*
X164790000Y-102170000D03*
X158440000Y-104710000D03*
D15*
X157170000Y-107250000D03*
X167330000Y-107250000D03*
D13*
X171750000Y-126250000D03*
D14*
X174290000Y-121170000D03*
X167940000Y-123710000D03*
D15*
X166670000Y-126250000D03*
X176830000Y-126250000D03*
D13*
X176500000Y-145250000D03*
D14*
X179040000Y-140170000D03*
X172690000Y-142710000D03*
D15*
X171420000Y-145250000D03*
X181580000Y-145250000D03*
D13*
X186000000Y-164250000D03*
D14*
X188540000Y-159170000D03*
X182190000Y-161710000D03*
D15*
X180920000Y-164250000D03*
X191080000Y-164250000D03*
D13*
X162250000Y-183250000D03*
D14*
X164790000Y-178170000D03*
X158440000Y-180710000D03*
D15*
X157170000Y-183250000D03*
X167330000Y-183250000D03*
D13*
X186000000Y-88250000D03*
D14*
X188540000Y-83170000D03*
X182190000Y-85710000D03*
D15*
X180920000Y-88250000D03*
X191080000Y-88250000D03*
D13*
X181250000Y-107250000D03*
D14*
X183790000Y-102170000D03*
X177440000Y-104710000D03*
D15*
X176170000Y-107250000D03*
X186330000Y-107250000D03*
D13*
X190750000Y-126250000D03*
D14*
X193290000Y-121170000D03*
X186940000Y-123710000D03*
D15*
X185670000Y-126250000D03*
X195830000Y-126250000D03*
D13*
X195500000Y-145250000D03*
D14*
X198040000Y-140170000D03*
X191690000Y-142710000D03*
D15*
X190420000Y-145250000D03*
X200580000Y-145250000D03*
D13*
X205000000Y-164250000D03*
D14*
X207540000Y-159170000D03*
X201190000Y-161710000D03*
D15*
X199920000Y-164250000D03*
X210080000Y-164250000D03*
D13*
X181250000Y-183250000D03*
D14*
X183790000Y-178170000D03*
X177440000Y-180710000D03*
D15*
X176170000Y-183250000D03*
X186330000Y-183250000D03*
D13*
X205000000Y-88250000D03*
D14*
X207540000Y-83170000D03*
X201190000Y-85710000D03*
D15*
X199920000Y-88250000D03*
X210080000Y-88250000D03*
D13*
X200250000Y-107250000D03*
D14*
X202790000Y-102170000D03*
X196440000Y-104710000D03*
D15*
X195170000Y-107250000D03*
X205330000Y-107250000D03*
D13*
X209750000Y-126250000D03*
D14*
X212290000Y-121170000D03*
X205940000Y-123710000D03*
D15*
X204670000Y-126250000D03*
X214830000Y-126250000D03*
D13*
X214500000Y-145250000D03*
D14*
X217040000Y-140170000D03*
X210690000Y-142710000D03*
D15*
X209420000Y-145250000D03*
X219580000Y-145250000D03*
D13*
X224000000Y-164250000D03*
D14*
X226540000Y-159170000D03*
X220190000Y-161710000D03*
D15*
X218920000Y-164250000D03*
X229080000Y-164250000D03*
D13*
X209750000Y-183250000D03*
D14*
X212290000Y-178170000D03*
X205940000Y-180710000D03*
D15*
X204670000Y-183250000D03*
X214830000Y-183250000D03*
D13*
X224000000Y-88250000D03*
D14*
X226540000Y-83170000D03*
X220190000Y-85710000D03*
D15*
X218920000Y-88250000D03*
X229080000Y-88250000D03*
D13*
X219250000Y-107250000D03*
D14*
X221790000Y-102170000D03*
X215440000Y-104710000D03*
D15*
X214170000Y-107250000D03*
X224330000Y-107250000D03*
D13*
X228750000Y-126250000D03*
D14*
X231290000Y-121170000D03*
X224940000Y-123710000D03*
D15*
X223670000Y-126250000D03*
X233830000Y-126250000D03*
D13*
X233500000Y-145250000D03*
D14*
X236040000Y-140170000D03*
X229690000Y-142710000D03*
D15*
X228420000Y-145250000D03*
X238580000Y-145250000D03*
D13*
X243000000Y-164250000D03*
D14*
X245540000Y-159170000D03*
X239190000Y-161710000D03*
D15*
X237920000Y-164250000D03*
X248080000Y-164250000D03*
D13*
X240625000Y-183250000D03*
D14*
X243165000Y-178170000D03*
X236815000Y-180710000D03*
D15*
X235545000Y-183250000D03*
X245705000Y-183250000D03*
D13*
X243000000Y-88250000D03*
D14*
X245540000Y-83170000D03*
X239190000Y-85710000D03*
D15*
X237920000Y-88250000D03*
X248080000Y-88250000D03*
D13*
X238250000Y-107250000D03*
D14*
X240790000Y-102170000D03*
X234440000Y-104710000D03*
D15*
X233170000Y-107250000D03*
X243330000Y-107250000D03*
D13*
X247750000Y-126250000D03*
D14*
X250290000Y-121170000D03*
X243940000Y-123710000D03*
D15*
X242670000Y-126250000D03*
X252830000Y-126250000D03*
D13*
X252500000Y-145250000D03*
D14*
X255040000Y-140170000D03*
X248690000Y-142710000D03*
D15*
X247420000Y-145250000D03*
X257580000Y-145250000D03*
D13*
X262000000Y-164250000D03*
D14*
X264540000Y-159170000D03*
X258190000Y-161710000D03*
D15*
X256920000Y-164250000D03*
X267080000Y-164250000D03*
D13*
X264375000Y-183250000D03*
D14*
X266915000Y-178170000D03*
X260565000Y-180710000D03*
D15*
X259295000Y-183250000D03*
X269455000Y-183250000D03*
D13*
X262000000Y-88250000D03*
D14*
X264540000Y-83170000D03*
X258190000Y-85710000D03*
D15*
X256920000Y-88250000D03*
X267080000Y-88250000D03*
D13*
X257250000Y-107250000D03*
D14*
X259790000Y-102170000D03*
X253440000Y-104710000D03*
D15*
X252170000Y-107250000D03*
X262330000Y-107250000D03*
D13*
X266750000Y-126250000D03*
D14*
X269290000Y-121170000D03*
X262940000Y-123710000D03*
D15*
X261670000Y-126250000D03*
X271830000Y-126250000D03*
D13*
X271500000Y-145250000D03*
D14*
X274040000Y-140170000D03*
X267690000Y-142710000D03*
D15*
X266420000Y-145250000D03*
X276580000Y-145250000D03*
D13*
X281000000Y-164250000D03*
D14*
X283540000Y-159170000D03*
X277190000Y-161710000D03*
D15*
X275920000Y-164250000D03*
X286080000Y-164250000D03*
D13*
X285750000Y-183250000D03*
D14*
X288290000Y-178170000D03*
X281940000Y-180710000D03*
D15*
X280670000Y-183250000D03*
X290830000Y-183250000D03*
D13*
X281000000Y-88250000D03*
D14*
X283540000Y-83170000D03*
X277190000Y-85710000D03*
D15*
X275920000Y-88250000D03*
X286080000Y-88250000D03*
D13*
X276250000Y-107250000D03*
D14*
X278790000Y-102170000D03*
X272440000Y-104710000D03*
D15*
X271170000Y-107250000D03*
X281330000Y-107250000D03*
D13*
X285750000Y-126250000D03*
D14*
X288290000Y-121170000D03*
X281940000Y-123710000D03*
D15*
X280670000Y-126250000D03*
X290830000Y-126250000D03*
D13*
X290500000Y-145250000D03*
D14*
X293040000Y-140170000D03*
X286690000Y-142710000D03*
D15*
X285420000Y-145250000D03*
X295580000Y-145250000D03*
D13*
X300000000Y-164250000D03*
D14*
X302540000Y-159170000D03*
X296190000Y-161710000D03*
D15*
X294920000Y-164250000D03*
X305080000Y-164250000D03*
D13*
X323750000Y-183250000D03*
D14*
X326290000Y-178170000D03*
X319940000Y-180710000D03*
D15*
X318670000Y-183250000D03*
X328830000Y-183250000D03*
D13*
X300000000Y-88250000D03*
D14*
X302540000Y-83170000D03*
X296190000Y-85710000D03*
D15*
X294920000Y-88250000D03*
X305080000Y-88250000D03*
D13*
X295250000Y-107250000D03*
D14*
X297790000Y-102170000D03*
X291440000Y-104710000D03*
D15*
X290170000Y-107250000D03*
X300330000Y-107250000D03*
D13*
X304750000Y-126250000D03*
D14*
X307290000Y-121170000D03*
X300940000Y-123710000D03*
D15*
X299670000Y-126250000D03*
X309830000Y-126250000D03*
D13*
X309500000Y-145250000D03*
D14*
X312040000Y-140170000D03*
X305690000Y-142710000D03*
D15*
X304420000Y-145250000D03*
X314580000Y-145250000D03*
D13*
X330875000Y-164250000D03*
D14*
X333415000Y-159170000D03*
X327065000Y-161710000D03*
D15*
X325795000Y-164250000D03*
X335955000Y-164250000D03*
D13*
X304750000Y-183250000D03*
D14*
X307290000Y-178170000D03*
X300940000Y-180710000D03*
D15*
X299670000Y-183250000D03*
X309830000Y-183250000D03*
D13*
X319000000Y-88250000D03*
D14*
X321540000Y-83170000D03*
X315190000Y-85710000D03*
D15*
X313920000Y-88250000D03*
X324080000Y-88250000D03*
D13*
X314250000Y-107250000D03*
D14*
X316790000Y-102170000D03*
X310440000Y-104710000D03*
D15*
X309170000Y-107250000D03*
X319330000Y-107250000D03*
D13*
X323750000Y-126250000D03*
D14*
X326290000Y-121170000D03*
X319940000Y-123710000D03*
D15*
X318670000Y-126250000D03*
X328830000Y-126250000D03*
D13*
X335625000Y-145250000D03*
D14*
X338165000Y-140170000D03*
X331815000Y-142710000D03*
D15*
X330545000Y-145250000D03*
X340705000Y-145250000D03*
D13*
X342750000Y-183250000D03*
D14*
X345290000Y-178170000D03*
X338940000Y-180710000D03*
D15*
X337670000Y-183250000D03*
X347830000Y-183250000D03*
D13*
X340375000Y-88250000D03*
D14*
X342915000Y-83170000D03*
X336565000Y-85710000D03*
D15*
X335295000Y-88250000D03*
X345455000Y-88250000D03*
D13*
X338000000Y-107250000D03*
D14*
X340540000Y-102170000D03*
X334190000Y-104710000D03*
D15*
X332920000Y-107250000D03*
X343080000Y-107250000D03*
D13*
X342750000Y-126250000D03*
D14*
X345290000Y-121170000D03*
X338940000Y-123710000D03*
D15*
X337670000Y-126250000D03*
X347830000Y-126250000D03*
D16*
X86325000Y-157250000D03*
X110025000Y-157250000D03*
D17*
X110025000Y-172450000D03*
X86325000Y-172450000D03*
D16*
X319075000Y-157250000D03*
X342775000Y-157250000D03*
D17*
X342775000Y-172450000D03*
X319075000Y-172450000D03*
D16*
X197950000Y-176250000D03*
X221650000Y-176250000D03*
D17*
X221650000Y-191450000D03*
X197950000Y-191450000D03*
D18*
X285000000Y-90750000D03*
X290000000Y-91500000D03*
X203750000Y-177750000D03*
X201500000Y-167500000D03*
X190750000Y-101500000D03*
X183500000Y-97000000D03*
X257750000Y-82500000D03*
X252000000Y-79750000D03*
X223000000Y-75750000D03*
X193750000Y-79250000D03*
X179000000Y-78250000D03*
X119750000Y-82000000D03*
X130000000Y-137000000D03*
X109500000Y-135000000D03*
X191500000Y-84250000D03*
X190750000Y-92750000D03*
X107000000Y-136000000D03*
X155750000Y-130000000D03*
X195250000Y-187250000D03*
X193500000Y-78250000D03*
X190500000Y-84000000D03*
X191750000Y-91750000D03*
X204500000Y-158000000D03*
X202750000Y-170500000D03*
X294750000Y-82500000D03*
X294000000Y-79500000D03*
X246250000Y-168500000D03*
X246250000Y-165250000D03*
X215500000Y-90250000D03*
X211500000Y-85000000D03*
X201000000Y-78000000D03*
X253500000Y-82500000D03*
X251250000Y-78000000D03*
X142000000Y-188750000D03*
X329000000Y-87500000D03*
X320500000Y-94500000D03*
X288250000Y-97000000D03*
X282000000Y-97750000D03*
X229750000Y-81250000D03*
X224750000Y-82250000D03*
X222000000Y-82250000D03*
X202500000Y-83750000D03*
X199000000Y-79000000D03*
X222500000Y-122000000D03*
X225000000Y-101000000D03*
X198250000Y-118250000D03*
X226250000Y-91000000D03*
X227000000Y-87000000D03*
X214750000Y-87750000D03*
X214750000Y-83750000D03*
X198250000Y-102750000D03*
X230500000Y-84500000D03*
X266750000Y-173250000D03*
D19*
X178000000Y-77500000D02*
X181000000Y-74500000D01*
X178000000Y-77500000D02*
X176500000Y-79000000D01*
X84815000Y-85710000D02*
X84815000Y-81685000D01*
X84815000Y-81685000D02*
X87500000Y-79000000D01*
X176500000Y-79000000D02*
X87500000Y-79000000D01*
X181000000Y-74500000D02*
X189500000Y-74500000D01*
X334190000Y-104710000D02*
X333730000Y-104250000D01*
X333730000Y-104250000D02*
X312750000Y-104250000D01*
X277190000Y-88190000D02*
X277190000Y-85710000D01*
X279750000Y-90750000D02*
X277190000Y-88190000D01*
X285000000Y-90750000D02*
X279750000Y-90750000D01*
X297750000Y-99250000D02*
X290000000Y-91500000D01*
X307750000Y-99250000D02*
X297750000Y-99250000D01*
X312750000Y-104250000D02*
X307750000Y-99250000D01*
X182190000Y-85710000D02*
X182190000Y-95690000D01*
X203750000Y-178520000D02*
X205940000Y-180710000D01*
X203750000Y-177750000D02*
X203750000Y-178520000D01*
X201500000Y-164000000D02*
X201500000Y-167500000D01*
X203250000Y-162250000D02*
X201500000Y-164000000D01*
X203250000Y-160250000D02*
X203250000Y-162250000D01*
X199000000Y-156000000D02*
X203250000Y-160250000D01*
X199000000Y-144500000D02*
X199000000Y-156000000D01*
X194250000Y-139750000D02*
X199000000Y-144500000D01*
X194250000Y-125250000D02*
X194250000Y-139750000D01*
X191250000Y-122250000D02*
X194250000Y-125250000D01*
X191250000Y-102000000D02*
X191250000Y-122250000D01*
X190750000Y-101500000D02*
X191250000Y-102000000D01*
X182190000Y-95690000D02*
X183500000Y-97000000D01*
X188700000Y-79200000D02*
X193700000Y-79200000D01*
X258190000Y-82940000D02*
X258190000Y-85710000D01*
X257750000Y-82500000D02*
X258190000Y-82940000D01*
X245750000Y-73500000D02*
X252000000Y-79750000D01*
X224000000Y-73500000D02*
X245750000Y-73500000D01*
X223000000Y-74500000D02*
X224000000Y-73500000D01*
X223000000Y-75750000D02*
X223000000Y-74500000D01*
X193700000Y-79200000D02*
X193750000Y-79250000D01*
X190500000Y-76500000D02*
X190500000Y-77400000D01*
X190500000Y-77400000D02*
X188700000Y-79200000D01*
X188700000Y-79200000D02*
X182190000Y-85710000D01*
X334190000Y-118960000D02*
X334190000Y-140335000D01*
X334190000Y-140335000D02*
X331815000Y-142710000D01*
X334190000Y-104710000D02*
X334190000Y-118960000D01*
X334190000Y-118960000D02*
X338940000Y-123710000D01*
X258190000Y-85710000D02*
X277190000Y-85710000D01*
X171540000Y-85710000D02*
X163190000Y-85710000D01*
X179000000Y-78250000D02*
X171540000Y-85710000D01*
X139440000Y-104710000D02*
X139440000Y-114210000D01*
X139440000Y-114210000D02*
X148940000Y-123710000D01*
X148940000Y-123710000D02*
X148940000Y-137960000D01*
X148940000Y-137960000D02*
X153690000Y-142710000D01*
X153690000Y-142710000D02*
X153690000Y-152210000D01*
X153690000Y-152210000D02*
X163190000Y-161710000D01*
X139440000Y-104710000D02*
X139440000Y-85710000D01*
X139500000Y-85750000D02*
X139500000Y-85710000D01*
X139480000Y-85750000D02*
X139500000Y-85750000D01*
X139440000Y-85710000D02*
X139480000Y-85750000D01*
X125190000Y-85710000D02*
X139500000Y-85710000D01*
X139500000Y-85710000D02*
X144190000Y-85710000D01*
X144190000Y-85710000D02*
X163190000Y-85710000D01*
X119750000Y-82000000D02*
X119750000Y-104020000D01*
X119750000Y-104020000D02*
X120440000Y-104710000D01*
X84815000Y-142710000D02*
X99290000Y-142710000D01*
X130000000Y-137000000D02*
X129940000Y-137000000D01*
X107000000Y-135000000D02*
X109500000Y-135000000D01*
X99290000Y-142710000D02*
X107000000Y-135000000D01*
X106190000Y-85710000D02*
X106190000Y-90460000D01*
X106190000Y-90460000D02*
X120440000Y-104710000D01*
X120440000Y-104710000D02*
X120440000Y-114210000D01*
X120440000Y-114210000D02*
X129940000Y-123710000D01*
X129940000Y-123710000D02*
X129940000Y-137000000D01*
X129940000Y-137000000D02*
X129940000Y-137960000D01*
X129940000Y-137960000D02*
X134690000Y-142710000D01*
X134690000Y-142710000D02*
X134690000Y-152210000D01*
X134690000Y-152210000D02*
X144190000Y-161710000D01*
X110250000Y-79250000D02*
X107000000Y-79250000D01*
X101500000Y-90250000D02*
X101440000Y-90250000D01*
X101500000Y-84750000D02*
X101500000Y-90250000D01*
X107000000Y-79250000D02*
X101500000Y-84750000D01*
X193500000Y-74500000D02*
X192750000Y-75250000D01*
X101440000Y-90250000D02*
X101440000Y-104710000D01*
X110257998Y-79242002D02*
X110250000Y-79250000D01*
X176757998Y-79242002D02*
X110257998Y-79242002D01*
X180500000Y-75500000D02*
X176757998Y-79242002D01*
X192000000Y-75500000D02*
X180500000Y-75500000D01*
X192250000Y-75250000D02*
X192000000Y-75500000D01*
X192750000Y-75250000D02*
X192250000Y-75250000D01*
X115690000Y-142710000D02*
X115690000Y-152210000D01*
X115690000Y-152210000D02*
X125190000Y-161710000D01*
X110940000Y-123710000D02*
X110940000Y-137960000D01*
X110940000Y-137960000D02*
X115690000Y-142710000D01*
X82440000Y-104710000D02*
X82440000Y-118960000D01*
X82440000Y-118960000D02*
X87190000Y-123710000D01*
X87190000Y-123710000D02*
X110940000Y-123710000D01*
X101440000Y-104710000D02*
X82440000Y-104710000D01*
X180490000Y-117260000D02*
X184500000Y-113250000D01*
X194500000Y-81250000D02*
X194500000Y-76500000D01*
X191500000Y-84250000D02*
X194500000Y-81250000D01*
X190750000Y-98500000D02*
X190750000Y-92750000D01*
X184500000Y-104750000D02*
X190750000Y-98500000D01*
X184500000Y-113250000D02*
X184500000Y-104750000D01*
X182190000Y-161710000D02*
X201190000Y-161710000D01*
X172690000Y-142710000D02*
X191690000Y-142710000D01*
X172690000Y-142710000D02*
X172690000Y-152210000D01*
X172690000Y-152210000D02*
X182190000Y-161710000D01*
X167940000Y-123710000D02*
X167940000Y-137960000D01*
X167940000Y-137960000D02*
X172690000Y-142710000D01*
X186940000Y-123710000D02*
X167940000Y-123710000D01*
X177440000Y-104710000D02*
X177440000Y-114210000D01*
X177440000Y-114210000D02*
X180490000Y-117260000D01*
X180490000Y-117260000D02*
X186940000Y-123710000D01*
X158440000Y-104710000D02*
X177440000Y-104710000D01*
X192500000Y-89250000D02*
X192500000Y-116500000D01*
X310540000Y-161710000D02*
X327065000Y-161710000D01*
X305250000Y-167000000D02*
X310540000Y-161710000D01*
X218750000Y-167000000D02*
X305250000Y-167000000D01*
X206500000Y-154750000D02*
X218750000Y-167000000D01*
X206500000Y-130500000D02*
X206500000Y-154750000D01*
X192500000Y-116500000D02*
X206500000Y-130500000D01*
X195500000Y-74500000D02*
X195500000Y-86250000D01*
X94315000Y-148685000D02*
X94315000Y-161710000D01*
X107000000Y-136000000D02*
X94315000Y-148685000D01*
X155750000Y-125250000D02*
X155750000Y-130000000D01*
X151750000Y-121250000D02*
X155750000Y-125250000D01*
X151750000Y-101000000D02*
X151750000Y-121250000D01*
X152750000Y-100000000D02*
X151750000Y-101000000D01*
X181750000Y-100000000D02*
X152750000Y-100000000D01*
X195500000Y-86250000D02*
X192500000Y-89250000D01*
X192500000Y-89250000D02*
X181750000Y-100000000D01*
X239190000Y-161710000D02*
X220190000Y-161710000D01*
X229690000Y-142710000D02*
X229690000Y-152210000D01*
X229690000Y-152210000D02*
X239190000Y-161710000D01*
X229690000Y-142710000D02*
X210690000Y-142710000D01*
X224940000Y-123710000D02*
X224940000Y-137960000D01*
X224940000Y-137960000D02*
X229690000Y-142710000D01*
X205940000Y-123710000D02*
X224940000Y-123710000D01*
X196440000Y-104710000D02*
X196440000Y-114210000D01*
X196440000Y-114210000D02*
X205940000Y-123710000D01*
X196500000Y-76500000D02*
X196500000Y-104650000D01*
X196500000Y-104650000D02*
X196440000Y-104710000D01*
X215440000Y-104710000D02*
X196440000Y-104710000D01*
X310440000Y-104710000D02*
X310440000Y-114210000D01*
X310440000Y-114210000D02*
X319940000Y-123710000D01*
X248690000Y-142710000D02*
X248690000Y-152210000D01*
X248690000Y-152210000D02*
X258190000Y-161710000D01*
X243940000Y-123710000D02*
X243940000Y-137960000D01*
X243940000Y-137960000D02*
X248690000Y-142710000D01*
X234440000Y-104710000D02*
X234440000Y-114210000D01*
X234440000Y-114210000D02*
X243940000Y-123710000D01*
X197500000Y-74500000D02*
X197500000Y-82020000D01*
X197500000Y-82020000D02*
X201190000Y-85710000D01*
X194250000Y-79000000D02*
X193500000Y-78250000D01*
X194250000Y-80250000D02*
X194250000Y-79000000D01*
X190500000Y-84000000D02*
X194250000Y-80250000D01*
X191750000Y-116500000D02*
X191750000Y-91750000D01*
X202250000Y-127000000D02*
X191750000Y-116500000D01*
X202250000Y-155750000D02*
X202250000Y-127000000D01*
X204500000Y-158000000D02*
X202250000Y-155750000D01*
X202750000Y-179750000D02*
X202750000Y-170500000D01*
X202750000Y-179750000D02*
X195250000Y-187250000D01*
X267690000Y-142710000D02*
X267690000Y-152210000D01*
X267690000Y-152210000D02*
X277190000Y-161710000D01*
X262940000Y-123710000D02*
X262940000Y-137960000D01*
X262940000Y-137960000D02*
X267690000Y-142710000D01*
X253440000Y-104710000D02*
X253440000Y-114210000D01*
X253440000Y-114210000D02*
X262940000Y-123710000D01*
X239190000Y-85710000D02*
X239190000Y-90460000D01*
X239190000Y-90460000D02*
X253440000Y-104710000D01*
X220190000Y-85710000D02*
X239190000Y-85710000D01*
X199500000Y-74500000D02*
X199500000Y-78500000D01*
X206710000Y-85710000D02*
X220190000Y-85710000D01*
X199500000Y-78500000D02*
X206710000Y-85710000D01*
X200500000Y-76500000D02*
X205250000Y-81250000D01*
X267980000Y-100250000D02*
X272440000Y-104710000D01*
X249750000Y-100250000D02*
X267980000Y-100250000D01*
X246250000Y-96750000D02*
X249750000Y-100250000D01*
X246250000Y-87250000D02*
X246250000Y-96750000D01*
X242750000Y-83750000D02*
X246250000Y-87250000D01*
X238500000Y-83750000D02*
X242750000Y-83750000D01*
X237250000Y-85000000D02*
X238500000Y-83750000D01*
X226000000Y-85000000D02*
X237250000Y-85000000D01*
X225000000Y-84000000D02*
X226000000Y-85000000D01*
X219250000Y-84000000D02*
X225000000Y-84000000D01*
X218500000Y-84750000D02*
X219250000Y-84000000D01*
X213750000Y-84750000D02*
X218500000Y-84750000D01*
X210250000Y-81250000D02*
X213750000Y-84750000D01*
X205250000Y-81250000D02*
X210250000Y-81250000D01*
X286690000Y-142710000D02*
X286690000Y-152210000D01*
X286690000Y-152210000D02*
X296190000Y-161710000D01*
X286690000Y-142710000D02*
X305690000Y-142710000D01*
X300940000Y-123710000D02*
X300940000Y-137960000D01*
X300940000Y-137960000D02*
X305690000Y-142710000D01*
X281940000Y-123710000D02*
X300940000Y-123710000D01*
X291440000Y-104710000D02*
X291440000Y-114210000D01*
X291440000Y-114210000D02*
X300940000Y-123710000D01*
X272440000Y-104710000D02*
X291440000Y-104710000D01*
X296190000Y-85710000D02*
X296190000Y-91440000D01*
X246775000Y-170750000D02*
X236815000Y-180710000D01*
X267250000Y-170750000D02*
X246775000Y-170750000D01*
X269750000Y-173250000D02*
X267250000Y-170750000D01*
X269750000Y-176000000D02*
X269750000Y-173250000D01*
X281750000Y-188000000D02*
X269750000Y-176000000D01*
X308500000Y-188000000D02*
X281750000Y-188000000D01*
X321250000Y-175250000D02*
X308500000Y-188000000D01*
X332750000Y-175250000D02*
X321250000Y-175250000D01*
X338000000Y-170000000D02*
X332750000Y-175250000D01*
X338000000Y-160500000D02*
X338000000Y-170000000D01*
X332000000Y-154500000D02*
X338000000Y-160500000D01*
X332000000Y-145250000D02*
X332000000Y-154500000D01*
X336000000Y-141250000D02*
X332000000Y-145250000D01*
X336000000Y-129500000D02*
X336000000Y-141250000D01*
X341000000Y-124500000D02*
X336000000Y-129500000D01*
X341000000Y-106250000D02*
X341000000Y-124500000D01*
X333000000Y-98250000D02*
X341000000Y-106250000D01*
X303000000Y-98250000D02*
X333000000Y-98250000D01*
X296190000Y-91440000D02*
X303000000Y-98250000D01*
X201500000Y-74500000D02*
X202500000Y-73500000D01*
X294750000Y-84270000D02*
X296190000Y-85710000D01*
X294750000Y-82500000D02*
X294750000Y-84270000D01*
X253500000Y-79500000D02*
X294000000Y-79500000D01*
X247000000Y-73000000D02*
X253500000Y-79500000D01*
X223750000Y-73000000D02*
X247000000Y-73000000D01*
X223250000Y-73500000D02*
X223750000Y-73000000D01*
X202500000Y-73500000D02*
X223250000Y-73500000D01*
X246250000Y-163000000D02*
X246250000Y-165250000D01*
X237000000Y-153750000D02*
X246250000Y-163000000D01*
X237000000Y-145000000D02*
X237000000Y-153750000D01*
X231750000Y-139750000D02*
X237000000Y-145000000D01*
X231750000Y-125750000D02*
X231750000Y-139750000D01*
X227500000Y-121500000D02*
X231750000Y-125750000D01*
X227500000Y-101500000D02*
X227500000Y-121500000D01*
X217000000Y-91000000D02*
X227500000Y-101500000D01*
X217000000Y-90250000D02*
X217000000Y-91000000D01*
X215500000Y-90250000D02*
X217000000Y-90250000D01*
X206750000Y-85000000D02*
X211500000Y-85000000D01*
X205750000Y-84000000D02*
X206750000Y-85000000D01*
X205750000Y-82750000D02*
X205750000Y-84000000D01*
X201000000Y-78000000D02*
X205750000Y-82750000D01*
X281940000Y-180710000D02*
X281940000Y-177940000D01*
X189650000Y-168500000D02*
X177440000Y-180710000D01*
X272500000Y-168500000D02*
X246250000Y-168500000D01*
X246250000Y-168500000D02*
X189650000Y-168500000D01*
X281940000Y-177940000D02*
X272500000Y-168500000D01*
X281940000Y-180710000D02*
X300940000Y-180710000D01*
X203500000Y-74500000D02*
X222657758Y-74500000D01*
X310730000Y-81250000D02*
X315190000Y-85710000D01*
X254750000Y-81250000D02*
X310730000Y-81250000D01*
X253500000Y-82500000D02*
X254750000Y-81250000D01*
X246500000Y-73250000D02*
X251250000Y-78000000D01*
X223907758Y-73250000D02*
X246500000Y-73250000D01*
X222657758Y-74500000D02*
X223907758Y-73250000D01*
X315190000Y-85710000D02*
X328960000Y-85710000D01*
X349000000Y-170650000D02*
X338940000Y-180710000D01*
X349000000Y-105750000D02*
X349000000Y-170650000D01*
X328960000Y-85710000D02*
X349000000Y-105750000D01*
X139440000Y-186190000D02*
X139440000Y-180710000D01*
X142000000Y-188750000D02*
X139440000Y-186190000D01*
X204500000Y-76500000D02*
X208750000Y-80750000D01*
X327500000Y-87500000D02*
X329000000Y-87500000D01*
X320500000Y-94500000D02*
X327500000Y-87500000D01*
X287500000Y-97750000D02*
X288250000Y-97000000D01*
X282000000Y-97750000D02*
X287500000Y-97750000D01*
X225750000Y-81250000D02*
X229750000Y-81250000D01*
X224750000Y-82250000D02*
X225750000Y-81250000D01*
X220500000Y-80750000D02*
X222000000Y-82250000D01*
X208750000Y-80750000D02*
X220500000Y-80750000D01*
X93540000Y-121170000D02*
X101330000Y-121170000D01*
X148120000Y-80750000D02*
X150540000Y-83170000D01*
X107500000Y-80750000D02*
X148120000Y-80750000D01*
X103000000Y-85250000D02*
X107500000Y-80750000D01*
X103000000Y-89500000D02*
X103000000Y-85250000D01*
X112000000Y-98500000D02*
X103000000Y-89500000D01*
X112000000Y-110500000D02*
X112000000Y-98500000D01*
X101330000Y-121170000D02*
X112000000Y-110500000D01*
X202500000Y-83750000D02*
X199000000Y-80250000D01*
X199000000Y-80250000D02*
X199000000Y-79000000D01*
X222500000Y-106750000D02*
X222500000Y-122000000D01*
X225000000Y-104250000D02*
X222500000Y-106750000D01*
X225000000Y-101000000D02*
X225000000Y-104250000D01*
X203500000Y-126630000D02*
X217040000Y-140170000D01*
X203500000Y-123500000D02*
X203500000Y-126630000D01*
X198250000Y-118250000D02*
X203500000Y-123500000D01*
X232250000Y-136380000D02*
X236040000Y-140170000D01*
X232250000Y-125500000D02*
X232250000Y-136380000D01*
X229250000Y-122500000D02*
X232250000Y-125500000D01*
X229250000Y-94000000D02*
X229250000Y-122500000D01*
X226250000Y-91000000D02*
X229250000Y-94000000D01*
X227000000Y-87000000D02*
X227000000Y-89750000D01*
X227000000Y-89750000D02*
X231290000Y-94040000D01*
X231290000Y-94040000D02*
X231290000Y-121170000D01*
X155290000Y-121170000D02*
X158170000Y-121170000D01*
X164000000Y-163500000D02*
X164000000Y-177380000D01*
X165500000Y-162000000D02*
X164000000Y-163500000D01*
X165500000Y-128500000D02*
X165500000Y-162000000D01*
X158170000Y-121170000D02*
X165500000Y-128500000D01*
X164000000Y-177380000D02*
X164790000Y-178170000D01*
X229500000Y-76500000D02*
X222500000Y-83500000D01*
X214750000Y-90210000D02*
X202790000Y-102170000D01*
X214750000Y-87750000D02*
X214750000Y-90210000D01*
X215000000Y-83500000D02*
X214750000Y-83750000D01*
X222500000Y-83500000D02*
X215000000Y-83500000D01*
X280500000Y-84000000D02*
X284250000Y-87750000D01*
X265370000Y-84000000D02*
X280500000Y-84000000D01*
X284250000Y-88630000D02*
X297790000Y-102170000D01*
X284250000Y-87750000D02*
X284250000Y-88630000D01*
X264540000Y-83170000D02*
X265370000Y-84000000D01*
X221790000Y-102170000D02*
X206080000Y-102170000D01*
X199500000Y-104000000D02*
X198250000Y-102750000D01*
X204250000Y-104000000D02*
X199500000Y-104000000D01*
X206080000Y-102170000D02*
X204250000Y-104000000D01*
X230500000Y-74500000D02*
X230500000Y-84500000D01*
X322250000Y-159170000D02*
X322250000Y-132750000D01*
X236000000Y-81000000D02*
X231500000Y-76500000D01*
X246250000Y-81000000D02*
X236000000Y-81000000D01*
X256500000Y-91250000D02*
X246250000Y-81000000D01*
X283500000Y-91250000D02*
X256500000Y-91250000D01*
X298000000Y-105750000D02*
X283500000Y-91250000D01*
X298000000Y-108500000D02*
X298000000Y-105750000D01*
X322250000Y-132750000D02*
X298000000Y-108500000D01*
X283540000Y-159170000D02*
X287670000Y-159170000D01*
X312330000Y-159170000D02*
X322250000Y-159170000D01*
X322250000Y-159170000D02*
X333415000Y-159170000D01*
X304750000Y-166750000D02*
X312330000Y-159170000D01*
X295250000Y-166750000D02*
X304750000Y-166750000D01*
X287670000Y-159170000D02*
X295250000Y-166750000D01*
X88790000Y-178170000D02*
X88790000Y-184290000D01*
X243165000Y-184835000D02*
X243165000Y-178170000D01*
X241000000Y-187000000D02*
X243165000Y-184835000D01*
X197500000Y-187000000D02*
X241000000Y-187000000D01*
X191750000Y-192750000D02*
X197500000Y-187000000D01*
X97250000Y-192750000D02*
X191750000Y-192750000D01*
X88790000Y-184290000D02*
X97250000Y-192750000D01*
X248085000Y-173250000D02*
X243165000Y-178170000D01*
X266750000Y-173250000D02*
X248085000Y-173250000D01*
X232500000Y-74500000D02*
X246000000Y-74500000D01*
X349750000Y-173710000D02*
X345290000Y-178170000D01*
X349750000Y-83500000D02*
X349750000Y-173710000D01*
X346500000Y-80250000D02*
X349750000Y-83500000D01*
X251750000Y-80250000D02*
X346500000Y-80250000D01*
X246000000Y-74500000D02*
X251750000Y-80250000D01*
M02*
