M48
;DRILL file {KiCad 4.0.6} date 08/19/17 19:06:57
;FORMAT={-:-/ absolute / metric / decimal}
FMAT,2
METRIC,TZ
T1C0.400
T2C0.700
T3C0.762
T4C0.800
T5C1.501
T6C1.699
T7C3.050
T8C3.980
T9C4.000
T10C3.000
%
G90
G05
M71
T1
X107.Y-136.
X109.5Y-135.
X119.75Y-82.
X130.Y-137.
X142.Y-188.75
X155.75Y-130.
X179.Y-78.25
X183.5Y-97.
X190.5Y-84.
X190.75Y-92.75
X190.75Y-101.5
X191.5Y-84.25
X191.75Y-91.75
X193.5Y-78.25
X193.75Y-79.25
X195.25Y-187.25
X198.25Y-102.75
X198.25Y-118.25
X199.Y-79.
X201.Y-78.
X201.5Y-167.5
X202.5Y-83.75
X202.75Y-170.5
X203.75Y-177.75
X204.5Y-158.
X211.5Y-85.
X214.75Y-83.75
X214.75Y-87.75
X215.5Y-90.25
X222.Y-82.25
X222.5Y-122.
X223.Y-75.75
X224.75Y-82.25
X225.Y-101.
X226.25Y-91.
X227.Y-87.
X229.75Y-81.25
X230.5Y-84.5
X246.25Y-165.25
X246.25Y-168.5
X251.25Y-78.
X252.Y-79.75
X253.5Y-82.5
X257.75Y-82.5
X266.75Y-173.25
X282.Y-97.75
X285.Y-90.75
X288.25Y-97.
X290.Y-91.5
X294.Y-79.5
X294.75Y-82.5
X320.5Y-94.5
X329.Y-87.5
T2
X225.5Y-76.5
X226.5Y-74.5
X227.5Y-76.5
X228.5Y-74.5
X229.5Y-76.5
X230.5Y-74.5
X231.5Y-76.5
X232.5Y-74.5
X233.5Y-76.5
T3
X224.5Y-74.5
T4
X189.5Y-74.5
X190.5Y-76.5
X191.5Y-74.5
X192.5Y-76.5
X193.5Y-74.5
X194.5Y-76.5
X195.5Y-74.5
X196.5Y-76.5
X197.5Y-74.5
X198.5Y-76.5
X199.5Y-74.5
X200.5Y-76.5
X201.5Y-74.5
X202.5Y-76.5
X203.5Y-74.5
X204.5Y-76.5
T5
X82.44Y-104.71
X82.44Y-180.71
X84.815Y-85.71
X84.815Y-142.71
X87.19Y-123.71
X88.79Y-102.17
X88.79Y-178.17
X91.165Y-83.17
X91.165Y-140.17
X93.54Y-121.17
X94.315Y-161.71
X100.665Y-159.17
X101.44Y-104.71
X101.44Y-180.71
X106.19Y-85.71
X107.79Y-102.17
X107.79Y-178.17
X110.94Y-123.71
X112.54Y-83.17
X115.69Y-142.71
X117.29Y-121.17
X120.44Y-104.71
X120.44Y-180.71
X122.04Y-140.17
X125.19Y-85.71
X125.19Y-161.71
X126.79Y-102.17
X126.79Y-178.17
X129.94Y-123.71
X131.54Y-83.17
X131.54Y-159.17
X134.69Y-142.71
X136.29Y-121.17
X139.44Y-104.71
X139.44Y-180.71
X141.04Y-140.17
X144.19Y-85.71
X144.19Y-161.71
X145.79Y-102.17
X145.79Y-178.17
X148.94Y-123.71
X150.54Y-83.17
X150.54Y-159.17
X153.69Y-142.71
X155.29Y-121.17
X158.44Y-104.71
X158.44Y-180.71
X160.04Y-140.17
X163.19Y-85.71
X163.19Y-161.71
X164.79Y-102.17
X164.79Y-178.17
X167.94Y-123.71
X169.54Y-83.17
X169.54Y-159.17
X172.69Y-142.71
X174.29Y-121.17
X177.44Y-104.71
X177.44Y-180.71
X179.04Y-140.17
X182.19Y-85.71
X182.19Y-161.71
X183.79Y-102.17
X183.79Y-178.17
X186.94Y-123.71
X188.54Y-83.17
X188.54Y-159.17
X191.69Y-142.71
X193.29Y-121.17
X196.44Y-104.71
X198.04Y-140.17
X201.19Y-85.71
X201.19Y-161.71
X202.79Y-102.17
X205.94Y-123.71
X205.94Y-180.71
X207.54Y-83.17
X207.54Y-159.17
X210.69Y-142.71
X212.29Y-121.17
X212.29Y-178.17
X215.44Y-104.71
X217.04Y-140.17
X220.19Y-85.71
X220.19Y-161.71
X221.79Y-102.17
X224.94Y-123.71
X226.54Y-83.17
X226.54Y-159.17
X229.69Y-142.71
X231.29Y-121.17
X234.44Y-104.71
X236.04Y-140.17
X236.815Y-180.71
X239.19Y-85.71
X239.19Y-161.71
X240.79Y-102.17
X243.165Y-178.17
X243.94Y-123.71
X245.54Y-83.17
X245.54Y-159.17
X248.69Y-142.71
X250.29Y-121.17
X253.44Y-104.71
X255.04Y-140.17
X258.19Y-85.71
X258.19Y-161.71
X259.79Y-102.17
X260.565Y-180.71
X262.94Y-123.71
X264.54Y-83.17
X264.54Y-159.17
X266.915Y-178.17
X267.69Y-142.71
X269.29Y-121.17
X272.44Y-104.71
X274.04Y-140.17
X277.19Y-85.71
X277.19Y-161.71
X278.79Y-102.17
X281.94Y-123.71
X281.94Y-180.71
X283.54Y-83.17
X283.54Y-159.17
X286.69Y-142.71
X288.29Y-121.17
X288.29Y-178.17
X291.44Y-104.71
X293.04Y-140.17
X296.19Y-85.71
X296.19Y-161.71
X297.79Y-102.17
X300.94Y-123.71
X300.94Y-180.71
X302.54Y-83.17
X302.54Y-159.17
X305.69Y-142.71
X307.29Y-121.17
X307.29Y-178.17
X310.44Y-104.71
X312.04Y-140.17
X315.19Y-85.71
X316.79Y-102.17
X319.94Y-123.71
X319.94Y-180.71
X321.54Y-83.17
X326.29Y-121.17
X326.29Y-178.17
X327.065Y-161.71
X331.815Y-142.71
X333.415Y-159.17
X334.19Y-104.71
X336.565Y-85.71
X338.165Y-140.17
X338.94Y-123.71
X338.94Y-180.71
X340.54Y-102.17
X342.915Y-83.17
X345.29Y-121.17
X345.29Y-178.17
T6
X81.17Y-107.25
X81.17Y-183.25
X83.545Y-88.25
X83.545Y-145.25
X85.92Y-126.25
X91.33Y-107.25
X91.33Y-183.25
X93.045Y-164.25
X93.705Y-88.25
X93.705Y-145.25
X96.08Y-126.25
X100.17Y-107.25
X100.17Y-183.25
X103.205Y-164.25
X104.92Y-88.25
X109.67Y-126.25
X110.33Y-107.25
X110.33Y-183.25
X114.42Y-145.25
X115.08Y-88.25
X119.17Y-107.25
X119.17Y-183.25
X119.83Y-126.25
X123.92Y-88.25
X123.92Y-164.25
X124.58Y-145.25
X128.67Y-126.25
X129.33Y-107.25
X129.33Y-183.25
X133.42Y-145.25
X134.08Y-88.25
X134.08Y-164.25
X138.17Y-107.25
X138.17Y-183.25
X138.83Y-126.25
X142.92Y-88.25
X142.92Y-164.25
X143.58Y-145.25
X147.67Y-126.25
X148.33Y-107.25
X148.33Y-183.25
X152.42Y-145.25
X153.08Y-88.25
X153.08Y-164.25
X157.17Y-107.25
X157.17Y-183.25
X157.83Y-126.25
X161.92Y-88.25
X161.92Y-164.25
X162.58Y-145.25
X166.67Y-126.25
X167.33Y-107.25
X167.33Y-183.25
X171.42Y-145.25
X172.08Y-88.25
X172.08Y-164.25
X176.17Y-107.25
X176.17Y-183.25
X176.83Y-126.25
X180.92Y-88.25
X180.92Y-164.25
X181.58Y-145.25
X185.67Y-126.25
X186.33Y-107.25
X186.33Y-183.25
X190.42Y-145.25
X191.08Y-88.25
X191.08Y-164.25
X195.17Y-107.25
X195.83Y-126.25
X199.92Y-88.25
X199.92Y-164.25
X200.58Y-145.25
X204.67Y-126.25
X204.67Y-183.25
X205.33Y-107.25
X209.42Y-145.25
X210.08Y-88.25
X210.08Y-164.25
X214.17Y-107.25
X214.83Y-126.25
X214.83Y-183.25
X218.92Y-88.25
X218.92Y-164.25
X219.58Y-145.25
X223.67Y-126.25
X224.33Y-107.25
X228.42Y-145.25
X229.08Y-88.25
X229.08Y-164.25
X233.17Y-107.25
X233.83Y-126.25
X235.545Y-183.25
X237.92Y-88.25
X237.92Y-164.25
X238.58Y-145.25
X242.67Y-126.25
X243.33Y-107.25
X245.705Y-183.25
X247.42Y-145.25
X248.08Y-88.25
X248.08Y-164.25
X252.17Y-107.25
X252.83Y-126.25
X256.92Y-88.25
X256.92Y-164.25
X257.58Y-145.25
X259.295Y-183.25
X261.67Y-126.25
X262.33Y-107.25
X266.42Y-145.25
X267.08Y-88.25
X267.08Y-164.25
X269.455Y-183.25
X271.17Y-107.25
X271.83Y-126.25
X275.92Y-88.25
X275.92Y-164.25
X276.58Y-145.25
X280.67Y-126.25
X280.67Y-183.25
X281.33Y-107.25
X285.42Y-145.25
X286.08Y-88.25
X286.08Y-164.25
X290.17Y-107.25
X290.83Y-126.25
X290.83Y-183.25
X294.92Y-88.25
X294.92Y-164.25
X295.58Y-145.25
X299.67Y-126.25
X299.67Y-183.25
X300.33Y-107.25
X304.42Y-145.25
X305.08Y-88.25
X305.08Y-164.25
X309.17Y-107.25
X309.83Y-126.25
X309.83Y-183.25
X313.92Y-88.25
X314.58Y-145.25
X318.67Y-126.25
X318.67Y-183.25
X319.33Y-107.25
X324.08Y-88.25
X325.795Y-164.25
X328.83Y-126.25
X328.83Y-183.25
X330.545Y-145.25
X332.92Y-107.25
X335.295Y-88.25
X335.955Y-164.25
X337.67Y-126.25
X337.67Y-183.25
X340.705Y-145.25
X343.08Y-107.25
X345.455Y-88.25
X347.83Y-126.25
X347.83Y-183.25
T7
X86.325Y-157.25
X110.025Y-157.25
X197.95Y-176.25
X221.65Y-176.25
X319.075Y-157.25
X342.775Y-157.25
T8
X86.25Y-107.25
X86.25Y-183.25
X88.625Y-88.25
X88.625Y-145.25
X91.Y-126.25
X98.125Y-164.25
X105.25Y-107.25
X105.25Y-183.25
X110.Y-88.25
X114.75Y-126.25
X119.5Y-145.25
X124.25Y-107.25
X124.25Y-183.25
X129.Y-88.25
X129.Y-164.25
X133.75Y-126.25
X138.5Y-145.25
X143.25Y-107.25
X143.25Y-183.25
X148.Y-88.25
X148.Y-164.25
X152.75Y-126.25
X157.5Y-145.25
X162.25Y-107.25
X162.25Y-183.25
X167.Y-88.25
X167.Y-164.25
X171.75Y-126.25
X176.5Y-145.25
X181.25Y-107.25
X181.25Y-183.25
X186.Y-88.25
X186.Y-164.25
X190.75Y-126.25
X195.5Y-145.25
X200.25Y-107.25
X205.Y-88.25
X205.Y-164.25
X209.75Y-126.25
X209.75Y-183.25
X214.5Y-145.25
X219.25Y-107.25
X224.Y-88.25
X224.Y-164.25
X228.75Y-126.25
X233.5Y-145.25
X238.25Y-107.25
X240.625Y-183.25
X243.Y-88.25
X243.Y-164.25
X247.75Y-126.25
X252.5Y-145.25
X257.25Y-107.25
X262.Y-88.25
X262.Y-164.25
X264.375Y-183.25
X266.75Y-126.25
X271.5Y-145.25
X276.25Y-107.25
X281.Y-88.25
X281.Y-164.25
X285.75Y-126.25
X285.75Y-183.25
X290.5Y-145.25
X295.25Y-107.25
X300.Y-88.25
X300.Y-164.25
X304.75Y-126.25
X304.75Y-183.25
X309.5Y-145.25
X314.25Y-107.25
X319.Y-88.25
X323.75Y-126.25
X323.75Y-183.25
X330.875Y-164.25
X335.625Y-145.25
X338.Y-107.25
X340.375Y-88.25
X342.75Y-126.25
X342.75Y-183.25
T9
X86.325Y-172.45
X110.025Y-172.45
X197.95Y-191.45
X221.65Y-191.45
X319.075Y-172.45
X342.775Y-172.45
T10
X97.5Y-75.5
X97.5Y-202.5
X174.5Y-75.5
X174.5Y-202.5
X254.5Y-75.5
X254.5Y-202.5
X331.5Y-75.5
X331.5Y-202.5
T0
M30
