G04 #@! TF.FileFunction,Profile,NP*
%FSLAX46Y46*%
G04 Gerber Fmt 4.6, Leading zero omitted, Abs format (unit mm)*
G04 Created by KiCad (PCBNEW 4.0.6) date 08/19/17 18:46:32*
%MOMM*%
%LPD*%
G01*
G04 APERTURE LIST*
%ADD10C,0.100000*%
%ADD11C,0.150000*%
G04 APERTURE END LIST*
D10*
D11*
X169500000Y-72500000D02*
X259500000Y-72500000D01*
X326500000Y-78500000D02*
X259500000Y-78500000D01*
X259500000Y-78500000D02*
X259500000Y-72500000D01*
X179500000Y-199500000D02*
X249500000Y-199500000D01*
X259500000Y-199500000D02*
X326500000Y-199500000D01*
X249500000Y-205500000D02*
X259500000Y-205500000D01*
X259500000Y-199500000D02*
X259500000Y-205500000D01*
X249500000Y-199500000D02*
X249500000Y-205500000D01*
X336500000Y-199500000D02*
X352500000Y-199500000D01*
X102500000Y-199500000D02*
X169500000Y-199500000D01*
X76500000Y-199500000D02*
X92500000Y-199500000D01*
X336500000Y-78500000D02*
X352500000Y-78500000D01*
X102500000Y-78500000D02*
X169500000Y-78500000D01*
X76500000Y-78500000D02*
X92500000Y-78500000D01*
X336500000Y-205500000D02*
X336500000Y-199500000D01*
X326500000Y-205500000D02*
X336500000Y-205500000D01*
X326500000Y-199500000D02*
X326500000Y-205500000D01*
X179500000Y-205500000D02*
X179500000Y-199500000D01*
X169500000Y-205500000D02*
X179500000Y-205500000D01*
X169500000Y-199500000D02*
X169500000Y-205500000D01*
X102500000Y-205500000D02*
X102500000Y-199500000D01*
X92500000Y-205500000D02*
X102500000Y-205500000D01*
X92500000Y-199500000D02*
X92500000Y-205500000D01*
X336500000Y-72500000D02*
X336500000Y-78500000D01*
X326500000Y-72500000D02*
X336500000Y-72500000D01*
X326500000Y-78500000D02*
X326500000Y-72500000D01*
X169500000Y-78500000D02*
X169500000Y-72500000D01*
X102500000Y-72500000D02*
X102500000Y-78500000D01*
X92500000Y-72500000D02*
X102500000Y-72500000D01*
X92500000Y-78500000D02*
X92500000Y-72500000D01*
X352500000Y-199500000D02*
X352500000Y-78500000D01*
X76500000Y-78500000D02*
X76500000Y-199500000D01*
M02*
