G04 #@! TF.FileFunction,Profile,NP*
%FSLAX46Y46*%
G04 Gerber Fmt 4.6, Leading zero omitted, Abs format (unit mm)*
G04 Created by KiCad (PCBNEW 4.0.6) date 09/10/17 00:35:59*
%MOMM*%
%LPD*%
G01*
G04 APERTURE LIST*
%ADD10C,0.100000*%
%ADD11C,0.150000*%
G04 APERTURE END LIST*
D10*
D11*
X77000000Y-78500000D02*
X92500000Y-78500000D01*
X169500000Y-73000000D02*
X169500000Y-78500000D01*
X102500000Y-73000000D02*
X102500000Y-78500000D01*
X102000000Y-72500000D02*
X93000000Y-72500000D01*
X102000000Y-72500000D02*
X102500000Y-73000000D01*
X92500000Y-73000000D02*
X93000000Y-72500000D01*
X92500000Y-73000000D02*
X92500000Y-78500000D01*
X76500000Y-79000000D02*
X76500000Y-199000000D01*
X76500000Y-79000000D02*
X77000000Y-78500000D01*
X77000000Y-199500000D02*
X92500000Y-199500000D01*
X76500000Y-199000000D02*
X77000000Y-199500000D01*
X92500000Y-199500000D02*
X92500000Y-205000000D01*
X93000000Y-205500000D02*
X102000000Y-205500000D01*
X92500000Y-205000000D02*
X93000000Y-205500000D01*
X102500000Y-199500000D02*
X102500000Y-205000000D01*
X102000000Y-205500000D02*
X102500000Y-205000000D01*
X169500000Y-205000000D02*
X169500000Y-199500000D01*
X170000000Y-205500000D02*
X179000000Y-205500000D01*
X169500000Y-205000000D02*
X170000000Y-205500000D01*
X179500000Y-205000000D02*
X179500000Y-199500000D01*
X179000000Y-205500000D02*
X179500000Y-205000000D01*
X249500000Y-205000000D02*
X249500000Y-199500000D01*
X250000000Y-205500000D02*
X259000000Y-205500000D01*
X249500000Y-205000000D02*
X250000000Y-205500000D01*
X259500000Y-205000000D02*
X259500000Y-199500000D01*
X259000000Y-205500000D02*
X259500000Y-205000000D01*
X326500000Y-199500000D02*
X326500000Y-205000000D01*
X327000000Y-205500000D02*
X336000000Y-205500000D01*
X326500000Y-205000000D02*
X327000000Y-205500000D01*
X336500000Y-199500000D02*
X336500000Y-205000000D01*
X336000000Y-205500000D02*
X336500000Y-205000000D01*
X352500000Y-199000000D02*
X352500000Y-79000000D01*
X352000000Y-199500000D02*
X352500000Y-199000000D01*
X336500000Y-78500000D02*
X352000000Y-78500000D01*
X352000000Y-78500000D02*
X352500000Y-79000000D01*
X336500000Y-73000000D02*
X336500000Y-78500000D01*
X327000000Y-72500000D02*
X336000000Y-72500000D01*
X336000000Y-72500000D02*
X336500000Y-73000000D01*
X326500000Y-73000000D02*
X326500000Y-78500000D01*
X326500000Y-73000000D02*
X327000000Y-72500000D01*
X259500000Y-73000000D02*
X259500000Y-78500000D01*
X220500000Y-72500000D02*
X259000000Y-72500000D01*
X170000000Y-72500000D02*
X206500000Y-72500000D01*
X169500000Y-73000000D02*
X170000000Y-72500000D01*
X259000000Y-72500000D02*
X259500000Y-73000000D01*
X207000000Y-75500000D02*
X220000000Y-75500000D01*
X220000000Y-73000000D02*
X220000000Y-75500000D01*
X220000000Y-73000000D02*
X220500000Y-72500000D01*
X207000000Y-73000000D02*
X207000000Y-75500000D01*
X207000000Y-73000000D02*
X206500000Y-72500000D01*
X326500000Y-78500000D02*
X259500000Y-78500000D01*
X179500000Y-199500000D02*
X249500000Y-199500000D01*
X259500000Y-199500000D02*
X326500000Y-199500000D01*
X336500000Y-199500000D02*
X352500000Y-199500000D01*
X102500000Y-199500000D02*
X169500000Y-199500000D01*
X102500000Y-78500000D02*
X169500000Y-78500000D01*
M02*
