G04 #@! TF.FileFunction,Legend,Top*
%FSLAX46Y46*%
G04 Gerber Fmt 4.6, Leading zero omitted, Abs format (unit mm)*
G04 Created by KiCad (PCBNEW 4.0.6) date 09/10/17 00:35:59*
%MOMM*%
%LPD*%
G01*
G04 APERTURE LIST*
%ADD10C,0.100000*%
%ADD11C,0.300000*%
%ADD12C,0.381000*%
%ADD13C,0.120000*%
%ADD14C,0.304800*%
%ADD15C,4.380180*%
%ADD16C,3.000000*%
%ADD17C,2.099260*%
%ADD18C,3.400000*%
%ADD19C,1.900000*%
%ADD20C,1.924000*%
%ADD21C,3.450000*%
%ADD22C,4.400000*%
%ADD23R,2.000000X2.000000*%
%ADD24O,2.000000X2.000000*%
G04 APERTURE END LIST*
D10*
D11*
X78357143Y-197678571D02*
X78357143Y-196178571D01*
X78857143Y-197250000D01*
X79357143Y-196178571D01*
X79357143Y-197678571D01*
X80642857Y-197607143D02*
X80500000Y-197678571D01*
X80214286Y-197678571D01*
X80071429Y-197607143D01*
X80000000Y-197464286D01*
X80000000Y-196892857D01*
X80071429Y-196750000D01*
X80214286Y-196678571D01*
X80500000Y-196678571D01*
X80642857Y-196750000D01*
X80714286Y-196892857D01*
X80714286Y-197035714D01*
X80000000Y-197178571D01*
X82000000Y-197607143D02*
X81857143Y-197678571D01*
X81571429Y-197678571D01*
X81428571Y-197607143D01*
X81357143Y-197535714D01*
X81285714Y-197392857D01*
X81285714Y-196964286D01*
X81357143Y-196821429D01*
X81428571Y-196750000D01*
X81571429Y-196678571D01*
X81857143Y-196678571D01*
X82000000Y-196750000D01*
X82642857Y-197678571D02*
X82642857Y-196178571D01*
X83285714Y-197678571D02*
X83285714Y-196892857D01*
X83214285Y-196750000D01*
X83071428Y-196678571D01*
X82857143Y-196678571D01*
X82714285Y-196750000D01*
X82642857Y-196821429D01*
X84642857Y-197678571D02*
X84642857Y-196892857D01*
X84571428Y-196750000D01*
X84428571Y-196678571D01*
X84142857Y-196678571D01*
X84000000Y-196750000D01*
X84642857Y-197607143D02*
X84500000Y-197678571D01*
X84142857Y-197678571D01*
X84000000Y-197607143D01*
X83928571Y-197464286D01*
X83928571Y-197321429D01*
X84000000Y-197178571D01*
X84142857Y-197107143D01*
X84500000Y-197107143D01*
X84642857Y-197035714D01*
X85357143Y-196678571D02*
X85357143Y-197678571D01*
X85357143Y-196821429D02*
X85428571Y-196750000D01*
X85571429Y-196678571D01*
X85785714Y-196678571D01*
X85928571Y-196750000D01*
X86000000Y-196892857D01*
X86000000Y-197678571D01*
X86714286Y-197678571D02*
X86714286Y-196678571D01*
X86714286Y-196178571D02*
X86642857Y-196250000D01*
X86714286Y-196321429D01*
X86785714Y-196250000D01*
X86714286Y-196178571D01*
X86714286Y-196321429D01*
X88071429Y-197607143D02*
X87928572Y-197678571D01*
X87642858Y-197678571D01*
X87500000Y-197607143D01*
X87428572Y-197535714D01*
X87357143Y-197392857D01*
X87357143Y-196964286D01*
X87428572Y-196821429D01*
X87500000Y-196750000D01*
X87642858Y-196678571D01*
X87928572Y-196678571D01*
X88071429Y-196750000D01*
X89357143Y-197678571D02*
X89357143Y-196892857D01*
X89285714Y-196750000D01*
X89142857Y-196678571D01*
X88857143Y-196678571D01*
X88714286Y-196750000D01*
X89357143Y-197607143D02*
X89214286Y-197678571D01*
X88857143Y-197678571D01*
X88714286Y-197607143D01*
X88642857Y-197464286D01*
X88642857Y-197321429D01*
X88714286Y-197178571D01*
X88857143Y-197107143D01*
X89214286Y-197107143D01*
X89357143Y-197035714D01*
X90285715Y-197678571D02*
X90142857Y-197607143D01*
X90071429Y-197464286D01*
X90071429Y-196178571D01*
X91928571Y-197250000D02*
X92642857Y-197250000D01*
X91785714Y-197678571D02*
X92285714Y-196178571D01*
X92785714Y-197678571D01*
X93500000Y-197678571D02*
X93357142Y-197607143D01*
X93285714Y-197464286D01*
X93285714Y-196178571D01*
X94071428Y-196678571D02*
X94071428Y-198178571D01*
X94071428Y-196750000D02*
X94214285Y-196678571D01*
X94499999Y-196678571D01*
X94642856Y-196750000D01*
X94714285Y-196821429D01*
X94785714Y-196964286D01*
X94785714Y-197392857D01*
X94714285Y-197535714D01*
X94642856Y-197607143D01*
X94499999Y-197678571D01*
X94214285Y-197678571D01*
X94071428Y-197607143D01*
X95428571Y-197678571D02*
X95428571Y-196178571D01*
X96071428Y-197678571D02*
X96071428Y-196892857D01*
X95999999Y-196750000D01*
X95857142Y-196678571D01*
X95642857Y-196678571D01*
X95499999Y-196750000D01*
X95428571Y-196821429D01*
X97428571Y-197678571D02*
X97428571Y-196892857D01*
X97357142Y-196750000D01*
X97214285Y-196678571D01*
X96928571Y-196678571D01*
X96785714Y-196750000D01*
X97428571Y-197607143D02*
X97285714Y-197678571D01*
X96928571Y-197678571D01*
X96785714Y-197607143D01*
X96714285Y-197464286D01*
X96714285Y-197321429D01*
X96785714Y-197178571D01*
X96928571Y-197107143D01*
X97285714Y-197107143D01*
X97428571Y-197035714D01*
X98071428Y-197607143D02*
X98285714Y-197678571D01*
X98642857Y-197678571D01*
X98785714Y-197607143D01*
X98857143Y-197535714D01*
X98928571Y-197392857D01*
X98928571Y-197250000D01*
X98857143Y-197107143D01*
X98785714Y-197035714D01*
X98642857Y-196964286D01*
X98357143Y-196892857D01*
X98214285Y-196821429D01*
X98142857Y-196750000D01*
X98071428Y-196607143D01*
X98071428Y-196464286D01*
X98142857Y-196321429D01*
X98214285Y-196250000D01*
X98357143Y-196178571D01*
X98714285Y-196178571D01*
X98928571Y-196250000D01*
X99571428Y-197678571D02*
X99571428Y-196678571D01*
X99571428Y-196821429D02*
X99642856Y-196750000D01*
X99785714Y-196678571D01*
X99999999Y-196678571D01*
X100142856Y-196750000D01*
X100214285Y-196892857D01*
X100214285Y-197678571D01*
X100214285Y-196892857D02*
X100285714Y-196750000D01*
X100428571Y-196678571D01*
X100642856Y-196678571D01*
X100785714Y-196750000D01*
X100857142Y-196892857D01*
X100857142Y-197678571D01*
X102214285Y-197678571D02*
X102214285Y-196892857D01*
X102142856Y-196750000D01*
X101999999Y-196678571D01*
X101714285Y-196678571D01*
X101571428Y-196750000D01*
X102214285Y-197607143D02*
X102071428Y-197678571D01*
X101714285Y-197678571D01*
X101571428Y-197607143D01*
X101499999Y-197464286D01*
X101499999Y-197321429D01*
X101571428Y-197178571D01*
X101714285Y-197107143D01*
X102071428Y-197107143D01*
X102214285Y-197035714D01*
X102928571Y-197678571D02*
X102928571Y-196678571D01*
X102928571Y-196964286D02*
X102999999Y-196821429D01*
X103071428Y-196750000D01*
X103214285Y-196678571D01*
X103357142Y-196678571D01*
X103642856Y-196678571D02*
X104214285Y-196678571D01*
X103857142Y-196178571D02*
X103857142Y-197464286D01*
X103928570Y-197607143D01*
X104071428Y-197678571D01*
X104214285Y-197678571D01*
X105714285Y-196178571D02*
X106642856Y-196178571D01*
X106142856Y-196750000D01*
X106357142Y-196750000D01*
X106499999Y-196821429D01*
X106571428Y-196892857D01*
X106642856Y-197035714D01*
X106642856Y-197392857D01*
X106571428Y-197535714D01*
X106499999Y-197607143D01*
X106357142Y-197678571D01*
X105928570Y-197678571D01*
X105785713Y-197607143D01*
X105714285Y-197535714D01*
X107571427Y-196178571D02*
X107714284Y-196178571D01*
X107857141Y-196250000D01*
X107928570Y-196321429D01*
X107999999Y-196464286D01*
X108071427Y-196750000D01*
X108071427Y-197107143D01*
X107999999Y-197392857D01*
X107928570Y-197535714D01*
X107857141Y-197607143D01*
X107714284Y-197678571D01*
X107571427Y-197678571D01*
X107428570Y-197607143D01*
X107357141Y-197535714D01*
X107285713Y-197392857D01*
X107214284Y-197107143D01*
X107214284Y-196750000D01*
X107285713Y-196464286D01*
X107357141Y-196321429D01*
X107428570Y-196250000D01*
X107571427Y-196178571D01*
X108999998Y-196178571D02*
X109142855Y-196178571D01*
X109285712Y-196250000D01*
X109357141Y-196321429D01*
X109428570Y-196464286D01*
X109499998Y-196750000D01*
X109499998Y-197107143D01*
X109428570Y-197392857D01*
X109357141Y-197535714D01*
X109285712Y-197607143D01*
X109142855Y-197678571D01*
X108999998Y-197678571D01*
X108857141Y-197607143D01*
X108785712Y-197535714D01*
X108714284Y-197392857D01*
X108642855Y-197107143D01*
X108642855Y-196750000D01*
X108714284Y-196464286D01*
X108785712Y-196321429D01*
X108857141Y-196250000D01*
X108999998Y-196178571D01*
X110428569Y-196178571D02*
X110571426Y-196178571D01*
X110714283Y-196250000D01*
X110785712Y-196321429D01*
X110857141Y-196464286D01*
X110928569Y-196750000D01*
X110928569Y-197107143D01*
X110857141Y-197392857D01*
X110785712Y-197535714D01*
X110714283Y-197607143D01*
X110571426Y-197678571D01*
X110428569Y-197678571D01*
X110285712Y-197607143D01*
X110214283Y-197535714D01*
X110142855Y-197392857D01*
X110071426Y-197107143D01*
X110071426Y-196750000D01*
X110142855Y-196464286D01*
X110214283Y-196321429D01*
X110285712Y-196250000D01*
X110428569Y-196178571D01*
X112714283Y-197678571D02*
X112714283Y-196178571D01*
X113571426Y-197678571D02*
X112928569Y-196821429D01*
X113571426Y-196178571D02*
X112714283Y-197035714D01*
X114785711Y-197607143D02*
X114642854Y-197678571D01*
X114357140Y-197678571D01*
X114214283Y-197607143D01*
X114142854Y-197464286D01*
X114142854Y-196892857D01*
X114214283Y-196750000D01*
X114357140Y-196678571D01*
X114642854Y-196678571D01*
X114785711Y-196750000D01*
X114857140Y-196892857D01*
X114857140Y-197035714D01*
X114142854Y-197178571D01*
X115357140Y-196678571D02*
X115714283Y-197678571D01*
X116071425Y-196678571D02*
X115714283Y-197678571D01*
X115571425Y-198035714D01*
X115499997Y-198107143D01*
X115357140Y-198178571D01*
X116642854Y-197678571D02*
X116642854Y-196178571D01*
X116642854Y-196750000D02*
X116785711Y-196678571D01*
X117071425Y-196678571D01*
X117214282Y-196750000D01*
X117285711Y-196821429D01*
X117357140Y-196964286D01*
X117357140Y-197392857D01*
X117285711Y-197535714D01*
X117214282Y-197607143D01*
X117071425Y-197678571D01*
X116785711Y-197678571D01*
X116642854Y-197607143D01*
X118214283Y-197678571D02*
X118071425Y-197607143D01*
X117999997Y-197535714D01*
X117928568Y-197392857D01*
X117928568Y-196964286D01*
X117999997Y-196821429D01*
X118071425Y-196750000D01*
X118214283Y-196678571D01*
X118428568Y-196678571D01*
X118571425Y-196750000D01*
X118642854Y-196821429D01*
X118714283Y-196964286D01*
X118714283Y-197392857D01*
X118642854Y-197535714D01*
X118571425Y-197607143D01*
X118428568Y-197678571D01*
X118214283Y-197678571D01*
X119999997Y-197678571D02*
X119999997Y-196892857D01*
X119928568Y-196750000D01*
X119785711Y-196678571D01*
X119499997Y-196678571D01*
X119357140Y-196750000D01*
X119999997Y-197607143D02*
X119857140Y-197678571D01*
X119499997Y-197678571D01*
X119357140Y-197607143D01*
X119285711Y-197464286D01*
X119285711Y-197321429D01*
X119357140Y-197178571D01*
X119499997Y-197107143D01*
X119857140Y-197107143D01*
X119999997Y-197035714D01*
X120714283Y-197678571D02*
X120714283Y-196678571D01*
X120714283Y-196964286D02*
X120785711Y-196821429D01*
X120857140Y-196750000D01*
X120999997Y-196678571D01*
X121142854Y-196678571D01*
X122285711Y-197678571D02*
X122285711Y-196178571D01*
X122285711Y-197607143D02*
X122142854Y-197678571D01*
X121857140Y-197678571D01*
X121714282Y-197607143D01*
X121642854Y-197535714D01*
X121571425Y-197392857D01*
X121571425Y-196964286D01*
X121642854Y-196821429D01*
X121714282Y-196750000D01*
X121857140Y-196678571D01*
X122142854Y-196678571D01*
X122285711Y-196750000D01*
X124142854Y-197107143D02*
X125285711Y-197107143D01*
X127142854Y-196678571D02*
X127142854Y-197964286D01*
X127071425Y-198107143D01*
X126928568Y-198178571D01*
X126857140Y-198178571D01*
X127142854Y-196178571D02*
X127071425Y-196250000D01*
X127142854Y-196321429D01*
X127214282Y-196250000D01*
X127142854Y-196178571D01*
X127142854Y-196321429D01*
X127714283Y-196678571D02*
X128071426Y-197678571D01*
X128428568Y-196678571D02*
X128071426Y-197678571D01*
X127928568Y-198035714D01*
X127857140Y-198107143D01*
X127714283Y-198178571D01*
X129642854Y-197678571D02*
X129642854Y-196892857D01*
X129571425Y-196750000D01*
X129428568Y-196678571D01*
X129142854Y-196678571D01*
X128999997Y-196750000D01*
X129642854Y-197607143D02*
X129499997Y-197678571D01*
X129142854Y-197678571D01*
X128999997Y-197607143D01*
X128928568Y-197464286D01*
X128928568Y-197321429D01*
X128999997Y-197178571D01*
X129142854Y-197107143D01*
X129499997Y-197107143D01*
X129642854Y-197035714D01*
X130357140Y-197678571D02*
X130357140Y-196678571D01*
X130357140Y-196821429D02*
X130428568Y-196750000D01*
X130571426Y-196678571D01*
X130785711Y-196678571D01*
X130928568Y-196750000D01*
X130999997Y-196892857D01*
X130999997Y-197678571D01*
X130999997Y-196892857D02*
X131071426Y-196750000D01*
X131214283Y-196678571D01*
X131428568Y-196678571D01*
X131571426Y-196750000D01*
X131642854Y-196892857D01*
X131642854Y-197678571D01*
X132357140Y-197678571D02*
X132357140Y-196678571D01*
X132357140Y-196178571D02*
X132285711Y-196250000D01*
X132357140Y-196321429D01*
X132428568Y-196250000D01*
X132357140Y-196178571D01*
X132357140Y-196321429D01*
X133071426Y-196678571D02*
X133071426Y-197678571D01*
X133071426Y-196821429D02*
X133142854Y-196750000D01*
X133285712Y-196678571D01*
X133499997Y-196678571D01*
X133642854Y-196750000D01*
X133714283Y-196892857D01*
X133714283Y-197678571D01*
X134999997Y-197607143D02*
X134857140Y-197678571D01*
X134571426Y-197678571D01*
X134428569Y-197607143D01*
X134357140Y-197464286D01*
X134357140Y-196892857D01*
X134428569Y-196750000D01*
X134571426Y-196678571D01*
X134857140Y-196678571D01*
X134999997Y-196750000D01*
X135071426Y-196892857D01*
X135071426Y-197035714D01*
X134357140Y-197178571D01*
X135928569Y-196821429D02*
X135785711Y-196750000D01*
X135714283Y-196678571D01*
X135642854Y-196535714D01*
X135642854Y-196464286D01*
X135714283Y-196321429D01*
X135785711Y-196250000D01*
X135928569Y-196178571D01*
X136214283Y-196178571D01*
X136357140Y-196250000D01*
X136428569Y-196321429D01*
X136499997Y-196464286D01*
X136499997Y-196535714D01*
X136428569Y-196678571D01*
X136357140Y-196750000D01*
X136214283Y-196821429D01*
X135928569Y-196821429D01*
X135785711Y-196892857D01*
X135714283Y-196964286D01*
X135642854Y-197107143D01*
X135642854Y-197392857D01*
X135714283Y-197535714D01*
X135785711Y-197607143D01*
X135928569Y-197678571D01*
X136214283Y-197678571D01*
X136357140Y-197607143D01*
X136428569Y-197535714D01*
X136499997Y-197392857D01*
X136499997Y-197107143D01*
X136428569Y-196964286D01*
X136357140Y-196892857D01*
X136214283Y-196821429D01*
X137928568Y-197678571D02*
X137071425Y-197678571D01*
X137499997Y-197678571D02*
X137499997Y-196178571D01*
X137357140Y-196392857D01*
X137214282Y-196535714D01*
X137071425Y-196607143D01*
X139285711Y-196178571D02*
X138571425Y-196178571D01*
X138499996Y-196892857D01*
X138571425Y-196821429D01*
X138714282Y-196750000D01*
X139071425Y-196750000D01*
X139214282Y-196821429D01*
X139285711Y-196892857D01*
X139357139Y-197035714D01*
X139357139Y-197392857D01*
X139285711Y-197535714D01*
X139214282Y-197607143D01*
X139071425Y-197678571D01*
X138714282Y-197678571D01*
X138571425Y-197607143D01*
X138499996Y-197535714D01*
X140928567Y-196964286D02*
X140857139Y-196892857D01*
X140714282Y-196821429D01*
X140571424Y-196821429D01*
X140428567Y-196892857D01*
X140357139Y-196964286D01*
X140285710Y-197107143D01*
X140285710Y-197250000D01*
X140357139Y-197392857D01*
X140428567Y-197464286D01*
X140571424Y-197535714D01*
X140714282Y-197535714D01*
X140857139Y-197464286D01*
X140928567Y-197392857D01*
X140928567Y-196821429D02*
X140928567Y-197392857D01*
X140999996Y-197464286D01*
X141071424Y-197464286D01*
X141214282Y-197392857D01*
X141285710Y-197250000D01*
X141285710Y-196892857D01*
X141142853Y-196678571D01*
X140928567Y-196535714D01*
X140642853Y-196464286D01*
X140357139Y-196535714D01*
X140142853Y-196678571D01*
X139999996Y-196892857D01*
X139928567Y-197178571D01*
X139999996Y-197464286D01*
X140142853Y-197678571D01*
X140357139Y-197821429D01*
X140642853Y-197892857D01*
X140928567Y-197821429D01*
X141142853Y-197678571D01*
X142571424Y-196678571D02*
X142571424Y-197892857D01*
X142499995Y-198035714D01*
X142428567Y-198107143D01*
X142285710Y-198178571D01*
X142071424Y-198178571D01*
X141928567Y-198107143D01*
X142571424Y-197607143D02*
X142428567Y-197678571D01*
X142142853Y-197678571D01*
X141999995Y-197607143D01*
X141928567Y-197535714D01*
X141857138Y-197392857D01*
X141857138Y-196964286D01*
X141928567Y-196821429D01*
X141999995Y-196750000D01*
X142142853Y-196678571D01*
X142428567Y-196678571D01*
X142571424Y-196750000D01*
X143285710Y-197678571D02*
X143285710Y-196678571D01*
X143285710Y-196821429D02*
X143357138Y-196750000D01*
X143499996Y-196678571D01*
X143714281Y-196678571D01*
X143857138Y-196750000D01*
X143928567Y-196892857D01*
X143928567Y-197678571D01*
X143928567Y-196892857D02*
X143999996Y-196750000D01*
X144142853Y-196678571D01*
X144357138Y-196678571D01*
X144499996Y-196750000D01*
X144571424Y-196892857D01*
X144571424Y-197678571D01*
X145928567Y-197678571D02*
X145928567Y-196892857D01*
X145857138Y-196750000D01*
X145714281Y-196678571D01*
X145428567Y-196678571D01*
X145285710Y-196750000D01*
X145928567Y-197607143D02*
X145785710Y-197678571D01*
X145428567Y-197678571D01*
X145285710Y-197607143D01*
X145214281Y-197464286D01*
X145214281Y-197321429D01*
X145285710Y-197178571D01*
X145428567Y-197107143D01*
X145785710Y-197107143D01*
X145928567Y-197035714D01*
X146642853Y-197678571D02*
X146642853Y-196678571D01*
X146642853Y-196178571D02*
X146571424Y-196250000D01*
X146642853Y-196321429D01*
X146714281Y-196250000D01*
X146642853Y-196178571D01*
X146642853Y-196321429D01*
X147571425Y-197678571D02*
X147428567Y-197607143D01*
X147357139Y-197464286D01*
X147357139Y-196178571D01*
X148142853Y-197535714D02*
X148214281Y-197607143D01*
X148142853Y-197678571D01*
X148071424Y-197607143D01*
X148142853Y-197535714D01*
X148142853Y-197678571D01*
X149499996Y-197607143D02*
X149357139Y-197678571D01*
X149071425Y-197678571D01*
X148928567Y-197607143D01*
X148857139Y-197535714D01*
X148785710Y-197392857D01*
X148785710Y-196964286D01*
X148857139Y-196821429D01*
X148928567Y-196750000D01*
X149071425Y-196678571D01*
X149357139Y-196678571D01*
X149499996Y-196750000D01*
X150357139Y-197678571D02*
X150214281Y-197607143D01*
X150142853Y-197535714D01*
X150071424Y-197392857D01*
X150071424Y-196964286D01*
X150142853Y-196821429D01*
X150214281Y-196750000D01*
X150357139Y-196678571D01*
X150571424Y-196678571D01*
X150714281Y-196750000D01*
X150785710Y-196821429D01*
X150857139Y-196964286D01*
X150857139Y-197392857D01*
X150785710Y-197535714D01*
X150714281Y-197607143D01*
X150571424Y-197678571D01*
X150357139Y-197678571D01*
X151499996Y-197678571D02*
X151499996Y-196678571D01*
X151499996Y-196821429D02*
X151571424Y-196750000D01*
X151714282Y-196678571D01*
X151928567Y-196678571D01*
X152071424Y-196750000D01*
X152142853Y-196892857D01*
X152142853Y-197678571D01*
X152142853Y-196892857D02*
X152214282Y-196750000D01*
X152357139Y-196678571D01*
X152571424Y-196678571D01*
X152714282Y-196750000D01*
X152785710Y-196892857D01*
X152785710Y-197678571D01*
X154642853Y-197107143D02*
X155785710Y-197107143D01*
X158499996Y-197678571D02*
X157999996Y-196964286D01*
X157642853Y-197678571D02*
X157642853Y-196178571D01*
X158214281Y-196178571D01*
X158357139Y-196250000D01*
X158428567Y-196321429D01*
X158499996Y-196464286D01*
X158499996Y-196678571D01*
X158428567Y-196821429D01*
X158357139Y-196892857D01*
X158214281Y-196964286D01*
X157642853Y-196964286D01*
X159714281Y-197607143D02*
X159571424Y-197678571D01*
X159285710Y-197678571D01*
X159142853Y-197607143D01*
X159071424Y-197464286D01*
X159071424Y-196892857D01*
X159142853Y-196750000D01*
X159285710Y-196678571D01*
X159571424Y-196678571D01*
X159714281Y-196750000D01*
X159785710Y-196892857D01*
X159785710Y-197035714D01*
X159071424Y-197178571D01*
X160357138Y-197607143D02*
X160499995Y-197678571D01*
X160785710Y-197678571D01*
X160928567Y-197607143D01*
X160999995Y-197464286D01*
X160999995Y-197392857D01*
X160928567Y-197250000D01*
X160785710Y-197178571D01*
X160571424Y-197178571D01*
X160428567Y-197107143D01*
X160357138Y-196964286D01*
X160357138Y-196892857D01*
X160428567Y-196750000D01*
X160571424Y-196678571D01*
X160785710Y-196678571D01*
X160928567Y-196750000D01*
X161428567Y-196678571D02*
X161999996Y-196678571D01*
X161642853Y-196178571D02*
X161642853Y-197464286D01*
X161714281Y-197607143D01*
X161857139Y-197678571D01*
X161999996Y-197678571D01*
X164285710Y-197678571D02*
X164285710Y-196892857D01*
X164214281Y-196750000D01*
X164071424Y-196678571D01*
X163785710Y-196678571D01*
X163642853Y-196750000D01*
X164285710Y-197607143D02*
X164142853Y-197678571D01*
X163785710Y-197678571D01*
X163642853Y-197607143D01*
X163571424Y-197464286D01*
X163571424Y-197321429D01*
X163642853Y-197178571D01*
X163785710Y-197107143D01*
X164142853Y-197107143D01*
X164285710Y-197035714D01*
X164999996Y-196678571D02*
X164999996Y-197678571D01*
X164999996Y-196821429D02*
X165071424Y-196750000D01*
X165214282Y-196678571D01*
X165428567Y-196678571D01*
X165571424Y-196750000D01*
X165642853Y-196892857D01*
X165642853Y-197678571D01*
X166999996Y-197678571D02*
X166999996Y-196178571D01*
X166999996Y-197607143D02*
X166857139Y-197678571D01*
X166571425Y-197678571D01*
X166428567Y-197607143D01*
X166357139Y-197535714D01*
X166285710Y-197392857D01*
X166285710Y-196964286D01*
X166357139Y-196821429D01*
X166428567Y-196750000D01*
X166571425Y-196678571D01*
X166857139Y-196678571D01*
X166999996Y-196750000D01*
X169714282Y-197535714D02*
X169642853Y-197607143D01*
X169428567Y-197678571D01*
X169285710Y-197678571D01*
X169071425Y-197607143D01*
X168928567Y-197464286D01*
X168857139Y-197321429D01*
X168785710Y-197035714D01*
X168785710Y-196821429D01*
X168857139Y-196535714D01*
X168928567Y-196392857D01*
X169071425Y-196250000D01*
X169285710Y-196178571D01*
X169428567Y-196178571D01*
X169642853Y-196250000D01*
X169714282Y-196321429D01*
X170571425Y-197678571D02*
X170428567Y-197607143D01*
X170357139Y-197464286D01*
X170357139Y-196178571D01*
X171785710Y-197678571D02*
X171785710Y-196892857D01*
X171714281Y-196750000D01*
X171571424Y-196678571D01*
X171285710Y-196678571D01*
X171142853Y-196750000D01*
X171785710Y-197607143D02*
X171642853Y-197678571D01*
X171285710Y-197678571D01*
X171142853Y-197607143D01*
X171071424Y-197464286D01*
X171071424Y-197321429D01*
X171142853Y-197178571D01*
X171285710Y-197107143D01*
X171642853Y-197107143D01*
X171785710Y-197035714D01*
X173142853Y-197607143D02*
X172999996Y-197678571D01*
X172714282Y-197678571D01*
X172571424Y-197607143D01*
X172499996Y-197535714D01*
X172428567Y-197392857D01*
X172428567Y-196964286D01*
X172499996Y-196821429D01*
X172571424Y-196750000D01*
X172714282Y-196678571D01*
X172999996Y-196678571D01*
X173142853Y-196750000D01*
X173785710Y-197678571D02*
X173785710Y-196178571D01*
X173928567Y-197107143D02*
X174357138Y-197678571D01*
X174357138Y-196678571D02*
X173785710Y-197250000D01*
X175071424Y-197607143D02*
X175071424Y-197678571D01*
X174999996Y-197821429D01*
X174928567Y-197892857D01*
X176642853Y-196678571D02*
X177214282Y-196678571D01*
X176857139Y-196178571D02*
X176857139Y-197464286D01*
X176928567Y-197607143D01*
X177071425Y-197678571D01*
X177214282Y-197678571D01*
X177714282Y-197678571D02*
X177714282Y-196178571D01*
X178357139Y-197678571D02*
X178357139Y-196892857D01*
X178285710Y-196750000D01*
X178142853Y-196678571D01*
X177928568Y-196678571D01*
X177785710Y-196750000D01*
X177714282Y-196821429D01*
X179642853Y-197607143D02*
X179499996Y-197678571D01*
X179214282Y-197678571D01*
X179071425Y-197607143D01*
X178999996Y-197464286D01*
X178999996Y-196892857D01*
X179071425Y-196750000D01*
X179214282Y-196678571D01*
X179499996Y-196678571D01*
X179642853Y-196750000D01*
X179714282Y-196892857D01*
X179714282Y-197035714D01*
X178999996Y-197178571D01*
X181428567Y-197250000D02*
X182142853Y-197250000D01*
X181285710Y-197678571D02*
X181785710Y-196178571D01*
X182285710Y-197678571D01*
X182999996Y-197678571D02*
X182857138Y-197607143D01*
X182785710Y-197464286D01*
X182785710Y-196178571D01*
X183571424Y-196678571D02*
X183571424Y-198178571D01*
X183571424Y-196750000D02*
X183714281Y-196678571D01*
X183999995Y-196678571D01*
X184142852Y-196750000D01*
X184214281Y-196821429D01*
X184285710Y-196964286D01*
X184285710Y-197392857D01*
X184214281Y-197535714D01*
X184142852Y-197607143D01*
X183999995Y-197678571D01*
X183714281Y-197678571D01*
X183571424Y-197607143D01*
X184928567Y-197678571D02*
X184928567Y-196178571D01*
X185571424Y-197678571D02*
X185571424Y-196892857D01*
X185499995Y-196750000D01*
X185357138Y-196678571D01*
X185142853Y-196678571D01*
X184999995Y-196750000D01*
X184928567Y-196821429D01*
X186928567Y-197678571D02*
X186928567Y-196892857D01*
X186857138Y-196750000D01*
X186714281Y-196678571D01*
X186428567Y-196678571D01*
X186285710Y-196750000D01*
X186928567Y-197607143D02*
X186785710Y-197678571D01*
X186428567Y-197678571D01*
X186285710Y-197607143D01*
X186214281Y-197464286D01*
X186214281Y-197321429D01*
X186285710Y-197178571D01*
X186428567Y-197107143D01*
X186785710Y-197107143D01*
X186928567Y-197035714D01*
X187571424Y-197607143D02*
X187785710Y-197678571D01*
X188142853Y-197678571D01*
X188285710Y-197607143D01*
X188357139Y-197535714D01*
X188428567Y-197392857D01*
X188428567Y-197250000D01*
X188357139Y-197107143D01*
X188285710Y-197035714D01*
X188142853Y-196964286D01*
X187857139Y-196892857D01*
X187714281Y-196821429D01*
X187642853Y-196750000D01*
X187571424Y-196607143D01*
X187571424Y-196464286D01*
X187642853Y-196321429D01*
X187714281Y-196250000D01*
X187857139Y-196178571D01*
X188214281Y-196178571D01*
X188428567Y-196250000D01*
X189071424Y-197678571D02*
X189071424Y-196678571D01*
X189071424Y-196821429D02*
X189142852Y-196750000D01*
X189285710Y-196678571D01*
X189499995Y-196678571D01*
X189642852Y-196750000D01*
X189714281Y-196892857D01*
X189714281Y-197678571D01*
X189714281Y-196892857D02*
X189785710Y-196750000D01*
X189928567Y-196678571D01*
X190142852Y-196678571D01*
X190285710Y-196750000D01*
X190357138Y-196892857D01*
X190357138Y-197678571D01*
X191714281Y-197678571D02*
X191714281Y-196892857D01*
X191642852Y-196750000D01*
X191499995Y-196678571D01*
X191214281Y-196678571D01*
X191071424Y-196750000D01*
X191714281Y-197607143D02*
X191571424Y-197678571D01*
X191214281Y-197678571D01*
X191071424Y-197607143D01*
X190999995Y-197464286D01*
X190999995Y-197321429D01*
X191071424Y-197178571D01*
X191214281Y-197107143D01*
X191571424Y-197107143D01*
X191714281Y-197035714D01*
X192428567Y-197678571D02*
X192428567Y-196678571D01*
X192428567Y-196964286D02*
X192499995Y-196821429D01*
X192571424Y-196750000D01*
X192714281Y-196678571D01*
X192857138Y-196678571D01*
X193142852Y-196678571D02*
X193714281Y-196678571D01*
X193357138Y-196178571D02*
X193357138Y-197464286D01*
X193428566Y-197607143D01*
X193571424Y-197678571D01*
X193714281Y-197678571D01*
X194285709Y-196178571D02*
X194142852Y-196464286D01*
X194857138Y-197607143D02*
X194999995Y-197678571D01*
X195285710Y-197678571D01*
X195428567Y-197607143D01*
X195499995Y-197464286D01*
X195499995Y-197392857D01*
X195428567Y-197250000D01*
X195285710Y-197178571D01*
X195071424Y-197178571D01*
X194928567Y-197107143D01*
X194857138Y-196964286D01*
X194857138Y-196892857D01*
X194928567Y-196750000D01*
X195071424Y-196678571D01*
X195285710Y-196678571D01*
X195428567Y-196750000D01*
X197785710Y-196892857D02*
X197999996Y-196964286D01*
X198071424Y-197035714D01*
X198142853Y-197178571D01*
X198142853Y-197392857D01*
X198071424Y-197535714D01*
X197999996Y-197607143D01*
X197857138Y-197678571D01*
X197285710Y-197678571D01*
X197285710Y-196178571D01*
X197785710Y-196178571D01*
X197928567Y-196250000D01*
X197999996Y-196321429D01*
X198071424Y-196464286D01*
X198071424Y-196607143D01*
X197999996Y-196750000D01*
X197928567Y-196821429D01*
X197785710Y-196892857D01*
X197285710Y-196892857D01*
X199428567Y-197678571D02*
X199428567Y-196892857D01*
X199357138Y-196750000D01*
X199214281Y-196678571D01*
X198928567Y-196678571D01*
X198785710Y-196750000D01*
X199428567Y-197607143D02*
X199285710Y-197678571D01*
X198928567Y-197678571D01*
X198785710Y-197607143D01*
X198714281Y-197464286D01*
X198714281Y-197321429D01*
X198785710Y-197178571D01*
X198928567Y-197107143D01*
X199285710Y-197107143D01*
X199428567Y-197035714D01*
X200785710Y-197607143D02*
X200642853Y-197678571D01*
X200357139Y-197678571D01*
X200214281Y-197607143D01*
X200142853Y-197535714D01*
X200071424Y-197392857D01*
X200071424Y-196964286D01*
X200142853Y-196821429D01*
X200214281Y-196750000D01*
X200357139Y-196678571D01*
X200642853Y-196678571D01*
X200785710Y-196750000D01*
X201428567Y-197678571D02*
X201428567Y-196178571D01*
X201571424Y-197107143D02*
X201999995Y-197678571D01*
X201999995Y-196678571D02*
X201428567Y-197250000D01*
X202642853Y-197535714D02*
X202714281Y-197607143D01*
X202642853Y-197678571D01*
X202571424Y-197607143D01*
X202642853Y-197535714D01*
X202642853Y-197678571D01*
X202642853Y-197107143D02*
X202571424Y-196250000D01*
X202642853Y-196178571D01*
X202714281Y-196250000D01*
X202642853Y-197107143D01*
X202642853Y-196178571D01*
X203357139Y-197535714D02*
X203428567Y-197607143D01*
X203357139Y-197678571D01*
X203285710Y-197607143D01*
X203357139Y-197535714D01*
X203357139Y-197678571D01*
X203357139Y-197107143D02*
X203285710Y-196250000D01*
X203357139Y-196178571D01*
X203428567Y-196250000D01*
X203357139Y-197107143D01*
X203357139Y-196178571D01*
X204071425Y-197535714D02*
X204142853Y-197607143D01*
X204071425Y-197678571D01*
X203999996Y-197607143D01*
X204071425Y-197535714D01*
X204071425Y-197678571D01*
X204071425Y-197107143D02*
X203999996Y-196250000D01*
X204071425Y-196178571D01*
X204142853Y-196250000D01*
X204071425Y-197107143D01*
X204071425Y-196178571D01*
D12*
X78630000Y-80630000D02*
X93870000Y-80630000D01*
X93870000Y-80630000D02*
X93870000Y-95870000D01*
X93870000Y-95870000D02*
X78630000Y-95870000D01*
X78630000Y-95870000D02*
X78630000Y-80630000D01*
X78630000Y-99630000D02*
X93870000Y-99630000D01*
X93870000Y-99630000D02*
X93870000Y-114870000D01*
X93870000Y-114870000D02*
X78630000Y-114870000D01*
X78630000Y-114870000D02*
X78630000Y-99630000D01*
X83380000Y-118630000D02*
X98620000Y-118630000D01*
X98620000Y-118630000D02*
X98620000Y-133870000D01*
X98620000Y-133870000D02*
X83380000Y-133870000D01*
X83380000Y-133870000D02*
X83380000Y-118630000D01*
X81005000Y-137630000D02*
X96245000Y-137630000D01*
X96245000Y-137630000D02*
X96245000Y-152870000D01*
X96245000Y-152870000D02*
X81005000Y-152870000D01*
X81005000Y-152870000D02*
X81005000Y-137630000D01*
X90505000Y-156630000D02*
X105745000Y-156630000D01*
X105745000Y-156630000D02*
X105745000Y-171870000D01*
X105745000Y-171870000D02*
X90505000Y-171870000D01*
X90505000Y-171870000D02*
X90505000Y-156630000D01*
X78630000Y-175630000D02*
X93870000Y-175630000D01*
X93870000Y-175630000D02*
X93870000Y-190870000D01*
X93870000Y-190870000D02*
X78630000Y-190870000D01*
X78630000Y-190870000D02*
X78630000Y-175630000D01*
X102380000Y-80630000D02*
X117620000Y-80630000D01*
X117620000Y-80630000D02*
X117620000Y-95870000D01*
X117620000Y-95870000D02*
X102380000Y-95870000D01*
X102380000Y-95870000D02*
X102380000Y-80630000D01*
X97630000Y-99630000D02*
X112870000Y-99630000D01*
X112870000Y-99630000D02*
X112870000Y-114870000D01*
X112870000Y-114870000D02*
X97630000Y-114870000D01*
X97630000Y-114870000D02*
X97630000Y-99630000D01*
X107130000Y-118630000D02*
X122370000Y-118630000D01*
X122370000Y-118630000D02*
X122370000Y-133870000D01*
X122370000Y-133870000D02*
X107130000Y-133870000D01*
X107130000Y-133870000D02*
X107130000Y-118630000D01*
X111880000Y-137630000D02*
X127120000Y-137630000D01*
X127120000Y-137630000D02*
X127120000Y-152870000D01*
X127120000Y-152870000D02*
X111880000Y-152870000D01*
X111880000Y-152870000D02*
X111880000Y-137630000D01*
X121380000Y-156630000D02*
X136620000Y-156630000D01*
X136620000Y-156630000D02*
X136620000Y-171870000D01*
X136620000Y-171870000D02*
X121380000Y-171870000D01*
X121380000Y-171870000D02*
X121380000Y-156630000D01*
X97630000Y-175630000D02*
X112870000Y-175630000D01*
X112870000Y-175630000D02*
X112870000Y-190870000D01*
X112870000Y-190870000D02*
X97630000Y-190870000D01*
X97630000Y-190870000D02*
X97630000Y-175630000D01*
X121380000Y-80630000D02*
X136620000Y-80630000D01*
X136620000Y-80630000D02*
X136620000Y-95870000D01*
X136620000Y-95870000D02*
X121380000Y-95870000D01*
X121380000Y-95870000D02*
X121380000Y-80630000D01*
X116630000Y-99630000D02*
X131870000Y-99630000D01*
X131870000Y-99630000D02*
X131870000Y-114870000D01*
X131870000Y-114870000D02*
X116630000Y-114870000D01*
X116630000Y-114870000D02*
X116630000Y-99630000D01*
X126130000Y-118630000D02*
X141370000Y-118630000D01*
X141370000Y-118630000D02*
X141370000Y-133870000D01*
X141370000Y-133870000D02*
X126130000Y-133870000D01*
X126130000Y-133870000D02*
X126130000Y-118630000D01*
X130880000Y-137630000D02*
X146120000Y-137630000D01*
X146120000Y-137630000D02*
X146120000Y-152870000D01*
X146120000Y-152870000D02*
X130880000Y-152870000D01*
X130880000Y-152870000D02*
X130880000Y-137630000D01*
X140380000Y-156630000D02*
X155620000Y-156630000D01*
X155620000Y-156630000D02*
X155620000Y-171870000D01*
X155620000Y-171870000D02*
X140380000Y-171870000D01*
X140380000Y-171870000D02*
X140380000Y-156630000D01*
X116630000Y-175630000D02*
X131870000Y-175630000D01*
X131870000Y-175630000D02*
X131870000Y-190870000D01*
X131870000Y-190870000D02*
X116630000Y-190870000D01*
X116630000Y-190870000D02*
X116630000Y-175630000D01*
X140380000Y-80630000D02*
X155620000Y-80630000D01*
X155620000Y-80630000D02*
X155620000Y-95870000D01*
X155620000Y-95870000D02*
X140380000Y-95870000D01*
X140380000Y-95870000D02*
X140380000Y-80630000D01*
X135630000Y-99630000D02*
X150870000Y-99630000D01*
X150870000Y-99630000D02*
X150870000Y-114870000D01*
X150870000Y-114870000D02*
X135630000Y-114870000D01*
X135630000Y-114870000D02*
X135630000Y-99630000D01*
X145130000Y-118630000D02*
X160370000Y-118630000D01*
X160370000Y-118630000D02*
X160370000Y-133870000D01*
X160370000Y-133870000D02*
X145130000Y-133870000D01*
X145130000Y-133870000D02*
X145130000Y-118630000D01*
X149880000Y-137630000D02*
X165120000Y-137630000D01*
X165120000Y-137630000D02*
X165120000Y-152870000D01*
X165120000Y-152870000D02*
X149880000Y-152870000D01*
X149880000Y-152870000D02*
X149880000Y-137630000D01*
X159380000Y-156630000D02*
X174620000Y-156630000D01*
X174620000Y-156630000D02*
X174620000Y-171870000D01*
X174620000Y-171870000D02*
X159380000Y-171870000D01*
X159380000Y-171870000D02*
X159380000Y-156630000D01*
X135630000Y-175630000D02*
X150870000Y-175630000D01*
X150870000Y-175630000D02*
X150870000Y-190870000D01*
X150870000Y-190870000D02*
X135630000Y-190870000D01*
X135630000Y-190870000D02*
X135630000Y-175630000D01*
X159380000Y-80630000D02*
X174620000Y-80630000D01*
X174620000Y-80630000D02*
X174620000Y-95870000D01*
X174620000Y-95870000D02*
X159380000Y-95870000D01*
X159380000Y-95870000D02*
X159380000Y-80630000D01*
X154630000Y-99630000D02*
X169870000Y-99630000D01*
X169870000Y-99630000D02*
X169870000Y-114870000D01*
X169870000Y-114870000D02*
X154630000Y-114870000D01*
X154630000Y-114870000D02*
X154630000Y-99630000D01*
X164130000Y-118630000D02*
X179370000Y-118630000D01*
X179370000Y-118630000D02*
X179370000Y-133870000D01*
X179370000Y-133870000D02*
X164130000Y-133870000D01*
X164130000Y-133870000D02*
X164130000Y-118630000D01*
X168880000Y-137630000D02*
X184120000Y-137630000D01*
X184120000Y-137630000D02*
X184120000Y-152870000D01*
X184120000Y-152870000D02*
X168880000Y-152870000D01*
X168880000Y-152870000D02*
X168880000Y-137630000D01*
X178380000Y-156630000D02*
X193620000Y-156630000D01*
X193620000Y-156630000D02*
X193620000Y-171870000D01*
X193620000Y-171870000D02*
X178380000Y-171870000D01*
X178380000Y-171870000D02*
X178380000Y-156630000D01*
X154630000Y-175630000D02*
X169870000Y-175630000D01*
X169870000Y-175630000D02*
X169870000Y-190870000D01*
X169870000Y-190870000D02*
X154630000Y-190870000D01*
X154630000Y-190870000D02*
X154630000Y-175630000D01*
X178380000Y-80630000D02*
X193620000Y-80630000D01*
X193620000Y-80630000D02*
X193620000Y-95870000D01*
X193620000Y-95870000D02*
X178380000Y-95870000D01*
X178380000Y-95870000D02*
X178380000Y-80630000D01*
X173630000Y-99630000D02*
X188870000Y-99630000D01*
X188870000Y-99630000D02*
X188870000Y-114870000D01*
X188870000Y-114870000D02*
X173630000Y-114870000D01*
X173630000Y-114870000D02*
X173630000Y-99630000D01*
X183130000Y-118630000D02*
X198370000Y-118630000D01*
X198370000Y-118630000D02*
X198370000Y-133870000D01*
X198370000Y-133870000D02*
X183130000Y-133870000D01*
X183130000Y-133870000D02*
X183130000Y-118630000D01*
X187880000Y-137630000D02*
X203120000Y-137630000D01*
X203120000Y-137630000D02*
X203120000Y-152870000D01*
X203120000Y-152870000D02*
X187880000Y-152870000D01*
X187880000Y-152870000D02*
X187880000Y-137630000D01*
X197380000Y-156630000D02*
X212620000Y-156630000D01*
X212620000Y-156630000D02*
X212620000Y-171870000D01*
X212620000Y-171870000D02*
X197380000Y-171870000D01*
X197380000Y-171870000D02*
X197380000Y-156630000D01*
X173630000Y-175630000D02*
X188870000Y-175630000D01*
X188870000Y-175630000D02*
X188870000Y-190870000D01*
X188870000Y-190870000D02*
X173630000Y-190870000D01*
X173630000Y-190870000D02*
X173630000Y-175630000D01*
X197380000Y-80630000D02*
X212620000Y-80630000D01*
X212620000Y-80630000D02*
X212620000Y-95870000D01*
X212620000Y-95870000D02*
X197380000Y-95870000D01*
X197380000Y-95870000D02*
X197380000Y-80630000D01*
X192630000Y-99630000D02*
X207870000Y-99630000D01*
X207870000Y-99630000D02*
X207870000Y-114870000D01*
X207870000Y-114870000D02*
X192630000Y-114870000D01*
X192630000Y-114870000D02*
X192630000Y-99630000D01*
X202130000Y-118630000D02*
X217370000Y-118630000D01*
X217370000Y-118630000D02*
X217370000Y-133870000D01*
X217370000Y-133870000D02*
X202130000Y-133870000D01*
X202130000Y-133870000D02*
X202130000Y-118630000D01*
X206880000Y-137630000D02*
X222120000Y-137630000D01*
X222120000Y-137630000D02*
X222120000Y-152870000D01*
X222120000Y-152870000D02*
X206880000Y-152870000D01*
X206880000Y-152870000D02*
X206880000Y-137630000D01*
X216380000Y-156630000D02*
X231620000Y-156630000D01*
X231620000Y-156630000D02*
X231620000Y-171870000D01*
X231620000Y-171870000D02*
X216380000Y-171870000D01*
X216380000Y-171870000D02*
X216380000Y-156630000D01*
X202130000Y-175630000D02*
X217370000Y-175630000D01*
X217370000Y-175630000D02*
X217370000Y-190870000D01*
X217370000Y-190870000D02*
X202130000Y-190870000D01*
X202130000Y-190870000D02*
X202130000Y-175630000D01*
X216380000Y-80630000D02*
X231620000Y-80630000D01*
X231620000Y-80630000D02*
X231620000Y-95870000D01*
X231620000Y-95870000D02*
X216380000Y-95870000D01*
X216380000Y-95870000D02*
X216380000Y-80630000D01*
X211630000Y-99630000D02*
X226870000Y-99630000D01*
X226870000Y-99630000D02*
X226870000Y-114870000D01*
X226870000Y-114870000D02*
X211630000Y-114870000D01*
X211630000Y-114870000D02*
X211630000Y-99630000D01*
X221130000Y-118630000D02*
X236370000Y-118630000D01*
X236370000Y-118630000D02*
X236370000Y-133870000D01*
X236370000Y-133870000D02*
X221130000Y-133870000D01*
X221130000Y-133870000D02*
X221130000Y-118630000D01*
X225880000Y-137630000D02*
X241120000Y-137630000D01*
X241120000Y-137630000D02*
X241120000Y-152870000D01*
X241120000Y-152870000D02*
X225880000Y-152870000D01*
X225880000Y-152870000D02*
X225880000Y-137630000D01*
X235380000Y-156630000D02*
X250620000Y-156630000D01*
X250620000Y-156630000D02*
X250620000Y-171870000D01*
X250620000Y-171870000D02*
X235380000Y-171870000D01*
X235380000Y-171870000D02*
X235380000Y-156630000D01*
X233005000Y-175630000D02*
X248245000Y-175630000D01*
X248245000Y-175630000D02*
X248245000Y-190870000D01*
X248245000Y-190870000D02*
X233005000Y-190870000D01*
X233005000Y-190870000D02*
X233005000Y-175630000D01*
X235380000Y-80630000D02*
X250620000Y-80630000D01*
X250620000Y-80630000D02*
X250620000Y-95870000D01*
X250620000Y-95870000D02*
X235380000Y-95870000D01*
X235380000Y-95870000D02*
X235380000Y-80630000D01*
X230630000Y-99630000D02*
X245870000Y-99630000D01*
X245870000Y-99630000D02*
X245870000Y-114870000D01*
X245870000Y-114870000D02*
X230630000Y-114870000D01*
X230630000Y-114870000D02*
X230630000Y-99630000D01*
X240130000Y-118630000D02*
X255370000Y-118630000D01*
X255370000Y-118630000D02*
X255370000Y-133870000D01*
X255370000Y-133870000D02*
X240130000Y-133870000D01*
X240130000Y-133870000D02*
X240130000Y-118630000D01*
X244880000Y-137630000D02*
X260120000Y-137630000D01*
X260120000Y-137630000D02*
X260120000Y-152870000D01*
X260120000Y-152870000D02*
X244880000Y-152870000D01*
X244880000Y-152870000D02*
X244880000Y-137630000D01*
X254380000Y-156630000D02*
X269620000Y-156630000D01*
X269620000Y-156630000D02*
X269620000Y-171870000D01*
X269620000Y-171870000D02*
X254380000Y-171870000D01*
X254380000Y-171870000D02*
X254380000Y-156630000D01*
X256755000Y-175630000D02*
X271995000Y-175630000D01*
X271995000Y-175630000D02*
X271995000Y-190870000D01*
X271995000Y-190870000D02*
X256755000Y-190870000D01*
X256755000Y-190870000D02*
X256755000Y-175630000D01*
X254380000Y-80630000D02*
X269620000Y-80630000D01*
X269620000Y-80630000D02*
X269620000Y-95870000D01*
X269620000Y-95870000D02*
X254380000Y-95870000D01*
X254380000Y-95870000D02*
X254380000Y-80630000D01*
X249630000Y-99630000D02*
X264870000Y-99630000D01*
X264870000Y-99630000D02*
X264870000Y-114870000D01*
X264870000Y-114870000D02*
X249630000Y-114870000D01*
X249630000Y-114870000D02*
X249630000Y-99630000D01*
X259130000Y-118630000D02*
X274370000Y-118630000D01*
X274370000Y-118630000D02*
X274370000Y-133870000D01*
X274370000Y-133870000D02*
X259130000Y-133870000D01*
X259130000Y-133870000D02*
X259130000Y-118630000D01*
X263880000Y-137630000D02*
X279120000Y-137630000D01*
X279120000Y-137630000D02*
X279120000Y-152870000D01*
X279120000Y-152870000D02*
X263880000Y-152870000D01*
X263880000Y-152870000D02*
X263880000Y-137630000D01*
X273380000Y-156630000D02*
X288620000Y-156630000D01*
X288620000Y-156630000D02*
X288620000Y-171870000D01*
X288620000Y-171870000D02*
X273380000Y-171870000D01*
X273380000Y-171870000D02*
X273380000Y-156630000D01*
X278130000Y-175630000D02*
X293370000Y-175630000D01*
X293370000Y-175630000D02*
X293370000Y-190870000D01*
X293370000Y-190870000D02*
X278130000Y-190870000D01*
X278130000Y-190870000D02*
X278130000Y-175630000D01*
X273380000Y-80630000D02*
X288620000Y-80630000D01*
X288620000Y-80630000D02*
X288620000Y-95870000D01*
X288620000Y-95870000D02*
X273380000Y-95870000D01*
X273380000Y-95870000D02*
X273380000Y-80630000D01*
X268630000Y-99630000D02*
X283870000Y-99630000D01*
X283870000Y-99630000D02*
X283870000Y-114870000D01*
X283870000Y-114870000D02*
X268630000Y-114870000D01*
X268630000Y-114870000D02*
X268630000Y-99630000D01*
X278130000Y-118630000D02*
X293370000Y-118630000D01*
X293370000Y-118630000D02*
X293370000Y-133870000D01*
X293370000Y-133870000D02*
X278130000Y-133870000D01*
X278130000Y-133870000D02*
X278130000Y-118630000D01*
X282880000Y-137630000D02*
X298120000Y-137630000D01*
X298120000Y-137630000D02*
X298120000Y-152870000D01*
X298120000Y-152870000D02*
X282880000Y-152870000D01*
X282880000Y-152870000D02*
X282880000Y-137630000D01*
X292380000Y-156630000D02*
X307620000Y-156630000D01*
X307620000Y-156630000D02*
X307620000Y-171870000D01*
X307620000Y-171870000D02*
X292380000Y-171870000D01*
X292380000Y-171870000D02*
X292380000Y-156630000D01*
X316130000Y-175630000D02*
X331370000Y-175630000D01*
X331370000Y-175630000D02*
X331370000Y-190870000D01*
X331370000Y-190870000D02*
X316130000Y-190870000D01*
X316130000Y-190870000D02*
X316130000Y-175630000D01*
X292380000Y-80630000D02*
X307620000Y-80630000D01*
X307620000Y-80630000D02*
X307620000Y-95870000D01*
X307620000Y-95870000D02*
X292380000Y-95870000D01*
X292380000Y-95870000D02*
X292380000Y-80630000D01*
X287630000Y-99630000D02*
X302870000Y-99630000D01*
X302870000Y-99630000D02*
X302870000Y-114870000D01*
X302870000Y-114870000D02*
X287630000Y-114870000D01*
X287630000Y-114870000D02*
X287630000Y-99630000D01*
X297130000Y-118630000D02*
X312370000Y-118630000D01*
X312370000Y-118630000D02*
X312370000Y-133870000D01*
X312370000Y-133870000D02*
X297130000Y-133870000D01*
X297130000Y-133870000D02*
X297130000Y-118630000D01*
X301880000Y-137630000D02*
X317120000Y-137630000D01*
X317120000Y-137630000D02*
X317120000Y-152870000D01*
X317120000Y-152870000D02*
X301880000Y-152870000D01*
X301880000Y-152870000D02*
X301880000Y-137630000D01*
X323255000Y-156630000D02*
X338495000Y-156630000D01*
X338495000Y-156630000D02*
X338495000Y-171870000D01*
X338495000Y-171870000D02*
X323255000Y-171870000D01*
X323255000Y-171870000D02*
X323255000Y-156630000D01*
X297130000Y-175630000D02*
X312370000Y-175630000D01*
X312370000Y-175630000D02*
X312370000Y-190870000D01*
X312370000Y-190870000D02*
X297130000Y-190870000D01*
X297130000Y-190870000D02*
X297130000Y-175630000D01*
X311380000Y-80630000D02*
X326620000Y-80630000D01*
X326620000Y-80630000D02*
X326620000Y-95870000D01*
X326620000Y-95870000D02*
X311380000Y-95870000D01*
X311380000Y-95870000D02*
X311380000Y-80630000D01*
X306630000Y-99630000D02*
X321870000Y-99630000D01*
X321870000Y-99630000D02*
X321870000Y-114870000D01*
X321870000Y-114870000D02*
X306630000Y-114870000D01*
X306630000Y-114870000D02*
X306630000Y-99630000D01*
X316130000Y-118630000D02*
X331370000Y-118630000D01*
X331370000Y-118630000D02*
X331370000Y-133870000D01*
X331370000Y-133870000D02*
X316130000Y-133870000D01*
X316130000Y-133870000D02*
X316130000Y-118630000D01*
X328005000Y-137630000D02*
X343245000Y-137630000D01*
X343245000Y-137630000D02*
X343245000Y-152870000D01*
X343245000Y-152870000D02*
X328005000Y-152870000D01*
X328005000Y-152870000D02*
X328005000Y-137630000D01*
X335130000Y-175630000D02*
X350370000Y-175630000D01*
X350370000Y-175630000D02*
X350370000Y-190870000D01*
X350370000Y-190870000D02*
X335130000Y-190870000D01*
X335130000Y-190870000D02*
X335130000Y-175630000D01*
X332755000Y-80630000D02*
X347995000Y-80630000D01*
X347995000Y-80630000D02*
X347995000Y-95870000D01*
X347995000Y-95870000D02*
X332755000Y-95870000D01*
X332755000Y-95870000D02*
X332755000Y-80630000D01*
X330380000Y-99630000D02*
X345620000Y-99630000D01*
X345620000Y-99630000D02*
X345620000Y-114870000D01*
X345620000Y-114870000D02*
X330380000Y-114870000D01*
X330380000Y-114870000D02*
X330380000Y-99630000D01*
X335130000Y-118630000D02*
X350370000Y-118630000D01*
X350370000Y-118630000D02*
X350370000Y-133870000D01*
X350370000Y-133870000D02*
X335130000Y-133870000D01*
X335130000Y-133870000D02*
X335130000Y-118630000D01*
D13*
X100930000Y-81850000D02*
X99660000Y-81850000D01*
X100930000Y-81850000D02*
X100930000Y-84390000D01*
X100730000Y-82050000D02*
X100730000Y-92070000D01*
X100730000Y-92070000D02*
X95770000Y-92070000D01*
X95770000Y-92070000D02*
X95770000Y-82050000D01*
X95770000Y-82050000D02*
X100730000Y-82050000D01*
X98885000Y-85030000D02*
X97615000Y-85030000D01*
X97615000Y-85030000D02*
X97615000Y-89090000D01*
X97615000Y-89090000D02*
X98885000Y-89090000D01*
X98885000Y-89090000D02*
X98885000Y-85030000D01*
X98885000Y-87060000D02*
X97615000Y-87060000D01*
D14*
X82258572Y-79160429D02*
X82548858Y-79160429D01*
X82694000Y-79233000D01*
X82839143Y-79378143D01*
X82911715Y-79668429D01*
X82911715Y-80176429D01*
X82839143Y-80466714D01*
X82694000Y-80611857D01*
X82548858Y-80684429D01*
X82258572Y-80684429D01*
X82113429Y-80611857D01*
X81968286Y-80466714D01*
X81895715Y-80176429D01*
X81895715Y-79668429D01*
X81968286Y-79378143D01*
X82113429Y-79233000D01*
X82258572Y-79160429D01*
X83564857Y-80684429D02*
X83564857Y-79160429D01*
X84435714Y-80684429D01*
X84435714Y-79160429D01*
X85161428Y-80103857D02*
X86322571Y-80103857D01*
X87338571Y-79160429D02*
X87628857Y-79160429D01*
X87773999Y-79233000D01*
X87919142Y-79378143D01*
X87991714Y-79668429D01*
X87991714Y-80176429D01*
X87919142Y-80466714D01*
X87773999Y-80611857D01*
X87628857Y-80684429D01*
X87338571Y-80684429D01*
X87193428Y-80611857D01*
X87048285Y-80466714D01*
X86975714Y-80176429D01*
X86975714Y-79668429D01*
X87048285Y-79378143D01*
X87193428Y-79233000D01*
X87338571Y-79160429D01*
X89152856Y-79886143D02*
X88644856Y-79886143D01*
X88644856Y-80684429D02*
X88644856Y-79160429D01*
X89370570Y-79160429D01*
X90459142Y-79886143D02*
X89951142Y-79886143D01*
X89951142Y-80684429D02*
X89951142Y-79160429D01*
X90676856Y-79160429D01*
X83129429Y-98886143D02*
X83347143Y-98958714D01*
X83419715Y-99031286D01*
X83492286Y-99176429D01*
X83492286Y-99394143D01*
X83419715Y-99539286D01*
X83347143Y-99611857D01*
X83202001Y-99684429D01*
X82621429Y-99684429D01*
X82621429Y-98160429D01*
X83129429Y-98160429D01*
X83274572Y-98233000D01*
X83347143Y-98305571D01*
X83419715Y-98450714D01*
X83419715Y-98595857D01*
X83347143Y-98741000D01*
X83274572Y-98813571D01*
X83129429Y-98886143D01*
X82621429Y-98886143D01*
X84145429Y-99684429D02*
X84145429Y-98160429D01*
X85016286Y-99684429D02*
X84363143Y-98813571D01*
X85016286Y-98160429D02*
X84145429Y-99031286D01*
X85451715Y-98160429D02*
X86322572Y-98160429D01*
X85887143Y-99684429D02*
X85887143Y-98160429D01*
X86830572Y-99684429D02*
X86830572Y-98160429D01*
X88427143Y-99539286D02*
X88354572Y-99611857D01*
X88136858Y-99684429D01*
X87991715Y-99684429D01*
X87774000Y-99611857D01*
X87628858Y-99466714D01*
X87556286Y-99321571D01*
X87483715Y-99031286D01*
X87483715Y-98813571D01*
X87556286Y-98523286D01*
X87628858Y-98378143D01*
X87774000Y-98233000D01*
X87991715Y-98160429D01*
X88136858Y-98160429D01*
X88354572Y-98233000D01*
X88427143Y-98305571D01*
X89080286Y-99684429D02*
X89080286Y-98160429D01*
X89951143Y-99684429D02*
X89298000Y-98813571D01*
X89951143Y-98160429D02*
X89080286Y-99031286D01*
X89149429Y-117160429D02*
X90020286Y-117160429D01*
X89584857Y-118684429D02*
X89584857Y-117160429D01*
X90455715Y-118249000D02*
X91181429Y-118249000D01*
X90310572Y-118684429D02*
X90818572Y-117160429D01*
X91326572Y-118684429D01*
X92342572Y-117886143D02*
X92560286Y-117958714D01*
X92632858Y-118031286D01*
X92705429Y-118176429D01*
X92705429Y-118394143D01*
X92632858Y-118539286D01*
X92560286Y-118611857D01*
X92415144Y-118684429D01*
X91834572Y-118684429D01*
X91834572Y-117160429D01*
X92342572Y-117160429D01*
X92487715Y-117233000D01*
X92560286Y-117305571D01*
X92632858Y-117450714D01*
X92632858Y-117595857D01*
X92560286Y-117741000D01*
X92487715Y-117813571D01*
X92342572Y-117886143D01*
X91834572Y-117886143D01*
X84996428Y-137539286D02*
X84923857Y-137611857D01*
X84706143Y-137684429D01*
X84561000Y-137684429D01*
X84343285Y-137611857D01*
X84198143Y-137466714D01*
X84125571Y-137321571D01*
X84053000Y-137031286D01*
X84053000Y-136813571D01*
X84125571Y-136523286D01*
X84198143Y-136378143D01*
X84343285Y-136233000D01*
X84561000Y-136160429D01*
X84706143Y-136160429D01*
X84923857Y-136233000D01*
X84996428Y-136305571D01*
X85577000Y-137249000D02*
X86302714Y-137249000D01*
X85431857Y-137684429D02*
X85939857Y-136160429D01*
X86447857Y-137684429D01*
X86955857Y-137684429D02*
X86955857Y-136160429D01*
X87536429Y-136160429D01*
X87681571Y-136233000D01*
X87754143Y-136305571D01*
X87826714Y-136450714D01*
X87826714Y-136668429D01*
X87754143Y-136813571D01*
X87681571Y-136886143D01*
X87536429Y-136958714D01*
X86955857Y-136958714D01*
X88407286Y-137611857D02*
X88625000Y-137684429D01*
X88987857Y-137684429D01*
X89133000Y-137611857D01*
X89205571Y-137539286D01*
X89278143Y-137394143D01*
X89278143Y-137249000D01*
X89205571Y-137103857D01*
X89133000Y-137031286D01*
X88987857Y-136958714D01*
X88697571Y-136886143D01*
X88552429Y-136813571D01*
X88479857Y-136741000D01*
X88407286Y-136595857D01*
X88407286Y-136450714D01*
X88479857Y-136305571D01*
X88552429Y-136233000D01*
X88697571Y-136160429D01*
X89060429Y-136160429D01*
X89278143Y-136233000D01*
X89568429Y-137829571D02*
X90729572Y-137829571D01*
X91818143Y-137684429D02*
X91092429Y-137684429D01*
X91092429Y-136160429D01*
X92326143Y-137684429D02*
X92326143Y-136160429D01*
X93197000Y-137684429D02*
X92543857Y-136813571D01*
X93197000Y-136160429D02*
X92326143Y-137031286D01*
X95476143Y-156684429D02*
X94750429Y-156684429D01*
X94750429Y-155160429D01*
X95911572Y-156611857D02*
X96129286Y-156684429D01*
X96492143Y-156684429D01*
X96637286Y-156611857D01*
X96709857Y-156539286D01*
X96782429Y-156394143D01*
X96782429Y-156249000D01*
X96709857Y-156103857D01*
X96637286Y-156031286D01*
X96492143Y-155958714D01*
X96201857Y-155886143D01*
X96056715Y-155813571D01*
X95984143Y-155741000D01*
X95911572Y-155595857D01*
X95911572Y-155450714D01*
X95984143Y-155305571D01*
X96056715Y-155233000D01*
X96201857Y-155160429D01*
X96564715Y-155160429D01*
X96782429Y-155233000D01*
X97435572Y-156684429D02*
X97435572Y-155160429D01*
X97435572Y-155886143D02*
X98306429Y-155886143D01*
X98306429Y-156684429D02*
X98306429Y-155160429D01*
X99032143Y-156684429D02*
X99032143Y-155160429D01*
X100265857Y-155886143D02*
X99757857Y-155886143D01*
X99757857Y-156684429D02*
X99757857Y-155160429D01*
X100483571Y-155160429D01*
X100846429Y-155160429D02*
X101717286Y-155160429D01*
X101281857Y-156684429D02*
X101281857Y-155160429D01*
X84762286Y-175539286D02*
X84689715Y-175611857D01*
X84472001Y-175684429D01*
X84326858Y-175684429D01*
X84109143Y-175611857D01*
X83964001Y-175466714D01*
X83891429Y-175321571D01*
X83818858Y-175031286D01*
X83818858Y-174813571D01*
X83891429Y-174523286D01*
X83964001Y-174378143D01*
X84109143Y-174233000D01*
X84326858Y-174160429D01*
X84472001Y-174160429D01*
X84689715Y-174233000D01*
X84762286Y-174305571D01*
X85197715Y-174160429D02*
X86068572Y-174160429D01*
X85633143Y-175684429D02*
X85633143Y-174160429D01*
X87447429Y-175684429D02*
X86939429Y-174958714D01*
X86576572Y-175684429D02*
X86576572Y-174160429D01*
X87157144Y-174160429D01*
X87302286Y-174233000D01*
X87374858Y-174305571D01*
X87447429Y-174450714D01*
X87447429Y-174668429D01*
X87374858Y-174813571D01*
X87302286Y-174886143D01*
X87157144Y-174958714D01*
X86576572Y-174958714D01*
X88826286Y-175684429D02*
X88100572Y-175684429D01*
X88100572Y-174160429D01*
X107822857Y-79886143D02*
X107314857Y-79886143D01*
X107314857Y-80684429D02*
X107314857Y-79160429D01*
X108040571Y-79160429D01*
X108621143Y-80684429D02*
X108621143Y-79160429D01*
X110072571Y-80684429D02*
X109346857Y-80684429D01*
X109346857Y-79160429D01*
X110580571Y-79886143D02*
X111088571Y-79886143D01*
X111306285Y-80684429D02*
X110580571Y-80684429D01*
X110580571Y-79160429D01*
X111306285Y-79160429D01*
X112757714Y-80684429D02*
X111886857Y-80684429D01*
X112322285Y-80684429D02*
X112322285Y-79160429D01*
X112177142Y-79378143D01*
X112032000Y-79523286D01*
X111886857Y-79595857D01*
X105685429Y-99684429D02*
X104814572Y-99684429D01*
X105250000Y-99684429D02*
X105250000Y-98160429D01*
X105104857Y-98378143D01*
X104959715Y-98523286D01*
X104814572Y-98595857D01*
X115330572Y-118829571D02*
X115185429Y-118757000D01*
X115040286Y-118611857D01*
X114822572Y-118394143D01*
X114677429Y-118321571D01*
X114532286Y-118321571D01*
X114604858Y-118684429D02*
X114459715Y-118611857D01*
X114314572Y-118466714D01*
X114242001Y-118176429D01*
X114242001Y-117668429D01*
X114314572Y-117378143D01*
X114459715Y-117233000D01*
X114604858Y-117160429D01*
X114895144Y-117160429D01*
X115040286Y-117233000D01*
X115185429Y-117378143D01*
X115258001Y-117668429D01*
X115258001Y-118176429D01*
X115185429Y-118466714D01*
X115040286Y-118611857D01*
X114895144Y-118684429D01*
X114604858Y-118684429D01*
X119137143Y-137249000D02*
X119862857Y-137249000D01*
X118992000Y-137684429D02*
X119500000Y-136160429D01*
X120008000Y-137684429D01*
X128492000Y-155160429D02*
X129508000Y-155160429D01*
X128492000Y-156684429D01*
X129508000Y-156684429D01*
X101621429Y-175684429D02*
X100895715Y-175684429D01*
X100895715Y-174160429D01*
X102419715Y-174160429D02*
X102710001Y-174160429D01*
X102855143Y-174233000D01*
X103000286Y-174378143D01*
X103072858Y-174668429D01*
X103072858Y-175176429D01*
X103000286Y-175466714D01*
X102855143Y-175611857D01*
X102710001Y-175684429D01*
X102419715Y-175684429D01*
X102274572Y-175611857D01*
X102129429Y-175466714D01*
X102056858Y-175176429D01*
X102056858Y-174668429D01*
X102129429Y-174378143D01*
X102274572Y-174233000D01*
X102419715Y-174160429D01*
X103726000Y-175684429D02*
X103726000Y-174160429D01*
X104306572Y-174160429D01*
X104451714Y-174233000D01*
X104524286Y-174305571D01*
X104596857Y-174450714D01*
X104596857Y-174668429D01*
X104524286Y-174813571D01*
X104451714Y-174886143D01*
X104306572Y-174958714D01*
X103726000Y-174958714D01*
X105032286Y-174160429D02*
X105903143Y-174160429D01*
X105467714Y-175684429D02*
X105467714Y-174160429D01*
X106411143Y-175684429D02*
X106411143Y-174160429D01*
X107427143Y-174160429D02*
X107717429Y-174160429D01*
X107862571Y-174233000D01*
X108007714Y-174378143D01*
X108080286Y-174668429D01*
X108080286Y-175176429D01*
X108007714Y-175466714D01*
X107862571Y-175611857D01*
X107717429Y-175684429D01*
X107427143Y-175684429D01*
X107282000Y-175611857D01*
X107136857Y-175466714D01*
X107064286Y-175176429D01*
X107064286Y-174668429D01*
X107136857Y-174378143D01*
X107282000Y-174233000D01*
X107427143Y-174160429D01*
X108733428Y-175684429D02*
X108733428Y-174160429D01*
X109604285Y-175684429D01*
X109604285Y-174160429D01*
X126822857Y-79886143D02*
X126314857Y-79886143D01*
X126314857Y-80684429D02*
X126314857Y-79160429D01*
X127040571Y-79160429D01*
X127621143Y-80684429D02*
X127621143Y-79160429D01*
X129072571Y-80684429D02*
X128346857Y-80684429D01*
X128346857Y-79160429D01*
X129580571Y-79886143D02*
X130088571Y-79886143D01*
X130306285Y-80684429D02*
X129580571Y-80684429D01*
X129580571Y-79160429D01*
X130306285Y-79160429D01*
X130886857Y-79305571D02*
X130959428Y-79233000D01*
X131104571Y-79160429D01*
X131467428Y-79160429D01*
X131612571Y-79233000D01*
X131685142Y-79305571D01*
X131757714Y-79450714D01*
X131757714Y-79595857D01*
X131685142Y-79813571D01*
X130814285Y-80684429D01*
X131757714Y-80684429D01*
X123814572Y-98305571D02*
X123887143Y-98233000D01*
X124032286Y-98160429D01*
X124395143Y-98160429D01*
X124540286Y-98233000D01*
X124612857Y-98305571D01*
X124685429Y-98450714D01*
X124685429Y-98595857D01*
X124612857Y-98813571D01*
X123742000Y-99684429D01*
X124685429Y-99684429D01*
X133096857Y-117160429D02*
X133459714Y-118684429D01*
X133750000Y-117595857D01*
X134040286Y-118684429D01*
X134403143Y-117160429D01*
X138064572Y-137611857D02*
X138282286Y-137684429D01*
X138645143Y-137684429D01*
X138790286Y-137611857D01*
X138862857Y-137539286D01*
X138935429Y-137394143D01*
X138935429Y-137249000D01*
X138862857Y-137103857D01*
X138790286Y-137031286D01*
X138645143Y-136958714D01*
X138354857Y-136886143D01*
X138209715Y-136813571D01*
X138137143Y-136741000D01*
X138064572Y-136595857D01*
X138064572Y-136450714D01*
X138137143Y-136305571D01*
X138209715Y-136233000D01*
X138354857Y-136160429D01*
X138717715Y-136160429D01*
X138935429Y-136233000D01*
X147492000Y-155160429D02*
X148508000Y-156684429D01*
X148508000Y-155160429D02*
X147492000Y-156684429D01*
X123088857Y-175539286D02*
X123016286Y-175611857D01*
X122798572Y-175684429D01*
X122653429Y-175684429D01*
X122435714Y-175611857D01*
X122290572Y-175466714D01*
X122218000Y-175321571D01*
X122145429Y-175031286D01*
X122145429Y-174813571D01*
X122218000Y-174523286D01*
X122290572Y-174378143D01*
X122435714Y-174233000D01*
X122653429Y-174160429D01*
X122798572Y-174160429D01*
X123016286Y-174233000D01*
X123088857Y-174305571D01*
X123742000Y-175684429D02*
X123742000Y-174160429D01*
X124250000Y-175249000D01*
X124758000Y-174160429D01*
X124758000Y-175684429D01*
X125483714Y-175684429D02*
X125483714Y-174160429D01*
X125846571Y-174160429D01*
X126064286Y-174233000D01*
X126209428Y-174378143D01*
X126282000Y-174523286D01*
X126354571Y-174813571D01*
X126354571Y-175031286D01*
X126282000Y-175321571D01*
X126209428Y-175466714D01*
X126064286Y-175611857D01*
X125846571Y-175684429D01*
X125483714Y-175684429D01*
X145822857Y-79886143D02*
X145314857Y-79886143D01*
X145314857Y-80684429D02*
X145314857Y-79160429D01*
X146040571Y-79160429D01*
X146621143Y-80684429D02*
X146621143Y-79160429D01*
X148072571Y-80684429D02*
X147346857Y-80684429D01*
X147346857Y-79160429D01*
X148580571Y-79886143D02*
X149088571Y-79886143D01*
X149306285Y-80684429D02*
X148580571Y-80684429D01*
X148580571Y-79160429D01*
X149306285Y-79160429D01*
X149814285Y-79160429D02*
X150757714Y-79160429D01*
X150249714Y-79741000D01*
X150467428Y-79741000D01*
X150612571Y-79813571D01*
X150685142Y-79886143D01*
X150757714Y-80031286D01*
X150757714Y-80394143D01*
X150685142Y-80539286D01*
X150612571Y-80611857D01*
X150467428Y-80684429D01*
X150032000Y-80684429D01*
X149886857Y-80611857D01*
X149814285Y-80539286D01*
X142742000Y-98160429D02*
X143685429Y-98160429D01*
X143177429Y-98741000D01*
X143395143Y-98741000D01*
X143540286Y-98813571D01*
X143612857Y-98886143D01*
X143685429Y-99031286D01*
X143685429Y-99394143D01*
X143612857Y-99539286D01*
X143540286Y-99611857D01*
X143395143Y-99684429D01*
X142959715Y-99684429D01*
X142814572Y-99611857D01*
X142742000Y-99539286D01*
X152423429Y-117886143D02*
X152931429Y-117886143D01*
X153149143Y-118684429D02*
X152423429Y-118684429D01*
X152423429Y-117160429D01*
X153149143Y-117160429D01*
X157100857Y-137684429D02*
X157100857Y-136160429D01*
X157463714Y-136160429D01*
X157681429Y-136233000D01*
X157826571Y-136378143D01*
X157899143Y-136523286D01*
X157971714Y-136813571D01*
X157971714Y-137031286D01*
X157899143Y-137321571D01*
X157826571Y-137466714D01*
X157681429Y-137611857D01*
X157463714Y-137684429D01*
X157100857Y-137684429D01*
X167471714Y-156539286D02*
X167399143Y-156611857D01*
X167181429Y-156684429D01*
X167036286Y-156684429D01*
X166818571Y-156611857D01*
X166673429Y-156466714D01*
X166600857Y-156321571D01*
X166528286Y-156031286D01*
X166528286Y-155813571D01*
X166600857Y-155523286D01*
X166673429Y-155378143D01*
X166818571Y-155233000D01*
X167036286Y-155160429D01*
X167181429Y-155160429D01*
X167399143Y-155233000D01*
X167471714Y-155305571D01*
X141544572Y-174886143D02*
X141036572Y-174886143D01*
X141036572Y-175684429D02*
X141036572Y-174160429D01*
X141762286Y-174160429D01*
X142342858Y-175684429D02*
X142342858Y-174160429D01*
X143068572Y-175684429D02*
X143068572Y-174160429D01*
X143939429Y-175684429D01*
X143939429Y-174160429D01*
X144665143Y-175684429D02*
X144665143Y-174160429D01*
X145028000Y-174160429D01*
X145245715Y-174233000D01*
X145390857Y-174378143D01*
X145463429Y-174523286D01*
X145536000Y-174813571D01*
X145536000Y-175031286D01*
X145463429Y-175321571D01*
X145390857Y-175466714D01*
X145245715Y-175611857D01*
X145028000Y-175684429D01*
X144665143Y-175684429D01*
X164822857Y-79886143D02*
X164314857Y-79886143D01*
X164314857Y-80684429D02*
X164314857Y-79160429D01*
X165040571Y-79160429D01*
X165621143Y-80684429D02*
X165621143Y-79160429D01*
X167072571Y-80684429D02*
X166346857Y-80684429D01*
X166346857Y-79160429D01*
X167580571Y-79886143D02*
X168088571Y-79886143D01*
X168306285Y-80684429D02*
X167580571Y-80684429D01*
X167580571Y-79160429D01*
X168306285Y-79160429D01*
X169612571Y-79668429D02*
X169612571Y-80684429D01*
X169249714Y-79087857D02*
X168886857Y-80176429D01*
X169830285Y-80176429D01*
X162540286Y-98668429D02*
X162540286Y-99684429D01*
X162177429Y-98087857D02*
X161814572Y-99176429D01*
X162758000Y-99176429D01*
X172221714Y-118684429D02*
X171713714Y-117958714D01*
X171350857Y-118684429D02*
X171350857Y-117160429D01*
X171931429Y-117160429D01*
X172076571Y-117233000D01*
X172149143Y-117305571D01*
X172221714Y-117450714D01*
X172221714Y-117668429D01*
X172149143Y-117813571D01*
X172076571Y-117886143D01*
X171931429Y-117958714D01*
X171350857Y-117958714D01*
X176717714Y-136886143D02*
X176209714Y-136886143D01*
X176209714Y-137684429D02*
X176209714Y-136160429D01*
X176935428Y-136160429D01*
X185492000Y-155160429D02*
X186000000Y-156684429D01*
X186508000Y-155160429D01*
X159456001Y-175684429D02*
X159456001Y-174160429D01*
X159456001Y-174886143D02*
X160326858Y-174886143D01*
X160326858Y-175684429D02*
X160326858Y-174160429D01*
X161342858Y-174160429D02*
X161633144Y-174160429D01*
X161778286Y-174233000D01*
X161923429Y-174378143D01*
X161996001Y-174668429D01*
X161996001Y-175176429D01*
X161923429Y-175466714D01*
X161778286Y-175611857D01*
X161633144Y-175684429D01*
X161342858Y-175684429D01*
X161197715Y-175611857D01*
X161052572Y-175466714D01*
X160980001Y-175176429D01*
X160980001Y-174668429D01*
X161052572Y-174378143D01*
X161197715Y-174233000D01*
X161342858Y-174160429D01*
X162649143Y-175684429D02*
X162649143Y-174160429D01*
X163157143Y-175249000D01*
X163665143Y-174160429D01*
X163665143Y-175684429D01*
X164390857Y-174886143D02*
X164898857Y-174886143D01*
X165116571Y-175684429D02*
X164390857Y-175684429D01*
X164390857Y-174160429D01*
X165116571Y-174160429D01*
X183822857Y-79886143D02*
X183314857Y-79886143D01*
X183314857Y-80684429D02*
X183314857Y-79160429D01*
X184040571Y-79160429D01*
X184621143Y-80684429D02*
X184621143Y-79160429D01*
X186072571Y-80684429D02*
X185346857Y-80684429D01*
X185346857Y-79160429D01*
X186580571Y-79886143D02*
X187088571Y-79886143D01*
X187306285Y-80684429D02*
X186580571Y-80684429D01*
X186580571Y-79160429D01*
X187306285Y-79160429D01*
X188685142Y-79160429D02*
X187959428Y-79160429D01*
X187886857Y-79886143D01*
X187959428Y-79813571D01*
X188104571Y-79741000D01*
X188467428Y-79741000D01*
X188612571Y-79813571D01*
X188685142Y-79886143D01*
X188757714Y-80031286D01*
X188757714Y-80394143D01*
X188685142Y-80539286D01*
X188612571Y-80611857D01*
X188467428Y-80684429D01*
X188104571Y-80684429D01*
X187959428Y-80611857D01*
X187886857Y-80539286D01*
X181612857Y-98160429D02*
X180887143Y-98160429D01*
X180814572Y-98886143D01*
X180887143Y-98813571D01*
X181032286Y-98741000D01*
X181395143Y-98741000D01*
X181540286Y-98813571D01*
X181612857Y-98886143D01*
X181685429Y-99031286D01*
X181685429Y-99394143D01*
X181612857Y-99539286D01*
X181540286Y-99611857D01*
X181395143Y-99684429D01*
X181032286Y-99684429D01*
X180887143Y-99611857D01*
X180814572Y-99539286D01*
X190314572Y-117160429D02*
X191185429Y-117160429D01*
X190750000Y-118684429D02*
X190750000Y-117160429D01*
X195899143Y-136233000D02*
X195754000Y-136160429D01*
X195536286Y-136160429D01*
X195318571Y-136233000D01*
X195173429Y-136378143D01*
X195100857Y-136523286D01*
X195028286Y-136813571D01*
X195028286Y-137031286D01*
X195100857Y-137321571D01*
X195173429Y-137466714D01*
X195318571Y-137611857D01*
X195536286Y-137684429D01*
X195681429Y-137684429D01*
X195899143Y-137611857D01*
X195971714Y-137539286D01*
X195971714Y-137031286D01*
X195681429Y-137031286D01*
X205108857Y-155886143D02*
X205326571Y-155958714D01*
X205399143Y-156031286D01*
X205471714Y-156176429D01*
X205471714Y-156394143D01*
X205399143Y-156539286D01*
X205326571Y-156611857D01*
X205181429Y-156684429D01*
X204600857Y-156684429D01*
X204600857Y-155160429D01*
X205108857Y-155160429D01*
X205254000Y-155233000D01*
X205326571Y-155305571D01*
X205399143Y-155450714D01*
X205399143Y-155595857D01*
X205326571Y-155741000D01*
X205254000Y-155813571D01*
X205108857Y-155886143D01*
X204600857Y-155886143D01*
X179363143Y-174886143D02*
X179871143Y-174886143D01*
X180088857Y-175684429D02*
X179363143Y-175684429D01*
X179363143Y-174160429D01*
X180088857Y-174160429D01*
X180742000Y-175684429D02*
X180742000Y-174160429D01*
X181612857Y-175684429D01*
X181612857Y-174160429D01*
X182338571Y-175684429D02*
X182338571Y-174160429D01*
X182701428Y-174160429D01*
X182919143Y-174233000D01*
X183064285Y-174378143D01*
X183136857Y-174523286D01*
X183209428Y-174813571D01*
X183209428Y-175031286D01*
X183136857Y-175321571D01*
X183064285Y-175466714D01*
X182919143Y-175611857D01*
X182701428Y-175684429D01*
X182338571Y-175684429D01*
X202822857Y-79886143D02*
X202314857Y-79886143D01*
X202314857Y-80684429D02*
X202314857Y-79160429D01*
X203040571Y-79160429D01*
X203621143Y-80684429D02*
X203621143Y-79160429D01*
X205072571Y-80684429D02*
X204346857Y-80684429D01*
X204346857Y-79160429D01*
X205580571Y-79886143D02*
X206088571Y-79886143D01*
X206306285Y-80684429D02*
X205580571Y-80684429D01*
X205580571Y-79160429D01*
X206306285Y-79160429D01*
X207612571Y-79160429D02*
X207322285Y-79160429D01*
X207177142Y-79233000D01*
X207104571Y-79305571D01*
X206959428Y-79523286D01*
X206886857Y-79813571D01*
X206886857Y-80394143D01*
X206959428Y-80539286D01*
X207032000Y-80611857D01*
X207177142Y-80684429D01*
X207467428Y-80684429D01*
X207612571Y-80611857D01*
X207685142Y-80539286D01*
X207757714Y-80394143D01*
X207757714Y-80031286D01*
X207685142Y-79886143D01*
X207612571Y-79813571D01*
X207467428Y-79741000D01*
X207177142Y-79741000D01*
X207032000Y-79813571D01*
X206959428Y-79886143D01*
X206886857Y-80031286D01*
X200540286Y-98160429D02*
X200250000Y-98160429D01*
X200104857Y-98233000D01*
X200032286Y-98305571D01*
X199887143Y-98523286D01*
X199814572Y-98813571D01*
X199814572Y-99394143D01*
X199887143Y-99539286D01*
X199959715Y-99611857D01*
X200104857Y-99684429D01*
X200395143Y-99684429D01*
X200540286Y-99611857D01*
X200612857Y-99539286D01*
X200685429Y-99394143D01*
X200685429Y-99031286D01*
X200612857Y-98886143D01*
X200540286Y-98813571D01*
X200395143Y-98741000D01*
X200104857Y-98741000D01*
X199959715Y-98813571D01*
X199887143Y-98886143D01*
X199814572Y-99031286D01*
X209750000Y-117958714D02*
X209750000Y-118684429D01*
X209242000Y-117160429D02*
X209750000Y-117958714D01*
X210258000Y-117160429D01*
X214064572Y-137684429D02*
X214064572Y-136160429D01*
X214064572Y-136886143D02*
X214935429Y-136886143D01*
X214935429Y-137684429D02*
X214935429Y-136160429D01*
X223564572Y-156684429D02*
X223564572Y-155160429D01*
X224435429Y-156684429D01*
X224435429Y-155160429D01*
X206448000Y-175611857D02*
X206665714Y-175684429D01*
X207028571Y-175684429D01*
X207173714Y-175611857D01*
X207246285Y-175539286D01*
X207318857Y-175394143D01*
X207318857Y-175249000D01*
X207246285Y-175103857D01*
X207173714Y-175031286D01*
X207028571Y-174958714D01*
X206738285Y-174886143D01*
X206593143Y-174813571D01*
X206520571Y-174741000D01*
X206448000Y-174595857D01*
X206448000Y-174450714D01*
X206520571Y-174305571D01*
X206593143Y-174233000D01*
X206738285Y-174160429D01*
X207101143Y-174160429D01*
X207318857Y-174233000D01*
X207972000Y-175684429D02*
X207972000Y-174160429D01*
X208552572Y-174160429D01*
X208697714Y-174233000D01*
X208770286Y-174305571D01*
X208842857Y-174450714D01*
X208842857Y-174668429D01*
X208770286Y-174813571D01*
X208697714Y-174886143D01*
X208552572Y-174958714D01*
X207972000Y-174958714D01*
X209423429Y-175249000D02*
X210149143Y-175249000D01*
X209278286Y-175684429D02*
X209786286Y-174160429D01*
X210294286Y-175684429D01*
X211673143Y-175539286D02*
X211600572Y-175611857D01*
X211382858Y-175684429D01*
X211237715Y-175684429D01*
X211020000Y-175611857D01*
X210874858Y-175466714D01*
X210802286Y-175321571D01*
X210729715Y-175031286D01*
X210729715Y-174813571D01*
X210802286Y-174523286D01*
X210874858Y-174378143D01*
X211020000Y-174233000D01*
X211237715Y-174160429D01*
X211382858Y-174160429D01*
X211600572Y-174233000D01*
X211673143Y-174305571D01*
X212326286Y-174886143D02*
X212834286Y-174886143D01*
X213052000Y-175684429D02*
X212326286Y-175684429D01*
X212326286Y-174160429D01*
X213052000Y-174160429D01*
X221822857Y-79886143D02*
X221314857Y-79886143D01*
X221314857Y-80684429D02*
X221314857Y-79160429D01*
X222040571Y-79160429D01*
X222621143Y-80684429D02*
X222621143Y-79160429D01*
X224072571Y-80684429D02*
X223346857Y-80684429D01*
X223346857Y-79160429D01*
X224580571Y-79886143D02*
X225088571Y-79886143D01*
X225306285Y-80684429D02*
X224580571Y-80684429D01*
X224580571Y-79160429D01*
X225306285Y-79160429D01*
X225814285Y-79160429D02*
X226830285Y-79160429D01*
X226177142Y-80684429D01*
X218742000Y-98160429D02*
X219758000Y-98160429D01*
X219104857Y-99684429D01*
X228314572Y-117160429D02*
X228314572Y-118394143D01*
X228387144Y-118539286D01*
X228459715Y-118611857D01*
X228604858Y-118684429D01*
X228895144Y-118684429D01*
X229040286Y-118611857D01*
X229112858Y-118539286D01*
X229185429Y-118394143D01*
X229185429Y-117160429D01*
X233717715Y-136160429D02*
X233717715Y-137249000D01*
X233645143Y-137466714D01*
X233500000Y-137611857D01*
X233282286Y-137684429D01*
X233137143Y-137684429D01*
X242492000Y-156684429D02*
X242492000Y-155160429D01*
X243000000Y-156249000D01*
X243508000Y-155160429D01*
X243508000Y-156684429D01*
X238810714Y-174886143D02*
X239318714Y-174886143D01*
X239536428Y-175684429D02*
X238810714Y-175684429D01*
X238810714Y-174160429D01*
X239536428Y-174160429D01*
X240117000Y-175611857D02*
X240334714Y-175684429D01*
X240697571Y-175684429D01*
X240842714Y-175611857D01*
X240915285Y-175539286D01*
X240987857Y-175394143D01*
X240987857Y-175249000D01*
X240915285Y-175103857D01*
X240842714Y-175031286D01*
X240697571Y-174958714D01*
X240407285Y-174886143D01*
X240262143Y-174813571D01*
X240189571Y-174741000D01*
X240117000Y-174595857D01*
X240117000Y-174450714D01*
X240189571Y-174305571D01*
X240262143Y-174233000D01*
X240407285Y-174160429D01*
X240770143Y-174160429D01*
X240987857Y-174233000D01*
X242511857Y-175539286D02*
X242439286Y-175611857D01*
X242221572Y-175684429D01*
X242076429Y-175684429D01*
X241858714Y-175611857D01*
X241713572Y-175466714D01*
X241641000Y-175321571D01*
X241568429Y-175031286D01*
X241568429Y-174813571D01*
X241641000Y-174523286D01*
X241713572Y-174378143D01*
X241858714Y-174233000D01*
X242076429Y-174160429D01*
X242221572Y-174160429D01*
X242439286Y-174233000D01*
X242511857Y-174305571D01*
X240822857Y-79886143D02*
X240314857Y-79886143D01*
X240314857Y-80684429D02*
X240314857Y-79160429D01*
X241040571Y-79160429D01*
X241621143Y-80684429D02*
X241621143Y-79160429D01*
X243072571Y-80684429D02*
X242346857Y-80684429D01*
X242346857Y-79160429D01*
X243580571Y-79886143D02*
X244088571Y-79886143D01*
X244306285Y-80684429D02*
X243580571Y-80684429D01*
X243580571Y-79160429D01*
X244306285Y-79160429D01*
X245177142Y-79813571D02*
X245032000Y-79741000D01*
X244959428Y-79668429D01*
X244886857Y-79523286D01*
X244886857Y-79450714D01*
X244959428Y-79305571D01*
X245032000Y-79233000D01*
X245177142Y-79160429D01*
X245467428Y-79160429D01*
X245612571Y-79233000D01*
X245685142Y-79305571D01*
X245757714Y-79450714D01*
X245757714Y-79523286D01*
X245685142Y-79668429D01*
X245612571Y-79741000D01*
X245467428Y-79813571D01*
X245177142Y-79813571D01*
X245032000Y-79886143D01*
X244959428Y-79958714D01*
X244886857Y-80103857D01*
X244886857Y-80394143D01*
X244959428Y-80539286D01*
X245032000Y-80611857D01*
X245177142Y-80684429D01*
X245467428Y-80684429D01*
X245612571Y-80611857D01*
X245685142Y-80539286D01*
X245757714Y-80394143D01*
X245757714Y-80103857D01*
X245685142Y-79958714D01*
X245612571Y-79886143D01*
X245467428Y-79813571D01*
X238104857Y-98813571D02*
X237959715Y-98741000D01*
X237887143Y-98668429D01*
X237814572Y-98523286D01*
X237814572Y-98450714D01*
X237887143Y-98305571D01*
X237959715Y-98233000D01*
X238104857Y-98160429D01*
X238395143Y-98160429D01*
X238540286Y-98233000D01*
X238612857Y-98305571D01*
X238685429Y-98450714D01*
X238685429Y-98523286D01*
X238612857Y-98668429D01*
X238540286Y-98741000D01*
X238395143Y-98813571D01*
X238104857Y-98813571D01*
X237959715Y-98886143D01*
X237887143Y-98958714D01*
X237814572Y-99103857D01*
X237814572Y-99394143D01*
X237887143Y-99539286D01*
X237959715Y-99611857D01*
X238104857Y-99684429D01*
X238395143Y-99684429D01*
X238540286Y-99611857D01*
X238612857Y-99539286D01*
X238685429Y-99394143D01*
X238685429Y-99103857D01*
X238612857Y-98958714D01*
X238540286Y-98886143D01*
X238395143Y-98813571D01*
X247750000Y-118684429D02*
X247750000Y-117160429D01*
X252100857Y-137684429D02*
X252100857Y-136160429D01*
X252971714Y-137684429D02*
X252318571Y-136813571D01*
X252971714Y-136160429D02*
X252100857Y-137031286D01*
X259278572Y-156539286D02*
X259206001Y-156611857D01*
X258988287Y-156684429D01*
X258843144Y-156684429D01*
X258625429Y-156611857D01*
X258480287Y-156466714D01*
X258407715Y-156321571D01*
X258335144Y-156031286D01*
X258335144Y-155813571D01*
X258407715Y-155523286D01*
X258480287Y-155378143D01*
X258625429Y-155233000D01*
X258843144Y-155160429D01*
X258988287Y-155160429D01*
X259206001Y-155233000D01*
X259278572Y-155305571D01*
X260222001Y-155160429D02*
X260512287Y-155160429D01*
X260657429Y-155233000D01*
X260802572Y-155378143D01*
X260875144Y-155668429D01*
X260875144Y-156176429D01*
X260802572Y-156466714D01*
X260657429Y-156611857D01*
X260512287Y-156684429D01*
X260222001Y-156684429D01*
X260076858Y-156611857D01*
X259931715Y-156466714D01*
X259859144Y-156176429D01*
X259859144Y-155668429D01*
X259931715Y-155378143D01*
X260076858Y-155233000D01*
X260222001Y-155160429D01*
X261528286Y-156684429D02*
X261528286Y-155160429D01*
X262036286Y-156249000D01*
X262544286Y-155160429D01*
X262544286Y-156684429D01*
X263270000Y-156684429D02*
X263270000Y-155160429D01*
X263778000Y-156249000D01*
X264286000Y-155160429D01*
X264286000Y-156684429D01*
X264939143Y-156249000D02*
X265664857Y-156249000D01*
X264794000Y-156684429D02*
X265302000Y-155160429D01*
X265810000Y-156684429D01*
X260746429Y-175684429D02*
X260238429Y-174958714D01*
X259875572Y-175684429D02*
X259875572Y-174160429D01*
X260456144Y-174160429D01*
X260601286Y-174233000D01*
X260673858Y-174305571D01*
X260746429Y-174450714D01*
X260746429Y-174668429D01*
X260673858Y-174813571D01*
X260601286Y-174886143D01*
X260456144Y-174958714D01*
X259875572Y-174958714D01*
X261689858Y-174160429D02*
X261980144Y-174160429D01*
X262125286Y-174233000D01*
X262270429Y-174378143D01*
X262343001Y-174668429D01*
X262343001Y-175176429D01*
X262270429Y-175466714D01*
X262125286Y-175611857D01*
X261980144Y-175684429D01*
X261689858Y-175684429D01*
X261544715Y-175611857D01*
X261399572Y-175466714D01*
X261327001Y-175176429D01*
X261327001Y-174668429D01*
X261399572Y-174378143D01*
X261544715Y-174233000D01*
X261689858Y-174160429D01*
X262996143Y-175684429D02*
X262996143Y-174160429D01*
X263576715Y-174160429D01*
X263721857Y-174233000D01*
X263794429Y-174305571D01*
X263867000Y-174450714D01*
X263867000Y-174668429D01*
X263794429Y-174813571D01*
X263721857Y-174886143D01*
X263576715Y-174958714D01*
X262996143Y-174958714D01*
X264302429Y-174160429D02*
X265173286Y-174160429D01*
X264737857Y-175684429D02*
X264737857Y-174160429D01*
X265681286Y-175684429D02*
X265681286Y-174160429D01*
X266697286Y-174160429D02*
X266987572Y-174160429D01*
X267132714Y-174233000D01*
X267277857Y-174378143D01*
X267350429Y-174668429D01*
X267350429Y-175176429D01*
X267277857Y-175466714D01*
X267132714Y-175611857D01*
X266987572Y-175684429D01*
X266697286Y-175684429D01*
X266552143Y-175611857D01*
X266407000Y-175466714D01*
X266334429Y-175176429D01*
X266334429Y-174668429D01*
X266407000Y-174378143D01*
X266552143Y-174233000D01*
X266697286Y-174160429D01*
X268003571Y-175684429D02*
X268003571Y-174160429D01*
X268874428Y-175684429D01*
X268874428Y-174160429D01*
X259097143Y-80684429D02*
X259097143Y-79160429D01*
X259677715Y-79160429D01*
X259822857Y-79233000D01*
X259895429Y-79305571D01*
X259968000Y-79450714D01*
X259968000Y-79668429D01*
X259895429Y-79813571D01*
X259822857Y-79886143D01*
X259677715Y-79958714D01*
X259097143Y-79958714D01*
X261492000Y-80684429D02*
X260984000Y-79958714D01*
X260621143Y-80684429D02*
X260621143Y-79160429D01*
X261201715Y-79160429D01*
X261346857Y-79233000D01*
X261419429Y-79305571D01*
X261492000Y-79450714D01*
X261492000Y-79668429D01*
X261419429Y-79813571D01*
X261346857Y-79886143D01*
X261201715Y-79958714D01*
X260621143Y-79958714D01*
X262145143Y-80684429D02*
X262145143Y-79160429D01*
X262870857Y-80684429D02*
X262870857Y-79160429D01*
X263741714Y-80684429D01*
X263741714Y-79160429D01*
X264249714Y-79160429D02*
X265120571Y-79160429D01*
X264685142Y-80684429D02*
X264685142Y-79160429D01*
X256959715Y-99684429D02*
X257250000Y-99684429D01*
X257395143Y-99611857D01*
X257467715Y-99539286D01*
X257612857Y-99321571D01*
X257685429Y-99031286D01*
X257685429Y-98450714D01*
X257612857Y-98305571D01*
X257540286Y-98233000D01*
X257395143Y-98160429D01*
X257104857Y-98160429D01*
X256959715Y-98233000D01*
X256887143Y-98305571D01*
X256814572Y-98450714D01*
X256814572Y-98813571D01*
X256887143Y-98958714D01*
X256959715Y-99031286D01*
X257104857Y-99103857D01*
X257395143Y-99103857D01*
X257540286Y-99031286D01*
X257612857Y-98958714D01*
X257685429Y-98813571D01*
X266604858Y-117160429D02*
X266895144Y-117160429D01*
X267040286Y-117233000D01*
X267185429Y-117378143D01*
X267258001Y-117668429D01*
X267258001Y-118176429D01*
X267185429Y-118466714D01*
X267040286Y-118611857D01*
X266895144Y-118684429D01*
X266604858Y-118684429D01*
X266459715Y-118611857D01*
X266314572Y-118466714D01*
X266242001Y-118176429D01*
X266242001Y-117668429D01*
X266314572Y-117378143D01*
X266459715Y-117233000D01*
X266604858Y-117160429D01*
X271971714Y-137684429D02*
X271246000Y-137684429D01*
X271246000Y-136160429D01*
X277226286Y-156684429D02*
X277226286Y-155160429D01*
X277806858Y-155160429D01*
X277952000Y-155233000D01*
X278024572Y-155305571D01*
X278097143Y-155450714D01*
X278097143Y-155668429D01*
X278024572Y-155813571D01*
X277952000Y-155886143D01*
X277806858Y-155958714D01*
X277226286Y-155958714D01*
X278750286Y-155886143D02*
X279258286Y-155886143D01*
X279476000Y-156684429D02*
X278750286Y-156684429D01*
X278750286Y-155160429D01*
X279476000Y-155160429D01*
X281000000Y-156684429D02*
X280492000Y-155958714D01*
X280129143Y-156684429D02*
X280129143Y-155160429D01*
X280709715Y-155160429D01*
X280854857Y-155233000D01*
X280927429Y-155305571D01*
X281000000Y-155450714D01*
X281000000Y-155668429D01*
X280927429Y-155813571D01*
X280854857Y-155886143D01*
X280709715Y-155958714D01*
X280129143Y-155958714D01*
X281653143Y-156684429D02*
X281653143Y-155160429D01*
X282669143Y-155160429D02*
X282959429Y-155160429D01*
X283104571Y-155233000D01*
X283249714Y-155378143D01*
X283322286Y-155668429D01*
X283322286Y-156176429D01*
X283249714Y-156466714D01*
X283104571Y-156611857D01*
X282959429Y-156684429D01*
X282669143Y-156684429D01*
X282524000Y-156611857D01*
X282378857Y-156466714D01*
X282306286Y-156176429D01*
X282306286Y-155668429D01*
X282378857Y-155378143D01*
X282524000Y-155233000D01*
X282669143Y-155160429D01*
X283975428Y-156684429D02*
X283975428Y-155160429D01*
X284338285Y-155160429D01*
X284556000Y-155233000D01*
X284701142Y-155378143D01*
X284773714Y-155523286D01*
X284846285Y-155813571D01*
X284846285Y-156031286D01*
X284773714Y-156321571D01*
X284701142Y-156466714D01*
X284556000Y-156611857D01*
X284338285Y-156684429D01*
X283975428Y-156684429D01*
X284298571Y-175684429D02*
X283572857Y-175684429D01*
X283572857Y-174160429D01*
X284806571Y-174886143D02*
X285314571Y-174886143D01*
X285532285Y-175684429D02*
X284806571Y-175684429D01*
X284806571Y-174160429D01*
X285532285Y-174160429D01*
X286693428Y-174886143D02*
X286185428Y-174886143D01*
X286185428Y-175684429D02*
X286185428Y-174160429D01*
X286911142Y-174160429D01*
X287274000Y-174160429D02*
X288144857Y-174160429D01*
X287709428Y-175684429D02*
X287709428Y-174160429D01*
X276282858Y-80611857D02*
X276500572Y-80684429D01*
X276863429Y-80684429D01*
X277008572Y-80611857D01*
X277081143Y-80539286D01*
X277153715Y-80394143D01*
X277153715Y-80249000D01*
X277081143Y-80103857D01*
X277008572Y-80031286D01*
X276863429Y-79958714D01*
X276573143Y-79886143D01*
X276428001Y-79813571D01*
X276355429Y-79741000D01*
X276282858Y-79595857D01*
X276282858Y-79450714D01*
X276355429Y-79305571D01*
X276428001Y-79233000D01*
X276573143Y-79160429D01*
X276936001Y-79160429D01*
X277153715Y-79233000D01*
X277806858Y-80684429D02*
X277806858Y-79160429D01*
X278387430Y-79160429D01*
X278532572Y-79233000D01*
X278605144Y-79305571D01*
X278677715Y-79450714D01*
X278677715Y-79668429D01*
X278605144Y-79813571D01*
X278532572Y-79886143D01*
X278387430Y-79958714D01*
X277806858Y-79958714D01*
X280056572Y-80684429D02*
X279330858Y-80684429D01*
X279330858Y-79160429D01*
X280201715Y-80829571D02*
X281362858Y-80829571D01*
X282596572Y-80539286D02*
X282524001Y-80611857D01*
X282306287Y-80684429D01*
X282161144Y-80684429D01*
X281943429Y-80611857D01*
X281798287Y-80466714D01*
X281725715Y-80321571D01*
X281653144Y-80031286D01*
X281653144Y-79813571D01*
X281725715Y-79523286D01*
X281798287Y-79378143D01*
X281943429Y-79233000D01*
X282161144Y-79160429D01*
X282306287Y-79160429D01*
X282524001Y-79233000D01*
X282596572Y-79305571D01*
X283249715Y-80684429D02*
X283249715Y-79160429D01*
X283249715Y-79886143D02*
X284120572Y-79886143D01*
X284120572Y-80684429D02*
X284120572Y-79160429D01*
X284846286Y-80684429D02*
X284846286Y-79160429D01*
X285717143Y-80684429D02*
X285064000Y-79813571D01*
X285717143Y-79160429D02*
X284846286Y-80031286D01*
X276177429Y-98160429D02*
X276322572Y-98160429D01*
X276467715Y-98233000D01*
X276540286Y-98305571D01*
X276612857Y-98450714D01*
X276685429Y-98741000D01*
X276685429Y-99103857D01*
X276612857Y-99394143D01*
X276540286Y-99539286D01*
X276467715Y-99611857D01*
X276322572Y-99684429D01*
X276177429Y-99684429D01*
X276032286Y-99611857D01*
X275959715Y-99539286D01*
X275887143Y-99394143D01*
X275814572Y-99103857D01*
X275814572Y-98741000D01*
X275887143Y-98450714D01*
X275959715Y-98305571D01*
X276032286Y-98233000D01*
X276177429Y-98160429D01*
X285350857Y-118684429D02*
X285350857Y-117160429D01*
X285931429Y-117160429D01*
X286076571Y-117233000D01*
X286149143Y-117305571D01*
X286221714Y-117450714D01*
X286221714Y-117668429D01*
X286149143Y-117813571D01*
X286076571Y-117886143D01*
X285931429Y-117958714D01*
X285350857Y-117958714D01*
X285964287Y-137611857D02*
X286182001Y-137684429D01*
X286544858Y-137684429D01*
X286690001Y-137611857D01*
X286762572Y-137539286D01*
X286835144Y-137394143D01*
X286835144Y-137249000D01*
X286762572Y-137103857D01*
X286690001Y-137031286D01*
X286544858Y-136958714D01*
X286254572Y-136886143D01*
X286109430Y-136813571D01*
X286036858Y-136741000D01*
X285964287Y-136595857D01*
X285964287Y-136450714D01*
X286036858Y-136305571D01*
X286109430Y-136233000D01*
X286254572Y-136160429D01*
X286617430Y-136160429D01*
X286835144Y-136233000D01*
X287488287Y-136886143D02*
X287996287Y-136886143D01*
X288214001Y-137684429D02*
X287488287Y-137684429D01*
X287488287Y-136160429D01*
X288214001Y-136160429D01*
X288867144Y-137684429D02*
X288867144Y-136160429D01*
X289375144Y-137249000D01*
X289883144Y-136160429D01*
X289883144Y-137684429D01*
X290608858Y-137684429D02*
X290608858Y-136160429D01*
X292205429Y-137539286D02*
X292132858Y-137611857D01*
X291915144Y-137684429D01*
X291770001Y-137684429D01*
X291552286Y-137611857D01*
X291407144Y-137466714D01*
X291334572Y-137321571D01*
X291262001Y-137031286D01*
X291262001Y-136813571D01*
X291334572Y-136523286D01*
X291407144Y-136378143D01*
X291552286Y-136233000D01*
X291770001Y-136160429D01*
X291915144Y-136160429D01*
X292132858Y-136233000D01*
X292205429Y-136305571D01*
X293148858Y-136160429D02*
X293439144Y-136160429D01*
X293584286Y-136233000D01*
X293729429Y-136378143D01*
X293802001Y-136668429D01*
X293802001Y-137176429D01*
X293729429Y-137466714D01*
X293584286Y-137611857D01*
X293439144Y-137684429D01*
X293148858Y-137684429D01*
X293003715Y-137611857D01*
X292858572Y-137466714D01*
X292786001Y-137176429D01*
X292786001Y-136668429D01*
X292858572Y-136378143D01*
X293003715Y-136233000D01*
X293148858Y-136160429D01*
X295180857Y-137684429D02*
X294455143Y-137684429D01*
X294455143Y-136160429D01*
X296770572Y-156611857D02*
X296988286Y-156684429D01*
X297351143Y-156684429D01*
X297496286Y-156611857D01*
X297568857Y-156539286D01*
X297641429Y-156394143D01*
X297641429Y-156249000D01*
X297568857Y-156103857D01*
X297496286Y-156031286D01*
X297351143Y-155958714D01*
X297060857Y-155886143D01*
X296915715Y-155813571D01*
X296843143Y-155741000D01*
X296770572Y-155595857D01*
X296770572Y-155450714D01*
X296843143Y-155305571D01*
X296915715Y-155233000D01*
X297060857Y-155160429D01*
X297423715Y-155160429D01*
X297641429Y-155233000D01*
X299020286Y-156684429D02*
X298294572Y-156684429D01*
X298294572Y-155160429D01*
X299455715Y-156249000D02*
X300181429Y-156249000D01*
X299310572Y-156684429D02*
X299818572Y-155160429D01*
X300326572Y-156684429D01*
X300762001Y-156611857D02*
X300979715Y-156684429D01*
X301342572Y-156684429D01*
X301487715Y-156611857D01*
X301560286Y-156539286D01*
X301632858Y-156394143D01*
X301632858Y-156249000D01*
X301560286Y-156103857D01*
X301487715Y-156031286D01*
X301342572Y-155958714D01*
X301052286Y-155886143D01*
X300907144Y-155813571D01*
X300834572Y-155741000D01*
X300762001Y-155595857D01*
X300762001Y-155450714D01*
X300834572Y-155305571D01*
X300907144Y-155233000D01*
X301052286Y-155160429D01*
X301415144Y-155160429D01*
X301632858Y-155233000D01*
X302286001Y-156684429D02*
X302286001Y-155160429D01*
X302286001Y-155886143D02*
X303156858Y-155886143D01*
X303156858Y-156684429D02*
X303156858Y-155160429D01*
X322552572Y-174160429D02*
X322552572Y-175394143D01*
X322625144Y-175539286D01*
X322697715Y-175611857D01*
X322842858Y-175684429D01*
X323133144Y-175684429D01*
X323278286Y-175611857D01*
X323350858Y-175539286D01*
X323423429Y-175394143D01*
X323423429Y-174160429D01*
X324149143Y-175684429D02*
X324149143Y-174160429D01*
X324729715Y-174160429D01*
X324874857Y-174233000D01*
X324947429Y-174305571D01*
X325020000Y-174450714D01*
X325020000Y-174668429D01*
X324947429Y-174813571D01*
X324874857Y-174886143D01*
X324729715Y-174958714D01*
X324149143Y-174958714D01*
X296190000Y-80539286D02*
X296117429Y-80611857D01*
X295899715Y-80684429D01*
X295754572Y-80684429D01*
X295536857Y-80611857D01*
X295391715Y-80466714D01*
X295319143Y-80321571D01*
X295246572Y-80031286D01*
X295246572Y-79813571D01*
X295319143Y-79523286D01*
X295391715Y-79378143D01*
X295536857Y-79233000D01*
X295754572Y-79160429D01*
X295899715Y-79160429D01*
X296117429Y-79233000D01*
X296190000Y-79305571D01*
X297568857Y-80684429D02*
X296843143Y-80684429D01*
X296843143Y-79160429D01*
X298947714Y-80684429D02*
X298439714Y-79958714D01*
X298076857Y-80684429D02*
X298076857Y-79160429D01*
X298657429Y-79160429D01*
X298802571Y-79233000D01*
X298875143Y-79305571D01*
X298947714Y-79450714D01*
X298947714Y-79668429D01*
X298875143Y-79813571D01*
X298802571Y-79886143D01*
X298657429Y-79958714D01*
X298076857Y-79958714D01*
X299238000Y-80829571D02*
X300399143Y-80829571D01*
X301270000Y-79886143D02*
X300762000Y-79886143D01*
X300762000Y-80684429D02*
X300762000Y-79160429D01*
X301487714Y-79160429D01*
X302068286Y-80684429D02*
X302068286Y-79160429D01*
X303519714Y-80684429D02*
X302794000Y-80684429D01*
X302794000Y-79160429D01*
X304027714Y-79886143D02*
X304535714Y-79886143D01*
X304753428Y-80684429D02*
X304027714Y-80684429D01*
X304027714Y-79160429D01*
X304753428Y-79160429D01*
X291113429Y-99684429D02*
X291113429Y-98160429D01*
X291113429Y-98886143D02*
X291984286Y-98886143D01*
X291984286Y-99684429D02*
X291984286Y-98160429D01*
X293000286Y-98958714D02*
X293000286Y-99684429D01*
X292492286Y-98160429D02*
X293000286Y-98958714D01*
X293508286Y-98160429D01*
X294016286Y-99684429D02*
X294016286Y-98160429D01*
X294596858Y-98160429D01*
X294742000Y-98233000D01*
X294814572Y-98305571D01*
X294887143Y-98450714D01*
X294887143Y-98668429D01*
X294814572Y-98813571D01*
X294742000Y-98886143D01*
X294596858Y-98958714D01*
X294016286Y-98958714D01*
X295540286Y-99684429D02*
X295540286Y-98160429D01*
X295540286Y-98886143D02*
X296411143Y-98886143D01*
X296411143Y-99684429D02*
X296411143Y-98160429D01*
X297136857Y-98886143D02*
X297644857Y-98886143D01*
X297862571Y-99684429D02*
X297136857Y-99684429D01*
X297136857Y-98160429D01*
X297862571Y-98160429D01*
X298515714Y-99684429D02*
X298515714Y-98160429D01*
X299386571Y-99684429D01*
X299386571Y-98160429D01*
X300250571Y-118684429D02*
X299524857Y-118684429D01*
X299524857Y-117160429D01*
X301266571Y-117886143D02*
X301484285Y-117958714D01*
X301556857Y-118031286D01*
X301629428Y-118176429D01*
X301629428Y-118394143D01*
X301556857Y-118539286D01*
X301484285Y-118611857D01*
X301339143Y-118684429D01*
X300758571Y-118684429D01*
X300758571Y-117160429D01*
X301266571Y-117160429D01*
X301411714Y-117233000D01*
X301484285Y-117305571D01*
X301556857Y-117450714D01*
X301556857Y-117595857D01*
X301484285Y-117741000D01*
X301411714Y-117813571D01*
X301266571Y-117886143D01*
X300758571Y-117886143D01*
X303153428Y-118684429D02*
X302645428Y-117958714D01*
X302282571Y-118684429D02*
X302282571Y-117160429D01*
X302863143Y-117160429D01*
X303008285Y-117233000D01*
X303080857Y-117305571D01*
X303153428Y-117450714D01*
X303153428Y-117668429D01*
X303080857Y-117813571D01*
X303008285Y-117886143D01*
X302863143Y-117958714D01*
X302282571Y-117958714D01*
X303734000Y-118249000D02*
X304459714Y-118249000D01*
X303588857Y-118684429D02*
X304096857Y-117160429D01*
X304604857Y-118684429D01*
X305983714Y-118539286D02*
X305911143Y-118611857D01*
X305693429Y-118684429D01*
X305548286Y-118684429D01*
X305330571Y-118611857D01*
X305185429Y-118466714D01*
X305112857Y-118321571D01*
X305040286Y-118031286D01*
X305040286Y-117813571D01*
X305112857Y-117523286D01*
X305185429Y-117378143D01*
X305330571Y-117233000D01*
X305548286Y-117160429D01*
X305693429Y-117160429D01*
X305911143Y-117233000D01*
X305983714Y-117305571D01*
X306636857Y-118684429D02*
X306636857Y-117160429D01*
X307507714Y-118684429D02*
X306854571Y-117813571D01*
X307507714Y-117160429D02*
X306636857Y-118031286D01*
X308160857Y-117886143D02*
X308668857Y-117886143D01*
X308886571Y-118684429D02*
X308160857Y-118684429D01*
X308160857Y-117160429D01*
X308886571Y-117160429D01*
X309322000Y-117160429D02*
X310192857Y-117160429D01*
X309757428Y-118684429D02*
X309757428Y-117160429D01*
X307214001Y-137829571D02*
X307068858Y-137757000D01*
X306923715Y-137611857D01*
X306706001Y-137394143D01*
X306560858Y-137321571D01*
X306415715Y-137321571D01*
X306488287Y-137684429D02*
X306343144Y-137611857D01*
X306198001Y-137466714D01*
X306125430Y-137176429D01*
X306125430Y-136668429D01*
X306198001Y-136378143D01*
X306343144Y-136233000D01*
X306488287Y-136160429D01*
X306778573Y-136160429D01*
X306923715Y-136233000D01*
X307068858Y-136378143D01*
X307141430Y-136668429D01*
X307141430Y-137176429D01*
X307068858Y-137466714D01*
X306923715Y-137611857D01*
X306778573Y-137684429D01*
X306488287Y-137684429D01*
X307794572Y-136160429D02*
X307794572Y-137394143D01*
X307867144Y-137539286D01*
X307939715Y-137611857D01*
X308084858Y-137684429D01*
X308375144Y-137684429D01*
X308520286Y-137611857D01*
X308592858Y-137539286D01*
X308665429Y-137394143D01*
X308665429Y-136160429D01*
X309681429Y-136160429D02*
X309971715Y-136160429D01*
X310116857Y-136233000D01*
X310262000Y-136378143D01*
X310334572Y-136668429D01*
X310334572Y-137176429D01*
X310262000Y-137466714D01*
X310116857Y-137611857D01*
X309971715Y-137684429D01*
X309681429Y-137684429D01*
X309536286Y-137611857D01*
X309391143Y-137466714D01*
X309318572Y-137176429D01*
X309318572Y-136668429D01*
X309391143Y-136378143D01*
X309536286Y-136233000D01*
X309681429Y-136160429D01*
X310770000Y-136160429D02*
X311640857Y-136160429D01*
X311205428Y-137684429D02*
X311205428Y-136160429D01*
X312148857Y-136886143D02*
X312656857Y-136886143D01*
X312874571Y-137684429D02*
X312148857Y-137684429D01*
X312148857Y-136160429D01*
X312874571Y-136160429D01*
X328226143Y-156684429D02*
X327718143Y-155958714D01*
X327355286Y-156684429D02*
X327355286Y-155160429D01*
X327935858Y-155160429D01*
X328081000Y-155233000D01*
X328153572Y-155305571D01*
X328226143Y-155450714D01*
X328226143Y-155668429D01*
X328153572Y-155813571D01*
X328081000Y-155886143D01*
X327935858Y-155958714D01*
X327355286Y-155958714D01*
X328806715Y-156611857D02*
X329024429Y-156684429D01*
X329387286Y-156684429D01*
X329532429Y-156611857D01*
X329605000Y-156539286D01*
X329677572Y-156394143D01*
X329677572Y-156249000D01*
X329605000Y-156103857D01*
X329532429Y-156031286D01*
X329387286Y-155958714D01*
X329097000Y-155886143D01*
X328951858Y-155813571D01*
X328879286Y-155741000D01*
X328806715Y-155595857D01*
X328806715Y-155450714D01*
X328879286Y-155305571D01*
X328951858Y-155233000D01*
X329097000Y-155160429D01*
X329459858Y-155160429D01*
X329677572Y-155233000D01*
X330330715Y-156684429D02*
X330330715Y-155160429D01*
X330330715Y-155886143D02*
X331201572Y-155886143D01*
X331201572Y-156684429D02*
X331201572Y-155160429D01*
X331927286Y-156684429D02*
X331927286Y-155160429D01*
X333161000Y-155886143D02*
X332653000Y-155886143D01*
X332653000Y-156684429D02*
X332653000Y-155160429D01*
X333378714Y-155160429D01*
X333741572Y-155160429D02*
X334612429Y-155160429D01*
X334177000Y-156684429D02*
X334177000Y-155160429D01*
X301883429Y-175684429D02*
X301883429Y-174160429D01*
X302246286Y-174160429D01*
X302464001Y-174233000D01*
X302609143Y-174378143D01*
X302681715Y-174523286D01*
X302754286Y-174813571D01*
X302754286Y-175031286D01*
X302681715Y-175321571D01*
X302609143Y-175466714D01*
X302464001Y-175611857D01*
X302246286Y-175684429D01*
X301883429Y-175684429D01*
X303697715Y-174160429D02*
X303988001Y-174160429D01*
X304133143Y-174233000D01*
X304278286Y-174378143D01*
X304350858Y-174668429D01*
X304350858Y-175176429D01*
X304278286Y-175466714D01*
X304133143Y-175611857D01*
X303988001Y-175684429D01*
X303697715Y-175684429D01*
X303552572Y-175611857D01*
X303407429Y-175466714D01*
X303334858Y-175176429D01*
X303334858Y-174668429D01*
X303407429Y-174378143D01*
X303552572Y-174233000D01*
X303697715Y-174160429D01*
X304858857Y-174160429D02*
X305221714Y-175684429D01*
X305512000Y-174595857D01*
X305802286Y-175684429D01*
X306165143Y-174160429D01*
X306745714Y-175684429D02*
X306745714Y-174160429D01*
X307616571Y-175684429D01*
X307616571Y-174160429D01*
X316387429Y-80249000D02*
X317113143Y-80249000D01*
X316242286Y-80684429D02*
X316750286Y-79160429D01*
X317258286Y-80684429D01*
X317766286Y-80684429D02*
X317766286Y-79160429D01*
X318346858Y-79160429D01*
X318492000Y-79233000D01*
X318564572Y-79305571D01*
X318637143Y-79450714D01*
X318637143Y-79668429D01*
X318564572Y-79813571D01*
X318492000Y-79886143D01*
X318346858Y-79958714D01*
X317766286Y-79958714D01*
X319290286Y-80684429D02*
X319290286Y-79160429D01*
X319870858Y-79160429D01*
X320016000Y-79233000D01*
X320088572Y-79305571D01*
X320161143Y-79450714D01*
X320161143Y-79668429D01*
X320088572Y-79813571D01*
X320016000Y-79886143D01*
X319870858Y-79958714D01*
X319290286Y-79958714D01*
X320741715Y-80611857D02*
X320959429Y-80684429D01*
X321322286Y-80684429D01*
X321467429Y-80611857D01*
X321540000Y-80539286D01*
X321612572Y-80394143D01*
X321612572Y-80249000D01*
X321540000Y-80103857D01*
X321467429Y-80031286D01*
X321322286Y-79958714D01*
X321032000Y-79886143D01*
X320886858Y-79813571D01*
X320814286Y-79741000D01*
X320741715Y-79595857D01*
X320741715Y-79450714D01*
X320814286Y-79305571D01*
X320886858Y-79233000D01*
X321032000Y-79160429D01*
X321394858Y-79160429D01*
X321612572Y-79233000D01*
X310331143Y-98886143D02*
X310839143Y-98886143D01*
X311056857Y-99684429D02*
X310331143Y-99684429D01*
X310331143Y-98160429D01*
X311056857Y-98160429D01*
X312726000Y-99829571D02*
X312580857Y-99757000D01*
X312435714Y-99611857D01*
X312218000Y-99394143D01*
X312072857Y-99321571D01*
X311927714Y-99321571D01*
X312000286Y-99684429D02*
X311855143Y-99611857D01*
X311710000Y-99466714D01*
X311637429Y-99176429D01*
X311637429Y-98668429D01*
X311710000Y-98378143D01*
X311855143Y-98233000D01*
X312000286Y-98160429D01*
X312290572Y-98160429D01*
X312435714Y-98233000D01*
X312580857Y-98378143D01*
X312653429Y-98668429D01*
X312653429Y-99176429D01*
X312580857Y-99466714D01*
X312435714Y-99611857D01*
X312290572Y-99684429D01*
X312000286Y-99684429D01*
X313306571Y-98160429D02*
X313306571Y-99394143D01*
X313379143Y-99539286D01*
X313451714Y-99611857D01*
X313596857Y-99684429D01*
X313887143Y-99684429D01*
X314032285Y-99611857D01*
X314104857Y-99539286D01*
X314177428Y-99394143D01*
X314177428Y-98160429D01*
X314830571Y-99249000D02*
X315556285Y-99249000D01*
X314685428Y-99684429D02*
X315193428Y-98160429D01*
X315701428Y-99684429D01*
X316935142Y-99684429D02*
X316209428Y-99684429D01*
X316209428Y-98160429D01*
X317370571Y-99611857D02*
X317588285Y-99684429D01*
X317951142Y-99684429D01*
X318096285Y-99611857D01*
X318168856Y-99539286D01*
X318241428Y-99394143D01*
X318241428Y-99249000D01*
X318168856Y-99103857D01*
X318096285Y-99031286D01*
X317951142Y-98958714D01*
X317660856Y-98886143D01*
X317515714Y-98813571D01*
X317443142Y-98741000D01*
X317370571Y-98595857D01*
X317370571Y-98450714D01*
X317443142Y-98305571D01*
X317515714Y-98233000D01*
X317660856Y-98160429D01*
X318023714Y-98160429D01*
X318241428Y-98233000D01*
X319250571Y-118684429D02*
X318742571Y-117958714D01*
X318379714Y-118684429D02*
X318379714Y-117160429D01*
X318960286Y-117160429D01*
X319105428Y-117233000D01*
X319178000Y-117305571D01*
X319250571Y-117450714D01*
X319250571Y-117668429D01*
X319178000Y-117813571D01*
X319105428Y-117886143D01*
X318960286Y-117958714D01*
X318379714Y-117958714D01*
X320411714Y-117886143D02*
X320629428Y-117958714D01*
X320702000Y-118031286D01*
X320774571Y-118176429D01*
X320774571Y-118394143D01*
X320702000Y-118539286D01*
X320629428Y-118611857D01*
X320484286Y-118684429D01*
X319903714Y-118684429D01*
X319903714Y-117160429D01*
X320411714Y-117160429D01*
X320556857Y-117233000D01*
X320629428Y-117305571D01*
X320702000Y-117450714D01*
X320702000Y-117595857D01*
X320629428Y-117741000D01*
X320556857Y-117813571D01*
X320411714Y-117886143D01*
X319903714Y-117886143D01*
X322298571Y-118684429D02*
X321790571Y-117958714D01*
X321427714Y-118684429D02*
X321427714Y-117160429D01*
X322008286Y-117160429D01*
X322153428Y-117233000D01*
X322226000Y-117305571D01*
X322298571Y-117450714D01*
X322298571Y-117668429D01*
X322226000Y-117813571D01*
X322153428Y-117886143D01*
X322008286Y-117958714D01*
X321427714Y-117958714D01*
X322879143Y-118249000D02*
X323604857Y-118249000D01*
X322734000Y-118684429D02*
X323242000Y-117160429D01*
X323750000Y-118684429D01*
X325128857Y-118539286D02*
X325056286Y-118611857D01*
X324838572Y-118684429D01*
X324693429Y-118684429D01*
X324475714Y-118611857D01*
X324330572Y-118466714D01*
X324258000Y-118321571D01*
X324185429Y-118031286D01*
X324185429Y-117813571D01*
X324258000Y-117523286D01*
X324330572Y-117378143D01*
X324475714Y-117233000D01*
X324693429Y-117160429D01*
X324838572Y-117160429D01*
X325056286Y-117233000D01*
X325128857Y-117305571D01*
X325782000Y-118684429D02*
X325782000Y-117160429D01*
X326652857Y-118684429D02*
X325999714Y-117813571D01*
X326652857Y-117160429D02*
X325782000Y-118031286D01*
X327306000Y-117886143D02*
X327814000Y-117886143D01*
X328031714Y-118684429D02*
X327306000Y-118684429D01*
X327306000Y-117160429D01*
X328031714Y-117160429D01*
X328467143Y-117160429D02*
X329338000Y-117160429D01*
X328902571Y-118684429D02*
X328902571Y-117160429D01*
X332468143Y-136886143D02*
X332976143Y-136886143D01*
X333193857Y-137684429D02*
X332468143Y-137684429D01*
X332468143Y-136160429D01*
X333193857Y-136160429D01*
X333847000Y-137684429D02*
X333847000Y-136160429D01*
X334717857Y-137684429D01*
X334717857Y-136160429D01*
X335225857Y-136160429D02*
X336096714Y-136160429D01*
X335661285Y-137684429D02*
X335661285Y-136160429D01*
X336604714Y-136886143D02*
X337112714Y-136886143D01*
X337330428Y-137684429D02*
X336604714Y-137684429D01*
X336604714Y-136160429D01*
X337330428Y-136160429D01*
X338854428Y-137684429D02*
X338346428Y-136958714D01*
X337983571Y-137684429D02*
X337983571Y-136160429D01*
X338564143Y-136160429D01*
X338709285Y-136233000D01*
X338781857Y-136305571D01*
X338854428Y-136450714D01*
X338854428Y-136668429D01*
X338781857Y-136813571D01*
X338709285Y-136886143D01*
X338564143Y-136958714D01*
X337983571Y-136958714D01*
X340718000Y-175684429D02*
X340210000Y-174958714D01*
X339847143Y-175684429D02*
X339847143Y-174160429D01*
X340427715Y-174160429D01*
X340572857Y-174233000D01*
X340645429Y-174305571D01*
X340718000Y-174450714D01*
X340718000Y-174668429D01*
X340645429Y-174813571D01*
X340572857Y-174886143D01*
X340427715Y-174958714D01*
X339847143Y-174958714D01*
X341371143Y-175684429D02*
X341371143Y-174160429D01*
X342895143Y-174233000D02*
X342750000Y-174160429D01*
X342532286Y-174160429D01*
X342314571Y-174233000D01*
X342169429Y-174378143D01*
X342096857Y-174523286D01*
X342024286Y-174813571D01*
X342024286Y-175031286D01*
X342096857Y-175321571D01*
X342169429Y-175466714D01*
X342314571Y-175611857D01*
X342532286Y-175684429D01*
X342677429Y-175684429D01*
X342895143Y-175611857D01*
X342967714Y-175539286D01*
X342967714Y-175031286D01*
X342677429Y-175031286D01*
X343620857Y-175684429D02*
X343620857Y-174160429D01*
X343620857Y-174886143D02*
X344491714Y-174886143D01*
X344491714Y-175684429D02*
X344491714Y-174160429D01*
X344999714Y-174160429D02*
X345870571Y-174160429D01*
X345435142Y-175684429D02*
X345435142Y-174160429D01*
X337689858Y-80611857D02*
X337907572Y-80684429D01*
X338270429Y-80684429D01*
X338415572Y-80611857D01*
X338488143Y-80539286D01*
X338560715Y-80394143D01*
X338560715Y-80249000D01*
X338488143Y-80103857D01*
X338415572Y-80031286D01*
X338270429Y-79958714D01*
X337980143Y-79886143D01*
X337835001Y-79813571D01*
X337762429Y-79741000D01*
X337689858Y-79595857D01*
X337689858Y-79450714D01*
X337762429Y-79305571D01*
X337835001Y-79233000D01*
X337980143Y-79160429D01*
X338343001Y-79160429D01*
X338560715Y-79233000D01*
X339213858Y-79886143D02*
X339721858Y-79886143D01*
X339939572Y-80684429D02*
X339213858Y-80684429D01*
X339213858Y-79160429D01*
X339939572Y-79160429D01*
X340592715Y-80684429D02*
X340592715Y-79160429D01*
X341463572Y-80684429D01*
X341463572Y-79160429D01*
X342189286Y-80684429D02*
X342189286Y-79160429D01*
X342552143Y-79160429D01*
X342769858Y-79233000D01*
X342915000Y-79378143D01*
X342987572Y-79523286D01*
X343060143Y-79813571D01*
X343060143Y-80031286D01*
X342987572Y-80321571D01*
X342915000Y-80466714D01*
X342769858Y-80611857D01*
X342552143Y-80684429D01*
X342189286Y-80684429D01*
X333754571Y-98886143D02*
X333972285Y-98958714D01*
X334044857Y-99031286D01*
X334117428Y-99176429D01*
X334117428Y-99394143D01*
X334044857Y-99539286D01*
X333972285Y-99611857D01*
X333827143Y-99684429D01*
X333246571Y-99684429D01*
X333246571Y-98160429D01*
X333754571Y-98160429D01*
X333899714Y-98233000D01*
X333972285Y-98305571D01*
X334044857Y-98450714D01*
X334044857Y-98595857D01*
X333972285Y-98741000D01*
X333899714Y-98813571D01*
X333754571Y-98886143D01*
X333246571Y-98886143D01*
X334770571Y-99684429D02*
X334770571Y-98160429D01*
X335641428Y-99684429D02*
X334988285Y-98813571D01*
X335641428Y-98160429D02*
X334770571Y-99031286D01*
X336222000Y-99611857D02*
X336439714Y-99684429D01*
X336802571Y-99684429D01*
X336947714Y-99611857D01*
X337020285Y-99539286D01*
X337092857Y-99394143D01*
X337092857Y-99249000D01*
X337020285Y-99103857D01*
X336947714Y-99031286D01*
X336802571Y-98958714D01*
X336512285Y-98886143D01*
X336367143Y-98813571D01*
X336294571Y-98741000D01*
X336222000Y-98595857D01*
X336222000Y-98450714D01*
X336294571Y-98305571D01*
X336367143Y-98233000D01*
X336512285Y-98160429D01*
X336875143Y-98160429D01*
X337092857Y-98233000D01*
X337746000Y-99684429D02*
X337746000Y-98160429D01*
X338326572Y-98160429D01*
X338471714Y-98233000D01*
X338544286Y-98305571D01*
X338616857Y-98450714D01*
X338616857Y-98668429D01*
X338544286Y-98813571D01*
X338471714Y-98886143D01*
X338326572Y-98958714D01*
X337746000Y-98958714D01*
X339197429Y-99249000D02*
X339923143Y-99249000D01*
X339052286Y-99684429D02*
X339560286Y-98160429D01*
X340068286Y-99684429D01*
X341447143Y-99539286D02*
X341374572Y-99611857D01*
X341156858Y-99684429D01*
X341011715Y-99684429D01*
X340794000Y-99611857D01*
X340648858Y-99466714D01*
X340576286Y-99321571D01*
X340503715Y-99031286D01*
X340503715Y-98813571D01*
X340576286Y-98523286D01*
X340648858Y-98378143D01*
X340794000Y-98233000D01*
X341011715Y-98160429D01*
X341156858Y-98160429D01*
X341374572Y-98233000D01*
X341447143Y-98305571D01*
X342100286Y-98886143D02*
X342608286Y-98886143D01*
X342826000Y-99684429D02*
X342100286Y-99684429D01*
X342100286Y-98160429D01*
X342826000Y-98160429D01*
X338577143Y-117886143D02*
X338794857Y-117958714D01*
X338867429Y-118031286D01*
X338940000Y-118176429D01*
X338940000Y-118394143D01*
X338867429Y-118539286D01*
X338794857Y-118611857D01*
X338649715Y-118684429D01*
X338069143Y-118684429D01*
X338069143Y-117160429D01*
X338577143Y-117160429D01*
X338722286Y-117233000D01*
X338794857Y-117305571D01*
X338867429Y-117450714D01*
X338867429Y-117595857D01*
X338794857Y-117741000D01*
X338722286Y-117813571D01*
X338577143Y-117886143D01*
X338069143Y-117886143D01*
X339593143Y-118684429D02*
X339593143Y-117160429D01*
X340464000Y-118684429D02*
X339810857Y-117813571D01*
X340464000Y-117160429D02*
X339593143Y-118031286D01*
X341044572Y-118611857D02*
X341262286Y-118684429D01*
X341625143Y-118684429D01*
X341770286Y-118611857D01*
X341842857Y-118539286D01*
X341915429Y-118394143D01*
X341915429Y-118249000D01*
X341842857Y-118103857D01*
X341770286Y-118031286D01*
X341625143Y-117958714D01*
X341334857Y-117886143D01*
X341189715Y-117813571D01*
X341117143Y-117741000D01*
X341044572Y-117595857D01*
X341044572Y-117450714D01*
X341117143Y-117305571D01*
X341189715Y-117233000D01*
X341334857Y-117160429D01*
X341697715Y-117160429D01*
X341915429Y-117233000D01*
X343294286Y-118684429D02*
X342568572Y-118684429D01*
X342568572Y-117160429D01*
X343729715Y-118249000D02*
X344455429Y-118249000D01*
X343584572Y-118684429D02*
X344092572Y-117160429D01*
X344600572Y-118684429D01*
X345036001Y-118611857D02*
X345253715Y-118684429D01*
X345616572Y-118684429D01*
X345761715Y-118611857D01*
X345834286Y-118539286D01*
X345906858Y-118394143D01*
X345906858Y-118249000D01*
X345834286Y-118103857D01*
X345761715Y-118031286D01*
X345616572Y-117958714D01*
X345326286Y-117886143D01*
X345181144Y-117813571D01*
X345108572Y-117741000D01*
X345036001Y-117595857D01*
X345036001Y-117450714D01*
X345108572Y-117305571D01*
X345181144Y-117233000D01*
X345326286Y-117160429D01*
X345689144Y-117160429D01*
X345906858Y-117233000D01*
X346560001Y-118684429D02*
X346560001Y-117160429D01*
X346560001Y-117886143D02*
X347430858Y-117886143D01*
X347430858Y-118684429D02*
X347430858Y-117160429D01*
%LPC*%
D15*
X86250000Y-88250000D03*
D16*
X88790000Y-83170000D03*
X82440000Y-85710000D03*
D17*
X81170000Y-88250000D03*
X91330000Y-88250000D03*
D18*
X97500000Y-75500000D03*
X174500000Y-75500000D03*
X254500000Y-75500000D03*
X331500000Y-75500000D03*
X97500000Y-202500000D03*
X174500000Y-202500000D03*
X254500000Y-202500000D03*
X331500000Y-202500000D03*
D19*
X189500000Y-74500000D03*
X190500000Y-76500000D03*
X191500000Y-74500000D03*
X192500000Y-76500000D03*
X193500000Y-74500000D03*
X194500000Y-76500000D03*
X195500000Y-74500000D03*
X196500000Y-76500000D03*
X197500000Y-74500000D03*
X198500000Y-76500000D03*
X199500000Y-74500000D03*
X200500000Y-76500000D03*
X201500000Y-74500000D03*
X202500000Y-76500000D03*
X203500000Y-74500000D03*
X204500000Y-76500000D03*
D20*
X224500000Y-74500000D03*
D19*
X225500000Y-76500000D03*
X226500000Y-74500000D03*
X227500000Y-76500000D03*
X228500000Y-74500000D03*
X229500000Y-76500000D03*
X230500000Y-74500000D03*
X231500000Y-76500000D03*
X232500000Y-74500000D03*
X233500000Y-76500000D03*
D15*
X86250000Y-107250000D03*
D16*
X88790000Y-102170000D03*
X82440000Y-104710000D03*
D17*
X81170000Y-107250000D03*
X91330000Y-107250000D03*
D15*
X91000000Y-126250000D03*
D16*
X93540000Y-121170000D03*
X87190000Y-123710000D03*
D17*
X85920000Y-126250000D03*
X96080000Y-126250000D03*
D15*
X88625000Y-145250000D03*
D16*
X91165000Y-140170000D03*
X84815000Y-142710000D03*
D17*
X83545000Y-145250000D03*
X93705000Y-145250000D03*
D15*
X98125000Y-164250000D03*
D16*
X100665000Y-159170000D03*
X94315000Y-161710000D03*
D17*
X93045000Y-164250000D03*
X103205000Y-164250000D03*
D15*
X86250000Y-183250000D03*
D16*
X88790000Y-178170000D03*
X82440000Y-180710000D03*
D17*
X81170000Y-183250000D03*
X91330000Y-183250000D03*
D15*
X110000000Y-88250000D03*
D16*
X112540000Y-83170000D03*
X106190000Y-85710000D03*
D17*
X104920000Y-88250000D03*
X115080000Y-88250000D03*
D15*
X105250000Y-107250000D03*
D16*
X107790000Y-102170000D03*
X101440000Y-104710000D03*
D17*
X100170000Y-107250000D03*
X110330000Y-107250000D03*
D15*
X114750000Y-126250000D03*
D16*
X117290000Y-121170000D03*
X110940000Y-123710000D03*
D17*
X109670000Y-126250000D03*
X119830000Y-126250000D03*
D15*
X119500000Y-145250000D03*
D16*
X122040000Y-140170000D03*
X115690000Y-142710000D03*
D17*
X114420000Y-145250000D03*
X124580000Y-145250000D03*
D15*
X129000000Y-164250000D03*
D16*
X131540000Y-159170000D03*
X125190000Y-161710000D03*
D17*
X123920000Y-164250000D03*
X134080000Y-164250000D03*
D15*
X105250000Y-183250000D03*
D16*
X107790000Y-178170000D03*
X101440000Y-180710000D03*
D17*
X100170000Y-183250000D03*
X110330000Y-183250000D03*
D15*
X129000000Y-88250000D03*
D16*
X131540000Y-83170000D03*
X125190000Y-85710000D03*
D17*
X123920000Y-88250000D03*
X134080000Y-88250000D03*
D15*
X124250000Y-107250000D03*
D16*
X126790000Y-102170000D03*
X120440000Y-104710000D03*
D17*
X119170000Y-107250000D03*
X129330000Y-107250000D03*
D15*
X133750000Y-126250000D03*
D16*
X136290000Y-121170000D03*
X129940000Y-123710000D03*
D17*
X128670000Y-126250000D03*
X138830000Y-126250000D03*
D15*
X138500000Y-145250000D03*
D16*
X141040000Y-140170000D03*
X134690000Y-142710000D03*
D17*
X133420000Y-145250000D03*
X143580000Y-145250000D03*
D15*
X148000000Y-164250000D03*
D16*
X150540000Y-159170000D03*
X144190000Y-161710000D03*
D17*
X142920000Y-164250000D03*
X153080000Y-164250000D03*
D15*
X124250000Y-183250000D03*
D16*
X126790000Y-178170000D03*
X120440000Y-180710000D03*
D17*
X119170000Y-183250000D03*
X129330000Y-183250000D03*
D15*
X148000000Y-88250000D03*
D16*
X150540000Y-83170000D03*
X144190000Y-85710000D03*
D17*
X142920000Y-88250000D03*
X153080000Y-88250000D03*
D15*
X143250000Y-107250000D03*
D16*
X145790000Y-102170000D03*
X139440000Y-104710000D03*
D17*
X138170000Y-107250000D03*
X148330000Y-107250000D03*
D15*
X152750000Y-126250000D03*
D16*
X155290000Y-121170000D03*
X148940000Y-123710000D03*
D17*
X147670000Y-126250000D03*
X157830000Y-126250000D03*
D15*
X157500000Y-145250000D03*
D16*
X160040000Y-140170000D03*
X153690000Y-142710000D03*
D17*
X152420000Y-145250000D03*
X162580000Y-145250000D03*
D15*
X167000000Y-164250000D03*
D16*
X169540000Y-159170000D03*
X163190000Y-161710000D03*
D17*
X161920000Y-164250000D03*
X172080000Y-164250000D03*
D15*
X143250000Y-183250000D03*
D16*
X145790000Y-178170000D03*
X139440000Y-180710000D03*
D17*
X138170000Y-183250000D03*
X148330000Y-183250000D03*
D15*
X167000000Y-88250000D03*
D16*
X169540000Y-83170000D03*
X163190000Y-85710000D03*
D17*
X161920000Y-88250000D03*
X172080000Y-88250000D03*
D15*
X162250000Y-107250000D03*
D16*
X164790000Y-102170000D03*
X158440000Y-104710000D03*
D17*
X157170000Y-107250000D03*
X167330000Y-107250000D03*
D15*
X171750000Y-126250000D03*
D16*
X174290000Y-121170000D03*
X167940000Y-123710000D03*
D17*
X166670000Y-126250000D03*
X176830000Y-126250000D03*
D15*
X176500000Y-145250000D03*
D16*
X179040000Y-140170000D03*
X172690000Y-142710000D03*
D17*
X171420000Y-145250000D03*
X181580000Y-145250000D03*
D15*
X186000000Y-164250000D03*
D16*
X188540000Y-159170000D03*
X182190000Y-161710000D03*
D17*
X180920000Y-164250000D03*
X191080000Y-164250000D03*
D15*
X162250000Y-183250000D03*
D16*
X164790000Y-178170000D03*
X158440000Y-180710000D03*
D17*
X157170000Y-183250000D03*
X167330000Y-183250000D03*
D15*
X186000000Y-88250000D03*
D16*
X188540000Y-83170000D03*
X182190000Y-85710000D03*
D17*
X180920000Y-88250000D03*
X191080000Y-88250000D03*
D15*
X181250000Y-107250000D03*
D16*
X183790000Y-102170000D03*
X177440000Y-104710000D03*
D17*
X176170000Y-107250000D03*
X186330000Y-107250000D03*
D15*
X190750000Y-126250000D03*
D16*
X193290000Y-121170000D03*
X186940000Y-123710000D03*
D17*
X185670000Y-126250000D03*
X195830000Y-126250000D03*
D15*
X195500000Y-145250000D03*
D16*
X198040000Y-140170000D03*
X191690000Y-142710000D03*
D17*
X190420000Y-145250000D03*
X200580000Y-145250000D03*
D15*
X205000000Y-164250000D03*
D16*
X207540000Y-159170000D03*
X201190000Y-161710000D03*
D17*
X199920000Y-164250000D03*
X210080000Y-164250000D03*
D15*
X181250000Y-183250000D03*
D16*
X183790000Y-178170000D03*
X177440000Y-180710000D03*
D17*
X176170000Y-183250000D03*
X186330000Y-183250000D03*
D15*
X205000000Y-88250000D03*
D16*
X207540000Y-83170000D03*
X201190000Y-85710000D03*
D17*
X199920000Y-88250000D03*
X210080000Y-88250000D03*
D15*
X200250000Y-107250000D03*
D16*
X202790000Y-102170000D03*
X196440000Y-104710000D03*
D17*
X195170000Y-107250000D03*
X205330000Y-107250000D03*
D15*
X209750000Y-126250000D03*
D16*
X212290000Y-121170000D03*
X205940000Y-123710000D03*
D17*
X204670000Y-126250000D03*
X214830000Y-126250000D03*
D15*
X214500000Y-145250000D03*
D16*
X217040000Y-140170000D03*
X210690000Y-142710000D03*
D17*
X209420000Y-145250000D03*
X219580000Y-145250000D03*
D15*
X224000000Y-164250000D03*
D16*
X226540000Y-159170000D03*
X220190000Y-161710000D03*
D17*
X218920000Y-164250000D03*
X229080000Y-164250000D03*
D15*
X209750000Y-183250000D03*
D16*
X212290000Y-178170000D03*
X205940000Y-180710000D03*
D17*
X204670000Y-183250000D03*
X214830000Y-183250000D03*
D15*
X224000000Y-88250000D03*
D16*
X226540000Y-83170000D03*
X220190000Y-85710000D03*
D17*
X218920000Y-88250000D03*
X229080000Y-88250000D03*
D15*
X219250000Y-107250000D03*
D16*
X221790000Y-102170000D03*
X215440000Y-104710000D03*
D17*
X214170000Y-107250000D03*
X224330000Y-107250000D03*
D15*
X228750000Y-126250000D03*
D16*
X231290000Y-121170000D03*
X224940000Y-123710000D03*
D17*
X223670000Y-126250000D03*
X233830000Y-126250000D03*
D15*
X233500000Y-145250000D03*
D16*
X236040000Y-140170000D03*
X229690000Y-142710000D03*
D17*
X228420000Y-145250000D03*
X238580000Y-145250000D03*
D15*
X243000000Y-164250000D03*
D16*
X245540000Y-159170000D03*
X239190000Y-161710000D03*
D17*
X237920000Y-164250000D03*
X248080000Y-164250000D03*
D15*
X240625000Y-183250000D03*
D16*
X243165000Y-178170000D03*
X236815000Y-180710000D03*
D17*
X235545000Y-183250000D03*
X245705000Y-183250000D03*
D15*
X243000000Y-88250000D03*
D16*
X245540000Y-83170000D03*
X239190000Y-85710000D03*
D17*
X237920000Y-88250000D03*
X248080000Y-88250000D03*
D15*
X238250000Y-107250000D03*
D16*
X240790000Y-102170000D03*
X234440000Y-104710000D03*
D17*
X233170000Y-107250000D03*
X243330000Y-107250000D03*
D15*
X247750000Y-126250000D03*
D16*
X250290000Y-121170000D03*
X243940000Y-123710000D03*
D17*
X242670000Y-126250000D03*
X252830000Y-126250000D03*
D15*
X252500000Y-145250000D03*
D16*
X255040000Y-140170000D03*
X248690000Y-142710000D03*
D17*
X247420000Y-145250000D03*
X257580000Y-145250000D03*
D15*
X262000000Y-164250000D03*
D16*
X264540000Y-159170000D03*
X258190000Y-161710000D03*
D17*
X256920000Y-164250000D03*
X267080000Y-164250000D03*
D15*
X264375000Y-183250000D03*
D16*
X266915000Y-178170000D03*
X260565000Y-180710000D03*
D17*
X259295000Y-183250000D03*
X269455000Y-183250000D03*
D15*
X262000000Y-88250000D03*
D16*
X264540000Y-83170000D03*
X258190000Y-85710000D03*
D17*
X256920000Y-88250000D03*
X267080000Y-88250000D03*
D15*
X257250000Y-107250000D03*
D16*
X259790000Y-102170000D03*
X253440000Y-104710000D03*
D17*
X252170000Y-107250000D03*
X262330000Y-107250000D03*
D15*
X266750000Y-126250000D03*
D16*
X269290000Y-121170000D03*
X262940000Y-123710000D03*
D17*
X261670000Y-126250000D03*
X271830000Y-126250000D03*
D15*
X271500000Y-145250000D03*
D16*
X274040000Y-140170000D03*
X267690000Y-142710000D03*
D17*
X266420000Y-145250000D03*
X276580000Y-145250000D03*
D15*
X281000000Y-164250000D03*
D16*
X283540000Y-159170000D03*
X277190000Y-161710000D03*
D17*
X275920000Y-164250000D03*
X286080000Y-164250000D03*
D15*
X285750000Y-183250000D03*
D16*
X288290000Y-178170000D03*
X281940000Y-180710000D03*
D17*
X280670000Y-183250000D03*
X290830000Y-183250000D03*
D15*
X281000000Y-88250000D03*
D16*
X283540000Y-83170000D03*
X277190000Y-85710000D03*
D17*
X275920000Y-88250000D03*
X286080000Y-88250000D03*
D15*
X276250000Y-107250000D03*
D16*
X278790000Y-102170000D03*
X272440000Y-104710000D03*
D17*
X271170000Y-107250000D03*
X281330000Y-107250000D03*
D15*
X285750000Y-126250000D03*
D16*
X288290000Y-121170000D03*
X281940000Y-123710000D03*
D17*
X280670000Y-126250000D03*
X290830000Y-126250000D03*
D15*
X290500000Y-145250000D03*
D16*
X293040000Y-140170000D03*
X286690000Y-142710000D03*
D17*
X285420000Y-145250000D03*
X295580000Y-145250000D03*
D15*
X300000000Y-164250000D03*
D16*
X302540000Y-159170000D03*
X296190000Y-161710000D03*
D17*
X294920000Y-164250000D03*
X305080000Y-164250000D03*
D15*
X323750000Y-183250000D03*
D16*
X326290000Y-178170000D03*
X319940000Y-180710000D03*
D17*
X318670000Y-183250000D03*
X328830000Y-183250000D03*
D15*
X300000000Y-88250000D03*
D16*
X302540000Y-83170000D03*
X296190000Y-85710000D03*
D17*
X294920000Y-88250000D03*
X305080000Y-88250000D03*
D15*
X295250000Y-107250000D03*
D16*
X297790000Y-102170000D03*
X291440000Y-104710000D03*
D17*
X290170000Y-107250000D03*
X300330000Y-107250000D03*
D15*
X304750000Y-126250000D03*
D16*
X307290000Y-121170000D03*
X300940000Y-123710000D03*
D17*
X299670000Y-126250000D03*
X309830000Y-126250000D03*
D15*
X309500000Y-145250000D03*
D16*
X312040000Y-140170000D03*
X305690000Y-142710000D03*
D17*
X304420000Y-145250000D03*
X314580000Y-145250000D03*
D15*
X330875000Y-164250000D03*
D16*
X333415000Y-159170000D03*
X327065000Y-161710000D03*
D17*
X325795000Y-164250000D03*
X335955000Y-164250000D03*
D15*
X304750000Y-183250000D03*
D16*
X307290000Y-178170000D03*
X300940000Y-180710000D03*
D17*
X299670000Y-183250000D03*
X309830000Y-183250000D03*
D15*
X319000000Y-88250000D03*
D16*
X321540000Y-83170000D03*
X315190000Y-85710000D03*
D17*
X313920000Y-88250000D03*
X324080000Y-88250000D03*
D15*
X314250000Y-107250000D03*
D16*
X316790000Y-102170000D03*
X310440000Y-104710000D03*
D17*
X309170000Y-107250000D03*
X319330000Y-107250000D03*
D15*
X323750000Y-126250000D03*
D16*
X326290000Y-121170000D03*
X319940000Y-123710000D03*
D17*
X318670000Y-126250000D03*
X328830000Y-126250000D03*
D15*
X335625000Y-145250000D03*
D16*
X338165000Y-140170000D03*
X331815000Y-142710000D03*
D17*
X330545000Y-145250000D03*
X340705000Y-145250000D03*
D15*
X342750000Y-183250000D03*
D16*
X345290000Y-178170000D03*
X338940000Y-180710000D03*
D17*
X337670000Y-183250000D03*
X347830000Y-183250000D03*
D15*
X340375000Y-88250000D03*
D16*
X342915000Y-83170000D03*
X336565000Y-85710000D03*
D17*
X335295000Y-88250000D03*
X345455000Y-88250000D03*
D15*
X338000000Y-107250000D03*
D16*
X340540000Y-102170000D03*
X334190000Y-104710000D03*
D17*
X332920000Y-107250000D03*
X343080000Y-107250000D03*
D15*
X342750000Y-126250000D03*
D16*
X345290000Y-121170000D03*
X338940000Y-123710000D03*
D17*
X337670000Y-126250000D03*
X347830000Y-126250000D03*
D21*
X86325000Y-157250000D03*
X110025000Y-157250000D03*
D22*
X110025000Y-172450000D03*
X86325000Y-172450000D03*
D21*
X319075000Y-157250000D03*
X342775000Y-157250000D03*
D22*
X342775000Y-172450000D03*
X319075000Y-172450000D03*
D21*
X197950000Y-176250000D03*
X221650000Y-176250000D03*
D22*
X221650000Y-191450000D03*
X197950000Y-191450000D03*
D23*
X98250000Y-83250000D03*
D24*
X98250000Y-90870000D03*
M02*
