G04 #@! TF.FileFunction,Soldermask,Bot*
%FSLAX46Y46*%
G04 Gerber Fmt 4.6, Leading zero omitted, Abs format (unit mm)*
G04 Created by KiCad (PCBNEW 4.0.6) date 09/10/17 00:35:59*
%MOMM*%
%LPD*%
G01*
G04 APERTURE LIST*
%ADD10C,0.100000*%
%ADD11C,4.380180*%
%ADD12C,3.000000*%
%ADD13C,2.099260*%
%ADD14C,3.400000*%
%ADD15C,1.900000*%
%ADD16C,1.924000*%
%ADD17C,3.450000*%
%ADD18C,4.400000*%
%ADD19R,2.000000X2.000000*%
%ADD20O,2.000000X2.000000*%
G04 APERTURE END LIST*
D10*
D11*
X86250000Y-88250000D03*
D12*
X88790000Y-83170000D03*
X82440000Y-85710000D03*
D13*
X81170000Y-88250000D03*
X91330000Y-88250000D03*
D14*
X97500000Y-75500000D03*
X174500000Y-75500000D03*
X254500000Y-75500000D03*
X331500000Y-75500000D03*
X97500000Y-202500000D03*
X174500000Y-202500000D03*
X254500000Y-202500000D03*
X331500000Y-202500000D03*
D15*
X189500000Y-74500000D03*
X190500000Y-76500000D03*
X191500000Y-74500000D03*
X192500000Y-76500000D03*
X193500000Y-74500000D03*
X194500000Y-76500000D03*
X195500000Y-74500000D03*
X196500000Y-76500000D03*
X197500000Y-74500000D03*
X198500000Y-76500000D03*
X199500000Y-74500000D03*
X200500000Y-76500000D03*
X201500000Y-74500000D03*
X202500000Y-76500000D03*
X203500000Y-74500000D03*
X204500000Y-76500000D03*
D16*
X224500000Y-74500000D03*
D15*
X225500000Y-76500000D03*
X226500000Y-74500000D03*
X227500000Y-76500000D03*
X228500000Y-74500000D03*
X229500000Y-76500000D03*
X230500000Y-74500000D03*
X231500000Y-76500000D03*
X232500000Y-74500000D03*
X233500000Y-76500000D03*
D11*
X86250000Y-107250000D03*
D12*
X88790000Y-102170000D03*
X82440000Y-104710000D03*
D13*
X81170000Y-107250000D03*
X91330000Y-107250000D03*
D11*
X91000000Y-126250000D03*
D12*
X93540000Y-121170000D03*
X87190000Y-123710000D03*
D13*
X85920000Y-126250000D03*
X96080000Y-126250000D03*
D11*
X88625000Y-145250000D03*
D12*
X91165000Y-140170000D03*
X84815000Y-142710000D03*
D13*
X83545000Y-145250000D03*
X93705000Y-145250000D03*
D11*
X98125000Y-164250000D03*
D12*
X100665000Y-159170000D03*
X94315000Y-161710000D03*
D13*
X93045000Y-164250000D03*
X103205000Y-164250000D03*
D11*
X86250000Y-183250000D03*
D12*
X88790000Y-178170000D03*
X82440000Y-180710000D03*
D13*
X81170000Y-183250000D03*
X91330000Y-183250000D03*
D11*
X110000000Y-88250000D03*
D12*
X112540000Y-83170000D03*
X106190000Y-85710000D03*
D13*
X104920000Y-88250000D03*
X115080000Y-88250000D03*
D11*
X105250000Y-107250000D03*
D12*
X107790000Y-102170000D03*
X101440000Y-104710000D03*
D13*
X100170000Y-107250000D03*
X110330000Y-107250000D03*
D11*
X114750000Y-126250000D03*
D12*
X117290000Y-121170000D03*
X110940000Y-123710000D03*
D13*
X109670000Y-126250000D03*
X119830000Y-126250000D03*
D11*
X119500000Y-145250000D03*
D12*
X122040000Y-140170000D03*
X115690000Y-142710000D03*
D13*
X114420000Y-145250000D03*
X124580000Y-145250000D03*
D11*
X129000000Y-164250000D03*
D12*
X131540000Y-159170000D03*
X125190000Y-161710000D03*
D13*
X123920000Y-164250000D03*
X134080000Y-164250000D03*
D11*
X105250000Y-183250000D03*
D12*
X107790000Y-178170000D03*
X101440000Y-180710000D03*
D13*
X100170000Y-183250000D03*
X110330000Y-183250000D03*
D11*
X129000000Y-88250000D03*
D12*
X131540000Y-83170000D03*
X125190000Y-85710000D03*
D13*
X123920000Y-88250000D03*
X134080000Y-88250000D03*
D11*
X124250000Y-107250000D03*
D12*
X126790000Y-102170000D03*
X120440000Y-104710000D03*
D13*
X119170000Y-107250000D03*
X129330000Y-107250000D03*
D11*
X133750000Y-126250000D03*
D12*
X136290000Y-121170000D03*
X129940000Y-123710000D03*
D13*
X128670000Y-126250000D03*
X138830000Y-126250000D03*
D11*
X138500000Y-145250000D03*
D12*
X141040000Y-140170000D03*
X134690000Y-142710000D03*
D13*
X133420000Y-145250000D03*
X143580000Y-145250000D03*
D11*
X148000000Y-164250000D03*
D12*
X150540000Y-159170000D03*
X144190000Y-161710000D03*
D13*
X142920000Y-164250000D03*
X153080000Y-164250000D03*
D11*
X124250000Y-183250000D03*
D12*
X126790000Y-178170000D03*
X120440000Y-180710000D03*
D13*
X119170000Y-183250000D03*
X129330000Y-183250000D03*
D11*
X148000000Y-88250000D03*
D12*
X150540000Y-83170000D03*
X144190000Y-85710000D03*
D13*
X142920000Y-88250000D03*
X153080000Y-88250000D03*
D11*
X143250000Y-107250000D03*
D12*
X145790000Y-102170000D03*
X139440000Y-104710000D03*
D13*
X138170000Y-107250000D03*
X148330000Y-107250000D03*
D11*
X152750000Y-126250000D03*
D12*
X155290000Y-121170000D03*
X148940000Y-123710000D03*
D13*
X147670000Y-126250000D03*
X157830000Y-126250000D03*
D11*
X157500000Y-145250000D03*
D12*
X160040000Y-140170000D03*
X153690000Y-142710000D03*
D13*
X152420000Y-145250000D03*
X162580000Y-145250000D03*
D11*
X167000000Y-164250000D03*
D12*
X169540000Y-159170000D03*
X163190000Y-161710000D03*
D13*
X161920000Y-164250000D03*
X172080000Y-164250000D03*
D11*
X143250000Y-183250000D03*
D12*
X145790000Y-178170000D03*
X139440000Y-180710000D03*
D13*
X138170000Y-183250000D03*
X148330000Y-183250000D03*
D11*
X167000000Y-88250000D03*
D12*
X169540000Y-83170000D03*
X163190000Y-85710000D03*
D13*
X161920000Y-88250000D03*
X172080000Y-88250000D03*
D11*
X162250000Y-107250000D03*
D12*
X164790000Y-102170000D03*
X158440000Y-104710000D03*
D13*
X157170000Y-107250000D03*
X167330000Y-107250000D03*
D11*
X171750000Y-126250000D03*
D12*
X174290000Y-121170000D03*
X167940000Y-123710000D03*
D13*
X166670000Y-126250000D03*
X176830000Y-126250000D03*
D11*
X176500000Y-145250000D03*
D12*
X179040000Y-140170000D03*
X172690000Y-142710000D03*
D13*
X171420000Y-145250000D03*
X181580000Y-145250000D03*
D11*
X186000000Y-164250000D03*
D12*
X188540000Y-159170000D03*
X182190000Y-161710000D03*
D13*
X180920000Y-164250000D03*
X191080000Y-164250000D03*
D11*
X162250000Y-183250000D03*
D12*
X164790000Y-178170000D03*
X158440000Y-180710000D03*
D13*
X157170000Y-183250000D03*
X167330000Y-183250000D03*
D11*
X186000000Y-88250000D03*
D12*
X188540000Y-83170000D03*
X182190000Y-85710000D03*
D13*
X180920000Y-88250000D03*
X191080000Y-88250000D03*
D11*
X181250000Y-107250000D03*
D12*
X183790000Y-102170000D03*
X177440000Y-104710000D03*
D13*
X176170000Y-107250000D03*
X186330000Y-107250000D03*
D11*
X190750000Y-126250000D03*
D12*
X193290000Y-121170000D03*
X186940000Y-123710000D03*
D13*
X185670000Y-126250000D03*
X195830000Y-126250000D03*
D11*
X195500000Y-145250000D03*
D12*
X198040000Y-140170000D03*
X191690000Y-142710000D03*
D13*
X190420000Y-145250000D03*
X200580000Y-145250000D03*
D11*
X205000000Y-164250000D03*
D12*
X207540000Y-159170000D03*
X201190000Y-161710000D03*
D13*
X199920000Y-164250000D03*
X210080000Y-164250000D03*
D11*
X181250000Y-183250000D03*
D12*
X183790000Y-178170000D03*
X177440000Y-180710000D03*
D13*
X176170000Y-183250000D03*
X186330000Y-183250000D03*
D11*
X205000000Y-88250000D03*
D12*
X207540000Y-83170000D03*
X201190000Y-85710000D03*
D13*
X199920000Y-88250000D03*
X210080000Y-88250000D03*
D11*
X200250000Y-107250000D03*
D12*
X202790000Y-102170000D03*
X196440000Y-104710000D03*
D13*
X195170000Y-107250000D03*
X205330000Y-107250000D03*
D11*
X209750000Y-126250000D03*
D12*
X212290000Y-121170000D03*
X205940000Y-123710000D03*
D13*
X204670000Y-126250000D03*
X214830000Y-126250000D03*
D11*
X214500000Y-145250000D03*
D12*
X217040000Y-140170000D03*
X210690000Y-142710000D03*
D13*
X209420000Y-145250000D03*
X219580000Y-145250000D03*
D11*
X224000000Y-164250000D03*
D12*
X226540000Y-159170000D03*
X220190000Y-161710000D03*
D13*
X218920000Y-164250000D03*
X229080000Y-164250000D03*
D11*
X209750000Y-183250000D03*
D12*
X212290000Y-178170000D03*
X205940000Y-180710000D03*
D13*
X204670000Y-183250000D03*
X214830000Y-183250000D03*
D11*
X224000000Y-88250000D03*
D12*
X226540000Y-83170000D03*
X220190000Y-85710000D03*
D13*
X218920000Y-88250000D03*
X229080000Y-88250000D03*
D11*
X219250000Y-107250000D03*
D12*
X221790000Y-102170000D03*
X215440000Y-104710000D03*
D13*
X214170000Y-107250000D03*
X224330000Y-107250000D03*
D11*
X228750000Y-126250000D03*
D12*
X231290000Y-121170000D03*
X224940000Y-123710000D03*
D13*
X223670000Y-126250000D03*
X233830000Y-126250000D03*
D11*
X233500000Y-145250000D03*
D12*
X236040000Y-140170000D03*
X229690000Y-142710000D03*
D13*
X228420000Y-145250000D03*
X238580000Y-145250000D03*
D11*
X243000000Y-164250000D03*
D12*
X245540000Y-159170000D03*
X239190000Y-161710000D03*
D13*
X237920000Y-164250000D03*
X248080000Y-164250000D03*
D11*
X240625000Y-183250000D03*
D12*
X243165000Y-178170000D03*
X236815000Y-180710000D03*
D13*
X235545000Y-183250000D03*
X245705000Y-183250000D03*
D11*
X243000000Y-88250000D03*
D12*
X245540000Y-83170000D03*
X239190000Y-85710000D03*
D13*
X237920000Y-88250000D03*
X248080000Y-88250000D03*
D11*
X238250000Y-107250000D03*
D12*
X240790000Y-102170000D03*
X234440000Y-104710000D03*
D13*
X233170000Y-107250000D03*
X243330000Y-107250000D03*
D11*
X247750000Y-126250000D03*
D12*
X250290000Y-121170000D03*
X243940000Y-123710000D03*
D13*
X242670000Y-126250000D03*
X252830000Y-126250000D03*
D11*
X252500000Y-145250000D03*
D12*
X255040000Y-140170000D03*
X248690000Y-142710000D03*
D13*
X247420000Y-145250000D03*
X257580000Y-145250000D03*
D11*
X262000000Y-164250000D03*
D12*
X264540000Y-159170000D03*
X258190000Y-161710000D03*
D13*
X256920000Y-164250000D03*
X267080000Y-164250000D03*
D11*
X264375000Y-183250000D03*
D12*
X266915000Y-178170000D03*
X260565000Y-180710000D03*
D13*
X259295000Y-183250000D03*
X269455000Y-183250000D03*
D11*
X262000000Y-88250000D03*
D12*
X264540000Y-83170000D03*
X258190000Y-85710000D03*
D13*
X256920000Y-88250000D03*
X267080000Y-88250000D03*
D11*
X257250000Y-107250000D03*
D12*
X259790000Y-102170000D03*
X253440000Y-104710000D03*
D13*
X252170000Y-107250000D03*
X262330000Y-107250000D03*
D11*
X266750000Y-126250000D03*
D12*
X269290000Y-121170000D03*
X262940000Y-123710000D03*
D13*
X261670000Y-126250000D03*
X271830000Y-126250000D03*
D11*
X271500000Y-145250000D03*
D12*
X274040000Y-140170000D03*
X267690000Y-142710000D03*
D13*
X266420000Y-145250000D03*
X276580000Y-145250000D03*
D11*
X281000000Y-164250000D03*
D12*
X283540000Y-159170000D03*
X277190000Y-161710000D03*
D13*
X275920000Y-164250000D03*
X286080000Y-164250000D03*
D11*
X285750000Y-183250000D03*
D12*
X288290000Y-178170000D03*
X281940000Y-180710000D03*
D13*
X280670000Y-183250000D03*
X290830000Y-183250000D03*
D11*
X281000000Y-88250000D03*
D12*
X283540000Y-83170000D03*
X277190000Y-85710000D03*
D13*
X275920000Y-88250000D03*
X286080000Y-88250000D03*
D11*
X276250000Y-107250000D03*
D12*
X278790000Y-102170000D03*
X272440000Y-104710000D03*
D13*
X271170000Y-107250000D03*
X281330000Y-107250000D03*
D11*
X285750000Y-126250000D03*
D12*
X288290000Y-121170000D03*
X281940000Y-123710000D03*
D13*
X280670000Y-126250000D03*
X290830000Y-126250000D03*
D11*
X290500000Y-145250000D03*
D12*
X293040000Y-140170000D03*
X286690000Y-142710000D03*
D13*
X285420000Y-145250000D03*
X295580000Y-145250000D03*
D11*
X300000000Y-164250000D03*
D12*
X302540000Y-159170000D03*
X296190000Y-161710000D03*
D13*
X294920000Y-164250000D03*
X305080000Y-164250000D03*
D11*
X323750000Y-183250000D03*
D12*
X326290000Y-178170000D03*
X319940000Y-180710000D03*
D13*
X318670000Y-183250000D03*
X328830000Y-183250000D03*
D11*
X300000000Y-88250000D03*
D12*
X302540000Y-83170000D03*
X296190000Y-85710000D03*
D13*
X294920000Y-88250000D03*
X305080000Y-88250000D03*
D11*
X295250000Y-107250000D03*
D12*
X297790000Y-102170000D03*
X291440000Y-104710000D03*
D13*
X290170000Y-107250000D03*
X300330000Y-107250000D03*
D11*
X304750000Y-126250000D03*
D12*
X307290000Y-121170000D03*
X300940000Y-123710000D03*
D13*
X299670000Y-126250000D03*
X309830000Y-126250000D03*
D11*
X309500000Y-145250000D03*
D12*
X312040000Y-140170000D03*
X305690000Y-142710000D03*
D13*
X304420000Y-145250000D03*
X314580000Y-145250000D03*
D11*
X330875000Y-164250000D03*
D12*
X333415000Y-159170000D03*
X327065000Y-161710000D03*
D13*
X325795000Y-164250000D03*
X335955000Y-164250000D03*
D11*
X304750000Y-183250000D03*
D12*
X307290000Y-178170000D03*
X300940000Y-180710000D03*
D13*
X299670000Y-183250000D03*
X309830000Y-183250000D03*
D11*
X319000000Y-88250000D03*
D12*
X321540000Y-83170000D03*
X315190000Y-85710000D03*
D13*
X313920000Y-88250000D03*
X324080000Y-88250000D03*
D11*
X314250000Y-107250000D03*
D12*
X316790000Y-102170000D03*
X310440000Y-104710000D03*
D13*
X309170000Y-107250000D03*
X319330000Y-107250000D03*
D11*
X323750000Y-126250000D03*
D12*
X326290000Y-121170000D03*
X319940000Y-123710000D03*
D13*
X318670000Y-126250000D03*
X328830000Y-126250000D03*
D11*
X335625000Y-145250000D03*
D12*
X338165000Y-140170000D03*
X331815000Y-142710000D03*
D13*
X330545000Y-145250000D03*
X340705000Y-145250000D03*
D11*
X342750000Y-183250000D03*
D12*
X345290000Y-178170000D03*
X338940000Y-180710000D03*
D13*
X337670000Y-183250000D03*
X347830000Y-183250000D03*
D11*
X340375000Y-88250000D03*
D12*
X342915000Y-83170000D03*
X336565000Y-85710000D03*
D13*
X335295000Y-88250000D03*
X345455000Y-88250000D03*
D11*
X338000000Y-107250000D03*
D12*
X340540000Y-102170000D03*
X334190000Y-104710000D03*
D13*
X332920000Y-107250000D03*
X343080000Y-107250000D03*
D11*
X342750000Y-126250000D03*
D12*
X345290000Y-121170000D03*
X338940000Y-123710000D03*
D13*
X337670000Y-126250000D03*
X347830000Y-126250000D03*
D17*
X86325000Y-157250000D03*
X110025000Y-157250000D03*
D18*
X110025000Y-172450000D03*
X86325000Y-172450000D03*
D17*
X319075000Y-157250000D03*
X342775000Y-157250000D03*
D18*
X342775000Y-172450000D03*
X319075000Y-172450000D03*
D17*
X197950000Y-176250000D03*
X221650000Y-176250000D03*
D18*
X221650000Y-191450000D03*
X197950000Y-191450000D03*
D19*
X98250000Y-83250000D03*
D20*
X98250000Y-90870000D03*
M02*
